NotoSerifTamil-SemiCondensedLight.ufo
<glyph name="exclam" format="2">
  <advance width="283.8515151515152"/>
  <unicode hex="0021"/>
  <outline>
    <contour>
      <point x="125.57272727272728" y="184.94545454545457" type="line"/>
      <point x="158.35454545454547" y="184.94545454545457" type="line"/>
      <point x="178.20909090909092" y="714.0" type="line"/>
      <point x="104.8090909090909" y="714.0" type="line"/>
    </contour>
    <contour>
      <point x="141.32121212121214" y="-6.090909090909091" type="curve" smooth="yes"/>
      <point x="165.40606060606063" y="-6.090909090909091"/>
      <point x="186.3" y="7.03939393939394"/>
      <point x="186.3" y="47.81515151515151" type="curve" smooth="yes"/>
      <point x="186.3" y="88.81515151515153"/>
      <point x="165.40606060606063" y="101.31212121212121"/>
      <point x="141.32121212121214" y="101.31212121212121" type="curve" smooth="yes"/>
      <point x="116.27878787878788" y="101.31212121212121"/>
      <point x="96.0090909090909" y="88.81515151515153"/>
      <point x="96.0090909090909" y="47.81515151515151" type="curve" smooth="yes"/>
      <point x="96.0090909090909" y="7.03939393939394"/>
      <point x="116.27878787878788" y="-6.090909090909091"/>
    </contour>
  </outline>
</glyph>
<glyph name="quotedbl" format="2">
  <advance width="330.0939393939394"/>
  <unicode hex="0022"/>
  <outline>
    <contour>
      <point x="228.04848484848486" y="501.8606060606061" type="line"/>
      <point x="261.0636363636364" y="501.8606060606061" type="line"/>
      <point x="281.10606060606057" y="714.0" type="line"/>
      <point x="206.43030303030307" y="714.0" type="line"/>
    </contour>
    <contour>
      <point x="69.46363636363635" y="501.8606060606061" type="line"/>
      <point x="102.27878787878788" y="501.8606060606061" type="line"/>
      <point x="122.92121212121211" y="714.0" type="line"/>
      <point x="48.04545454545455" y="714.0" type="line"/>
    </contour>
  </outline>
</glyph>
<glyph name="numbersign" format="2">
  <advance width="513.4666666666667"/>
  <unicode hex="0023"/>
  <outline>
    <contour>
      <point x="69.53030303030303" y="0.0" type="line"/>
      <point x="113.98484848484847" y="0.0" type="line"/>
      <point x="153.54848484848483" y="211.27272727272728" type="line"/>
      <point x="297.9424242424243" y="211.27272727272728" type="line"/>
      <point x="258.3787878787879" y="0.0" type="line"/>
      <point x="302.83333333333337" y="0.0" type="line"/>
      <point x="342.39696969696973" y="211.27272727272728" type="line"/>
      <point x="463.3666666666667" y="211.27272727272728" type="line"/>
      <point x="463.3666666666667" y="253.21818181818182" type="line"/>
      <point x="350.8151515151515" y="253.21818181818182" type="line"/>
      <point x="390.7424242424243" y="466.5818181818182" type="line"/>
      <point x="495.3666666666667" y="466.5818181818182" type="line"/>
      <point x="495.3666666666667" y="508.9272727272728" type="line"/>
      <point x="398.8151515151515" y="508.9272727272728" type="line"/>
      <point x="437.37878787878793" y="714.0" type="line"/>
      <point x="392.7242424242424" y="714.0" type="line"/>
      <point x="354.3606060606061" y="508.9272727272728" type="line"/>
      <point x="209.96666666666667" y="508.9272727272728" type="line"/>
      <point x="248.53030303030306" y="714.0" type="line"/>
      <point x="203.53030303030303" y="714.0" type="line"/>
      <point x="165.5121212121212" y="508.9272727272728" type="line"/>
      <point x="49.4" y="508.9272727272728" type="line"/>
      <point x="49.4" y="466.5818181818182" type="line"/>
      <point x="157.23939393939395" y="466.5818181818182" type="line"/>
      <point x="117.16666666666667" y="253.21818181818182" type="line"/>
      <point x="17.4" y="253.21818181818182" type="line"/>
      <point x="17.4" y="211.27272727272728" type="line"/>
      <point x="109.09393939393938" y="211.27272727272728" type="line"/>
    </contour>
    <contour>
      <point x="161.96666666666667" y="253.21818181818182" type="line"/>
      <point x="201.8939393939394" y="466.5818181818182" type="line"/>
      <point x="346.28787878787875" y="466.5818181818182" type="line"/>
      <point x="306.3606060606061" y="253.21818181818182" type="line"/>
    </contour>
  </outline>
</glyph>
<glyph name="percent" format="2">
  <advance width="818.2121212121211"/>
  <unicode hex="0025"/>
  <outline>
    <contour>
      <point x="213.50606060606063" y="0.0" type="line"/>
      <point x="261.5181818181818" y="0.0" type="line"/>
      <point x="600.9060606060606" y="714.0" type="line"/>
      <point x="553.4393939393939" y="714.0" type="line"/>
    </contour>
    <contour>
      <point x="189.67272727272726" y="280.0" type="curve" smooth="yes"/>
      <point x="288.9" y="280.0"/>
      <point x="333.5818181818182" y="367.90909090909093"/>
      <point x="333.5818181818182" y="503.0" type="curve"/>
      <point x="333.5818181818182" y="639.5757575757575"/>
      <point x="287.0515151515151" y="724.0"/>
      <point x="190.67272727272726" y="724.0" type="curve" smooth="yes"/>
      <point x="89.23636363636365" y="724.0"/>
      <point x="46.2969696969697" y="638.6666666666666"/>
      <point x="46.2969696969697" y="503.0" type="curve" smooth="yes"/>
      <point x="46.2969696969697" y="365.3484848484849"/>
      <point x="89.11515151515152" y="280.0"/>
    </contour>
    <contour>
      <point x="189.09696969696972" y="312.72727272727275" type="curve" smooth="yes"/>
      <point x="127.43333333333334" y="312.72727272727275"/>
      <point x="103.91515151515152" y="381.54545454545456"/>
      <point x="103.91515151515152" y="503.0" type="curve"/>
      <point x="103.91515151515152" y="618.0151515151515"/>
      <point x="125.99393939393939" y="690.7272727272727"/>
      <point x="189.93030303030307" y="690.7272727272727" type="curve" smooth="yes"/>
      <point x="252.38181818181818" y="690.7272727272727"/>
      <point x="275.41818181818184" y="623.7727272727273"/>
      <point x="275.41818181818184" y="503.0" type="curve" smooth="yes"/>
      <point x="275.41818181818184" y="385.2878787878788"/>
      <point x="254.39696969696973" y="312.72727272727275"/>
    </contour>
    <contour>
      <point x="628.1727272727273" y="-10.0" type="curve" smooth="yes"/>
      <point x="727.4" y="-10.0"/>
      <point x="772.0818181818182" y="77.9090909090909"/>
      <point x="772.0818181818182" y="213.0" type="curve" smooth="yes"/>
      <point x="772.0818181818182" y="349.5757575757576"/>
      <point x="725.5515151515152" y="434.0"/>
      <point x="629.1727272727273" y="434.0" type="curve" smooth="yes"/>
      <point x="527.9363636363636" y="434.0"/>
      <point x="484.7969696969697" y="348.6666666666667"/>
      <point x="484.7969696969697" y="213.0" type="curve" smooth="yes"/>
      <point x="484.7969696969697" y="75.34848484848486"/>
      <point x="527.8151515151515" y="-10.0"/>
    </contour>
    <contour>
      <point x="627.5969696969697" y="22.727272727272727" type="curve" smooth="yes"/>
      <point x="565.9333333333333" y="22.727272727272727"/>
      <point x="542.4151515151515" y="91.54545454545455"/>
      <point x="542.4151515151515" y="213.0" type="curve" smooth="yes"/>
      <point x="542.4151515151515" y="328.0151515151515"/>
      <point x="564.4939393939394" y="400.72727272727275"/>
      <point x="628.230303030303" y="400.72727272727275" type="curve" smooth="yes"/>
      <point x="690.8818181818182" y="400.72727272727275"/>
      <point x="713.9181818181819" y="333.77272727272725"/>
      <point x="713.9181818181819" y="213.0" type="curve" smooth="yes"/>
      <point x="713.9181818181819" y="95.2878787878788"/>
      <point x="692.8969696969697" y="22.727272727272727"/>
    </contour>
  </outline>
</glyph>
<glyph name="quotesingle" format="2">
  <advance width="171.16666666666666"/>
  <unicode hex="0027"/>
  <outline>
    <contour>
      <point x="69.46363636363635" y="501.8606060606061" type="line"/>
      <point x="102.27878787878788" y="501.8606060606061" type="line"/>
      <point x="122.92121212121211" y="714.0" type="line"/>
      <point x="48.04545454545455" y="714.0" type="line"/>
    </contour>
  </outline>
</glyph>
<glyph name="parenleft" format="2">
  <advance width="293.1909090909091"/>
  <unicode hex="0028"/>
  <outline>
    <contour>
      <point x="264.1242424242424" y="-121.60303030303031" type="curve"/>
      <point x="264.1242424242424" y="-85.33636363636363" type="line"/>
      <point x="140.9151515151515" y="-14.533333333333333"/>
      <point x="119.92121212121212" y="147.0909090909091"/>
      <point x="119.92121212121212" y="316.09090909090907" type="curve" smooth="yes"/>
      <point x="119.92121212121212" y="485.09090909090907"/>
      <point x="140.05151515151513" y="648.2727272727273"/>
      <point x="264.1242424242424" y="716.6848484848485" type="curve"/>
      <point x="264.1242424242424" y="752.4939393939394" type="line"/>
      <point x="116.18484848484849" y="691.4272727272728"/>
      <point x="52.266666666666666" y="567.569696969697"/>
      <point x="52.266666666666666" y="316.09090909090907" type="curve" smooth="yes"/>
      <point x="52.266666666666666" y="63.85454545454545"/>
      <point x="116.18484848484849" y="-59.56060606060606"/>
    </contour>
  </outline>
</glyph>
<glyph name="parenright" format="2">
  <advance width="293.1909090909091"/>
  <unicode hex="0029"/>
  <outline>
    <contour>
      <point x="36.2969696969697" y="-121.60303030303031" type="line"/>
      <point x="184.23636363636362" y="-59.56060606060606"/>
      <point x="248.15454545454543" y="63.85454545454545"/>
      <point x="248.15454545454543" y="316.09090909090907" type="curve" smooth="yes"/>
      <point x="248.15454545454543" y="567.569696969697"/>
      <point x="184.23636363636362" y="691.4272727272728"/>
      <point x="36.2969696969697" y="752.4939393939394" type="curve"/>
      <point x="36.2969696969697" y="716.6848484848485" type="line"/>
      <point x="160.36969696969695" y="648.2727272727273"/>
      <point x="180.7" y="485.09090909090907"/>
      <point x="180.7" y="316.09090909090907" type="curve" smooth="yes"/>
      <point x="180.7" y="147.0909090909091"/>
      <point x="159.5060606060606" y="-14.533333333333333"/>
      <point x="36.2969696969697" y="-85.33636363636363" type="curve"/>
    </contour>
  </outline>
</glyph>
<glyph name="asterisk" format="2">
  <advance width="426.0030303030303"/>
  <unicode hex="002A"/>
  <outline>
    <contour>
      <point x="179.45151515151517" y="377.8666666666667" type="line"/>
      <point x="243.66060606060609" y="377.8666666666667" type="line"/>
      <point x="223.19090909090912" y="544.3151515151515" type="line"/>
      <point x="356.7666666666667" y="455.11818181818177" type="line"/>
      <point x="382.21818181818185" y="513.5030303030303" type="line"/>
      <point x="234.11515151515152" y="568.9333333333333" type="line"/>
      <point x="382.21818181818185" y="624.530303030303" type="line"/>
      <point x="356.7666666666667" y="684.690909090909" type="line"/>
      <point x="223.19090909090912" y="593.5515151515152" type="line"/>
      <point x="243.0848484848485" y="760.0" type="line"/>
      <point x="179.45151515151517" y="760.0" type="line"/>
      <point x="198.66363636363639" y="593.4606060606061" type="line"/>
      <point x="65.92121212121212" y="686.690909090909" type="line"/>
      <point x="39.72727272727273" y="625.530303030303" type="line"/>
      <point x="187.19696969696972" y="568.9333333333333" type="line"/>
      <point x="39.72727272727273" y="512.5030303030303" type="line"/>
      <point x="65.92121212121212" y="453.11818181818177" type="line"/>
      <point x="197.66363636363639" y="544.3484848484849" type="line"/>
    </contour>
  </outline>
</glyph>
<glyph name="plus" format="2">
  <advance width="509.8666666666667"/>
  <unicode hex="002B"/>
  <outline>
    <contour>
      <point x="231.7060606060606" y="143.0" type="line"/>
      <point x="277.2939393939394" y="143.0" type="line"/>
      <point x="277.2939393939394" y="335.1848484848485" type="line"/>
      <point x="451.76666666666665" y="335.1848484848485" type="line"/>
      <point x="451.76666666666665" y="379.6939393939394" type="line"/>
      <point x="277.2939393939394" y="379.6939393939394" type="line"/>
      <point x="277.2939393939394" y="572.0" type="line"/>
      <point x="231.7060606060606" y="572.0" type="line"/>
      <point x="231.7060606060606" y="379.6939393939394" type="line"/>
      <point x="58.1" y="379.6939393939394" type="line"/>
      <point x="58.1" y="335.1848484848485" type="line"/>
      <point x="231.7060606060606" y="335.1848484848485" type="line"/>
    </contour>
  </outline>
</glyph>
<glyph name="comma" format="2">
  <advance width="209.7787878787879"/>
  <unicode hex="002C"/>
  <outline>
    <contour>
      <point x="28.733333333333334" y="-154.0" type="line"/>
      <point x="122.99393939393939" y="-122.73636363636363"/>
      <point x="158.76363636363638" y="-54.209090909090904"/>
      <point x="158.76363636363638" y="19.70909090909091" type="curve" smooth="yes"/>
      <point x="158.76363636363638" y="74.95757575757577"/>
      <point x="130.61818181818182" y="101.14545454545454"/>
      <point x="97.81515151515151" y="101.14545454545454" type="curve" smooth="yes"/>
      <point x="71.33030303030303" y="101.14545454545454"/>
      <point x="52.987878787878785" y="84.31515151515153"/>
      <point x="52.987878787878785" y="56.906060606060606" type="curve" smooth="yes"/>
      <point x="52.987878787878785" y="12.66969696969697"/>
      <point x="109.26969696969698" y="11.403030303030302"/>
      <point x="109.26969696969698" y="-25.76969696969697" type="curve" smooth="yes"/>
      <point x="109.26969696969698" y="-61.0"/>
      <point x="85.0060606060606" y="-102.27575757575758"/>
      <point x="28.733333333333334" y="-121.22424242424243" type="curve"/>
    </contour>
  </outline>
</glyph>
<glyph name="hyphen" format="2">
  <advance width="284.8666666666667"/>
  <unicode hex="002D"/>
  <outline>
    <contour>
      <point x="23.166666666666668" y="246.10909090909092" type="line"/>
      <point x="261.7" y="246.10909090909092" type="line"/>
      <point x="261.7" y="299.3454545454546" type="line"/>
      <point x="23.166666666666668" y="299.3454545454546" type="line"/>
    </contour>
  </outline>
</glyph>
<glyph name="period" format="2">
  <advance width="209.7787878787879"/>
  <unicode hex="002E"/>
  <outline>
    <contour>
      <point x="105.23939393939395" y="-6.257575757575758" type="curve" smooth="yes"/>
      <point x="129.3242424242424" y="-6.257575757575758"/>
      <point x="150.05151515151516" y="6.872727272727273"/>
      <point x="150.05151515151516" y="47.64848484848484" type="curve" smooth="yes"/>
      <point x="150.05151515151516" y="88.64848484848486"/>
      <point x="129.3242424242424" y="101.14545454545454"/>
      <point x="105.23939393939395" y="101.14545454545454" type="curve" smooth="yes"/>
      <point x="80.19696969696969" y="101.14545454545454"/>
      <point x="59.727272727272734" y="88.64848484848486"/>
      <point x="59.727272727272734" y="47.64848484848484" type="curve" smooth="yes"/>
      <point x="59.727272727272734" y="6.872727272727273"/>
      <point x="80.19696969696969" y="-6.257575757575758"/>
    </contour>
  </outline>
</glyph>
<glyph name="slash" format="2">
  <advance width="264.5"/>
  <unicode hex="002F"/>
  <outline>
    <contour>
      <point x="0.0" y="-121.0" type="line"/>
      <point x="43.56363636363636" y="-121.0" type="line"/>
      <point x="264.5" y="760.0" type="line"/>
      <point x="221.6818181818182" y="760.0" type="line"/>
    </contour>
  </outline>
</glyph>
<glyph name="zero" format="2">
  <advance width="513.2666666666667"/>
  <unicode hex="0030"/>
  <outline>
    <contour>
      <point x="256.8666666666667" y="-10.0" type="curve" smooth="yes"/>
      <point x="398.8181818181818" y="-10.0"/>
      <point x="466.60303030303027" y="121.73636363636363"/>
      <point x="466.60303030303027" y="358.0" type="curve" smooth="yes"/>
      <point x="466.60303030303027" y="594.5272727272727"/>
      <point x="402.1454545454546" y="724.0"/>
      <point x="257.8666666666667" y="724.0" type="curve" smooth="yes"/>
      <point x="106.16969696969697" y="724.0"/>
      <point x="46.2969696969697" y="590.5090909090908"/>
      <point x="46.2969696969697" y="359.0" type="curve" smooth="yes"/>
      <point x="46.2969696969697" y="120.13333333333334"/>
      <point x="108.34545454545456" y="-10.0"/>
    </contour>
    <contour>
      <point x="256.5787878787879" y="30.018181818181823" type="curve" smooth="yes"/>
      <point x="153.02727272727273" y="30.018181818181823"/>
      <point x="113.15151515151514" y="145.00606060606063"/>
      <point x="113.15151515151514" y="358.0" type="curve" smooth="yes"/>
      <point x="113.15151515151514" y="566.1"/>
      <point x="150.14848484848486" y="683.9818181818182"/>
      <point x="257.5787878787879" y="683.9818181818182" type="curve" smooth="yes"/>
      <point x="363.58484848484846" y="683.9818181818182"/>
      <point x="400.1484848484848" y="568.1151515151515"/>
      <point x="400.1484848484848" y="358.0" type="curve" smooth="yes"/>
      <point x="400.1484848484848" y="147.3090909090909"/>
      <point x="360.41818181818184" y="30.018181818181823"/>
    </contour>
  </outline>
</glyph>
<glyph name="one" format="2">
  <advance width="513.2666666666667"/>
  <unicode hex="0031"/>
  <outline>
    <contour>
      <point x="102.70606060606062" y="0.0" type="line"/>
      <point x="414.11818181818177" y="0.0" type="line"/>
      <point x="414.11818181818177" y="31.8" type="line"/>
      <point x="363.02727272727276" y="31.8" type="line" smooth="yes"/>
      <point x="317.08787878787876" y="31.8"/>
      <point x="295.8454545454545" y="41.74242424242424"/>
      <point x="295.8454545454545" y="110.57272727272728" type="curve" smooth="yes"/>
      <point x="295.8454545454545" y="718.0" type="line"/>
      <point x="253.9787878787879" y="718.0" type="line"/>
      <point x="203.82727272727274" y="669.2" type="line" smooth="yes"/>
      <point x="148.41515151515154" y="614.1393939393939"/>
      <point x="111.93333333333332" y="599.3545454545455"/>
      <point x="71.16969696969697" y="589.0666666666667" type="curve"/>
      <point x="71.16969696969697" y="566.9787878787879"/>
      <point x="86.58181818181818" y="552.5636363636364"/>
      <point x="110.30909090909091" y="552.5636363636364" type="curve" smooth="yes"/>
      <point x="148.0090909090909" y="552.5636363636364"/>
      <point x="186.6121212121212" y="593.0030303030303"/>
      <point x="231.22727272727272" y="652.3363636363637" type="curve"/>
      <point x="231.22727272727272" y="110.57272727272728" type="line" smooth="yes"/>
      <point x="231.22727272727272" y="41.14242424242424"/>
      <point x="209.98484848484847" y="31.8"/>
      <point x="164.04545454545453" y="31.8" type="curve" smooth="yes"/>
      <point x="102.70606060606062" y="31.8" type="line"/>
    </contour>
  </outline>
</glyph>
<glyph name="two" format="2">
  <advance width="513.2666666666667"/>
  <unicode hex="0032"/>
  <outline>
    <contour>
      <point x="53.45757575757576" y="0.0" type="line"/>
      <point x="444.04242424242426" y="0.0" type="line"/>
      <point x="448.1424242424243" y="152.15757575757576" type="line"/>
      <point x="416.74242424242425" y="152.15757575757576" type="line"/>
      <point x="413.8181818181818" y="127.09393939393938" type="line" smooth="yes"/>
      <point x="407.6787878787879" y="79.6"/>
      <point x="397.16969696969693" y="54.9"/>
      <point x="343.8393939393939" y="54.9" type="curve" smooth="yes"/>
      <point x="109.22727272727273" y="54.9" type="line"/>
      <point x="291.26363636363635" y="274.8090909090909" type="line" smooth="yes"/>
      <point x="374.18787878787873" y="375.1151515151515"/>
      <point x="427.19393939393944" y="448.0030303030303"/>
      <point x="427.19393939393944" y="551.9606060606061" type="curve" smooth="yes"/>
      <point x="427.19393939393944" y="649.9909090909091"/>
      <point x="364.6272727272727" y="724.0"/>
      <point x="245.04848484848486" y="724.0" type="curve" smooth="yes"/>
      <point x="127.89696969696972" y="724.0"/>
      <point x="71.13030303030303" y="660.5121212121212"/>
      <point x="71.13030303030303" y="597.8939393939395" type="curve" smooth="yes"/>
      <point x="71.13030303030303" y="558.7"/>
      <point x="95.0060606060606" y="545.0"/>
      <point x="125.38484848484848" y="545.0" type="curve"/>
      <point x="125.38484848484848" y="624.6272727272727"/>
      <point x="157.66666666666666" y="685.5636363636364"/>
      <point x="245.04848484848486" y="685.5636363636364" type="curve" smooth="yes"/>
      <point x="329.3181818181818" y="685.5636363636364"/>
      <point x="361.3757575757576" y="621.3666666666667"/>
      <point x="361.3757575757576" y="545.2969696969697" type="curve" smooth="yes"/>
      <point x="361.3757575757576" y="450.1757575757576"/>
      <point x="325.1272727272727" y="386.5969696969697"/>
      <point x="233.35454545454544" y="271.57272727272726" type="curve" smooth="yes"/>
      <point x="53.45757575757576" y="48.61818181818182" type="line"/>
    </contour>
  </outline>
</glyph>
<glyph name="three" format="2">
  <advance width="513.2666666666667"/>
  <unicode hex="0033"/>
  <outline>
    <contour>
      <point x="236.8969696969697" y="-9.545454545454545" type="curve" smooth="yes"/>
      <point x="341.6787878787879" y="-9.545454545454545"/>
      <point x="454.3939393939394" y="45.3030303030303"/>
      <point x="454.3939393939394" y="196.6121212121212" type="curve" smooth="yes"/>
      <point x="454.3939393939394" y="327.6727272727273"/>
      <point x="369.4181818181818" y="370.6818181818182"/>
      <point x="298.48484848484844" y="378.4151515151515" type="curve"/>
      <point x="373.1272727272727" y="397.1545454545455"/>
      <point x="431.39393939393943" y="466.8"/>
      <point x="431.39393939393943" y="560.2545454545455" type="curve" smooth="yes"/>
      <point x="431.39393939393943" y="665.0575757575758"/>
      <point x="362.96060606060604" y="724.0"/>
      <point x="252.6848484848485" y="724.0" type="curve" smooth="yes"/>
      <point x="139.71515151515152" y="724.0"/>
      <point x="80.58181818181819" y="663.9757575757575"/>
      <point x="80.58181818181819" y="594.730303030303" type="curve" smooth="yes"/>
      <point x="80.58181818181819" y="557.2666666666667"/>
      <point x="104.15757575757576" y="543.7333333333333"/>
      <point x="134.03636363636363" y="543.7333333333333" type="curve"/>
      <point x="134.03636363636363" y="625.0515151515152"/>
      <point x="164.83636363636364" y="685.5636363636364"/>
      <point x="252.14848484848486" y="685.5636363636364" type="curve" smooth="yes"/>
      <point x="328.6848484848485" y="685.5636363636364"/>
      <point x="365.08484848484846" y="637.1696969696969"/>
      <point x="365.08484848484846" y="552.8181818181819" type="curve" smooth="yes"/>
      <point x="365.08484848484846" y="452.1181818181818"/>
      <point x="303.9939393939394" y="391.3636363636364"/>
      <point x="218.76060606060605" y="391.3636363636364" type="curve"/>
      <point x="188.84545454545454" y="391.3636363636364" type="line"/>
      <point x="188.84545454545454" y="352.98181818181814" type="line"/>
      <point x="220.6212121212121" y="352.98181818181814" type="line" smooth="yes"/>
      <point x="333.5181818181818" y="352.98181818181814"/>
      <point x="387.73939393939395" y="294.73333333333335"/>
      <point x="387.73939393939395" y="196.46060606060604" type="curve" smooth="yes"/>
      <point x="387.73939393939395" y="79.9090909090909"/>
      <point x="317.3212121212121" y="30.87272727272727"/>
      <point x="237.49696969696973" y="30.87272727272727" type="curve" smooth="yes"/>
      <point x="149.50909090909093" y="30.87272727272727"/>
      <point x="107.48787878787878" y="82.56363636363635"/>
      <point x="107.48787878787878" y="151.8181818181818" type="curve"/>
      <point x="82.2939393939394" y="151.8181818181818"/>
      <point x="65.17878787878789" y="133.5909090909091"/>
      <point x="65.17878787878789" y="100.98787878787878" type="curve" smooth="yes"/>
      <point x="65.17878787878789" y="43.527272727272724"/>
      <point x="118.25757575757575" y="-9.545454545454545"/>
    </contour>
  </outline>
</glyph>
<glyph name="four" format="2">
  <advance width="513.2666666666667"/>
  <unicode hex="0034"/>
  <outline>
    <contour>
      <point x="216.30303030303028" y="0.0" type="line"/>
      <point x="467.5181818181818" y="0.0" type="line"/>
      <point x="467.5181818181818" y="31.8" type="line"/>
      <point x="447.9212121212121" y="31.8" type="line" smooth="yes"/>
      <point x="401.5818181818182" y="31.8"/>
      <point x="380.10606060606057" y="41.375757575757575"/>
      <point x="380.10606060606057" y="109.9060606060606" type="curve" smooth="yes"/>
      <point x="380.10606060606057" y="201.65454545454548" type="line"/>
      <point x="500.1333333333334" y="201.65454545454548" type="line"/>
      <point x="500.1333333333334" y="243.36363636363637" type="line"/>
      <point x="380.10606060606057" y="243.36363636363637" type="line"/>
      <point x="380.10606060606057" y="714.0" type="line"/>
      <point x="316.9060606060606" y="714.0" type="line"/>
      <point x="17.92727272727273" y="231.5121212121212" type="line"/>
      <point x="17.92727272727273" y="201.65454545454548" type="line"/>
      <point x="317.41515151515154" y="201.65454545454548" type="line"/>
      <point x="317.41515151515154" y="109.9060606060606" type="line" smooth="yes"/>
      <point x="317.41515151515154" y="41.375757575757575"/>
      <point x="295.9727272727273" y="31.8"/>
      <point x="249.60000000000002" y="31.8" type="curve" smooth="yes"/>
      <point x="216.30303030303028" y="31.8" type="line"/>
    </contour>
    <contour>
      <point x="70.0969696969697" y="243.36363636363637" type="line"/>
      <point x="228.73636363636362" y="499.03333333333336" type="line" smooth="yes"/>
      <point x="254.91212121212124" y="541.4636363636364"/>
      <point x="309.7757575757576" y="634.7787878787879"/>
      <point x="321.74242424242425" y="660.6272727272727" type="curve"/>
      <point x="318.5939393939394" y="598.2939393939395"/>
      <point x="317.41515151515154" y="500.58787878787876"/>
      <point x="317.41515151515154" y="442.58787878787876" type="curve" smooth="yes"/>
      <point x="317.41515151515154" y="243.36363636363637" type="line"/>
    </contour>
  </outline>
</glyph>
<glyph name="five" format="2">
  <advance width="513.2666666666667"/>
  <unicode hex="0035"/>
  <outline>
    <contour>
      <point x="225.73939393939395" y="-10.0" type="curve" smooth="yes"/>
      <point x="358.6969696969697" y="-10.0"/>
      <point x="436.58181818181816" y="81.52424242424242"/>
      <point x="436.58181818181816" y="217.0909090909091" type="curve" smooth="yes"/>
      <point x="436.58181818181816" y="356.2393939393939"/>
      <point x="349.75151515151515" y="426.27272727272725"/>
      <point x="235.29090909090908" y="426.27272727272725" type="curve" smooth="yes"/>
      <point x="187.9878787878788" y="426.27272727272725"/>
      <point x="151.26969696969695" y="416.03030303030306"/>
      <point x="127.76969696969695" y="403.1454545454545" type="curve"/>
      <point x="149.12727272727273" y="656.7818181818182" type="line"/>
      <point x="323.40000000000003" y="656.7818181818182" type="line" smooth="yes"/>
      <point x="367.4757575757576" y="656.7818181818182"/>
      <point x="373.70909090909095" y="648.5151515151515"/>
      <point x="377.8" y="607.1181818181818" type="curve" smooth="yes"/>
      <point x="380.6363636363636" y="580.3272727272728" type="line"/>
      <point x="412.03636363636366" y="580.3272727272728" type="line"/>
      <point x="408.3454545454545" y="712.5454545454545" type="line"/>
      <point x="115.92727272727272" y="712.5454545454545" type="line"/>
      <point x="85.51818181818182" y="357.24848484848485" type="line"/>
      <point x="103.51818181818182" y="351.0121212121212" type="line"/>
      <point x="128.8848484848485" y="370.78787878787875"/>
      <point x="167.7030303030303" y="385.7090909090909"/>
      <point x="223.3121212121212" y="385.7090909090909" type="curve" smooth="yes"/>
      <point x="310.24242424242425" y="385.7090909090909"/>
      <point x="369.72727272727275" y="327.59090909090907"/>
      <point x="369.72727272727275" y="217.0909090909091" type="curve" smooth="yes"/>
      <point x="369.72727272727275" y="89.60303030303031"/>
      <point x="311.99696969696976" y="31.945454545454545"/>
      <point x="224.53939393939396" y="31.945454545454545" type="curve" smooth="yes"/>
      <point x="145.95454545454547" y="31.945454545454545"/>
      <point x="100.60606060606061" y="75.24848484848485"/>
      <point x="100.60606060606061" y="140.0909090909091" type="curve"/>
      <point x="73.85151515151516" y="140.0909090909091"/>
      <point x="58.696969696969695" y="123.64242424242424"/>
      <point x="58.696969696969695" y="91.67575757575757" type="curve" smooth="yes"/>
      <point x="58.696969696969695" y="46.81818181818182"/>
      <point x="104.28484848484848" y="-10.0"/>
    </contour>
  </outline>
</glyph>
<glyph name="six" format="2">
  <advance width="513.2666666666667"/>
  <unicode hex="0036"/>
  <outline>
    <contour>
      <point x="268.96666666666664" y="-10.0" type="curve" smooth="yes"/>
      <point x="388.7818181818182" y="-10.0"/>
      <point x="459.1424242424243" y="78.56060606060606"/>
      <point x="459.1424242424243" y="224.24242424242425" type="curve" smooth="yes"/>
      <point x="459.1424242424243" y="355.7242424242424"/>
      <point x="388.00909090909096" y="430.95151515151514"/>
      <point x="278.73333333333335" y="430.95151515151514" type="curve" smooth="yes"/>
      <point x="210.53636363636363" y="430.95151515151514"/>
      <point x="161.53333333333333" y="399.2606060606061"/>
      <point x="129.16666666666666" y="369.5363636363636" type="curve"/>
      <point x="132.1848484848485" y="586.5454545454545"/>
      <point x="191.52424242424243" y="686.6545454545455"/>
      <point x="291.06363636363636" y="686.6545454545455" type="curve" smooth="yes"/>
      <point x="359.99696969696976" y="686.6545454545455"/>
      <point x="388.53636363636366" y="643.6575757575758"/>
      <point x="388.53636363636366" y="572.9030303030303" type="curve"/>
      <point x="420.1060606060606" y="572.9030303030303"/>
      <point x="437.7151515151515" y="589.1666666666666"/>
      <point x="437.7151515151515" y="621.4393939393939" type="curve" smooth="yes"/>
      <point x="437.7151515151515" y="674.2121212121211"/>
      <point x="392.58787878787876" y="724.0"/>
      <point x="293.269696969697" y="724.0" type="curve" smooth="yes"/>
      <point x="145.23939393939395" y="724.0"/>
      <point x="63.05757575757577" y="593.5666666666667"/>
      <point x="63.05757575757577" y="346.1666666666667" type="curve" smooth="yes"/>
      <point x="63.05757575757577" y="96.86363636363636"/>
      <point x="146.08787878787882" y="-10.0"/>
    </contour>
    <contour>
      <point x="271.43333333333334" y="30.363636363636363" type="curve" smooth="yes"/>
      <point x="181.2787878787879" y="30.363636363636363"/>
      <point x="131.19696969696972" y="124.10000000000001"/>
      <point x="128.62121212121212" y="324.06666666666666" type="curve"/>
      <point x="155.0060606060606" y="351.8151515151515"/>
      <point x="200.4939393939394" y="392.369696969697"/>
      <point x="268.2242424242424" y="392.369696969697" type="curve" smooth="yes"/>
      <point x="351.6787878787879" y="392.369696969697"/>
      <point x="393.7787878787879" y="332.4424242424243"/>
      <point x="393.7787878787879" y="219.24242424242425" type="curve" smooth="yes"/>
      <point x="393.7787878787879" y="94.76363636363637"/>
      <point x="351.5030303030303" y="30.363636363636363"/>
    </contour>
  </outline>
</glyph>
<glyph name="seven" format="2">
  <advance width="513.2666666666667"/>
  <unicode hex="0037"/>
  <outline>
    <contour>
      <point x="170.84848484848487" y="0.0" type="line"/>
      <point x="221.26363636363638" y="0.0" type="line"/>
      <point x="462.05151515151516" y="687.1272727272727" type="line"/>
      <point x="462.05151515151516" y="712.5454545454545" type="line"/>
      <point x="58.521212121212116" y="712.5454545454545" type="line"/>
      <point x="53.4" y="548.9636363636364" type="line"/>
      <point x="85.4" y="548.9636363636364" type="line"/>
      <point x="89.23333333333333" y="603.7727272727273" type="line" smooth="yes"/>
      <point x="92.23333333333333" y="645.2121212121212"/>
      <point x="105.86363636363636" y="656.7818181818182"/>
      <point x="140.2969696969697" y="656.7818181818182" type="curve" smooth="yes"/>
      <point x="406.90606060606063" y="656.7818181818182" type="line"/>
    </contour>
  </outline>
</glyph>
<glyph name="eight" format="2">
  <advance width="513.2666666666667"/>
  <unicode hex="0038"/>
  <outline>
    <contour>
      <point x="253.22727272727275" y="-10.0" type="curve" smooth="yes"/>
      <point x="380.0363636363636" y="-10.0"/>
      <point x="463.7757575757576" y="57.336363636363636"/>
      <point x="463.7757575757576" y="178.3242424242424" type="curve" smooth="yes"/>
      <point x="463.7757575757576" y="278.3484848484848"/>
      <point x="408.6575757575757" y="329.8606060606061"/>
      <point x="310.3909090909091" y="378.609090909091" type="curve"/>
      <point x="390.3545454545454" y="414.3393939393939"/>
      <point x="439.75454545454545" y="465.7939393939394"/>
      <point x="439.75454545454545" y="556.7454545454545" type="curve" smooth="yes"/>
      <point x="439.75454545454545" y="653.2212121212121"/>
      <point x="377.1454545454546" y="724.0"/>
      <point x="261.0575757575757" y="724.0" type="curve" smooth="yes"/>
      <point x="134.36363636363637" y="724.0"/>
      <point x="74.56969696969698" y="648.0424242424242"/>
      <point x="74.56969696969698" y="549.6454545454545" type="curve" smooth="yes"/>
      <point x="74.56969696969698" y="462.5090909090909"/>
      <point x="127.2060606060606" y="409.7666666666667"/>
      <point x="203.49090909090907" y="369.530303030303" type="curve"/>
      <point x="113.16060606060606" y="330.83636363636367"/>
      <point x="52.693939393939395" y="273.5151515151515"/>
      <point x="52.693939393939395" y="173.58787878787882" type="curve" smooth="yes"/>
      <point x="52.693939393939395" y="65.63939393939394"/>
      <point x="121.23333333333333" y="-10.0"/>
    </contour>
    <contour>
      <point x="254.49090909090907" y="27.054545454545455" type="curve" smooth="yes"/>
      <point x="162.48484848484847" y="27.054545454545455"/>
      <point x="115.33030303030303" y="82.85454545454546"/>
      <point x="115.33030303030303" y="173.21515151515152" type="curve" smooth="yes"/>
      <point x="115.33030303030303" y="251.85151515151514"/>
      <point x="157.4878787878788" y="313.1909090909091"/>
      <point x="241.26060606060608" y="349.7090909090909" type="curve"/>
      <point x="365.8363636363636" y="293.1151515151515"/>
      <point x="402.6121212121212" y="242.96969696969697"/>
      <point x="402.6121212121212" y="168.76666666666668" type="curve" smooth="yes"/>
      <point x="402.6121212121212" y="78.87272727272729"/>
      <point x="344.05151515151516" y="27.054545454545455"/>
    </contour>
    <contour>
      <point x="272.45151515151514" y="397.3181818181818" type="curve"/>
      <point x="183.26060606060605" y="439.42424242424244"/>
      <point x="136.56969696969696" y="477.5939393939394"/>
      <point x="136.56969696969696" y="558.9181818181819" type="curve" smooth="yes"/>
      <point x="136.56969696969696" y="634.8575757575758"/>
      <point x="180.64242424242423" y="686.6"/>
      <point x="260.31212121212127" y="686.6" type="curve" smooth="yes"/>
      <point x="347.43939393939394" y="686.6"/>
      <point x="380.8818181818182" y="622.2060606060606"/>
      <point x="380.8818181818182" y="555.8848484848486" type="curve" smooth="yes"/>
      <point x="380.8818181818182" y="482.03333333333336"/>
      <point x="355.8878787878788" y="434.53030303030306"/>
    </contour>
  </outline>
</glyph>
<glyph name="nine" format="2">
  <advance width="513.2666666666667"/>
  <unicode hex="0039"/>
  <outline>
    <contour>
      <point x="209.43333333333334" y="-11.333333333333334" type="curve"/>
      <point x="379.93636363636364" y="-11.333333333333334"/>
      <point x="450.24242424242425" y="142.62121212121215"/>
      <point x="450.24242424242425" y="388.0" type="curve"/>
      <point x="450.24242424242425" y="623.2212121212121"/>
      <point x="365.66666666666663" y="724.0"/>
      <point x="239.93030303030307" y="724.0" type="curve" smooth="yes"/>
      <point x="119.52121212121214" y="724.0"/>
      <point x="53.95757575757576" y="627.1727272727272"/>
      <point x="53.95757575757576" y="483.6545454545454" type="curve" smooth="yes"/>
      <point x="53.95757575757576" y="354.8454545454546"/>
      <point x="121.95454545454547" y="281.3212121212121"/>
      <point x="235.5" y="281.3212121212121" type="curve" smooth="yes"/>
      <point x="307.24242424242425" y="281.3212121212121"/>
      <point x="361.10606060606057" y="321.69393939393944"/>
      <point x="384.3333333333333" y="350.45151515151514" type="curve"/>
      <point x="379.91515151515154" y="134.87575757575758"/>
      <point x="326.78484848484845" y="29.83030303030303"/>
      <point x="213.64848484848486" y="29.83030303030303" type="curve" smooth="yes"/>
      <point x="153.63636363636363" y="29.83030303030303"/>
      <point x="120.93939393939394" y="61.481818181818184"/>
      <point x="103.3" y="103.05454545454545" type="curve"/>
      <point x="91.39090909090909" y="98.56363636363636"/>
      <point x="82.84545454545454" y="85.36363636363636"/>
      <point x="82.84545454545454" y="66.34848484848486" type="curve" smooth="yes"/>
      <point x="82.84545454545454" y="29.415151515151514"/>
      <point x="117.57272727272726" y="-11.333333333333334"/>
    </contour>
    <contour>
      <point x="246.6818181818182" y="322.8666666666667" type="curve" smooth="yes"/>
      <point x="161.63636363636363" y="323.46666666666664"/>
      <point x="119.86666666666667" y="379.2151515151515"/>
      <point x="119.86666666666667" y="488.0" type="curve" smooth="yes"/>
      <point x="119.86666666666667" y="607.7333333333333"/>
      <point x="158.45151515151514" y="683.6363636363636"/>
      <point x="241.88181818181818" y="683.6363636363636" type="curve" smooth="yes"/>
      <point x="331.07878787878786" y="683.6363636363636"/>
      <point x="383.4424242424242" y="593.5151515151515"/>
      <point x="385.07878787878786" y="401.3151515151515" type="curve"/>
      <point x="366.41818181818184" y="371.8787878787879"/>
      <point x="322.43636363636364" y="323.46666666666664"/>
    </contour>
  </outline>
</glyph>
<glyph name="colon" format="2">
  <advance width="238.28484848484848"/>
  <unicode hex="003A"/>
  <outline>
    <contour>
      <point x="119.07878787878789" y="418.0272727272727" type="curve" smooth="yes"/>
      <point x="143.16363636363639" y="418.0272727272727"/>
      <point x="164.05757575757576" y="430.79090909090905"/>
      <point x="164.05757575757576" y="471.7333333333333" type="curve" smooth="yes"/>
      <point x="164.05757575757576" y="512.7333333333333"/>
      <point x="143.16363636363639" y="524.8636363636364"/>
      <point x="119.07878787878789" y="524.8636363636364" type="curve" smooth="yes"/>
      <point x="94.03636363636365" y="524.8636363636364"/>
      <point x="73.76666666666667" y="512.7333333333333"/>
      <point x="73.76666666666667" y="471.7333333333333" type="curve" smooth="yes"/>
      <point x="73.76666666666667" y="430.79090909090905"/>
      <point x="94.03636363636365" y="418.0272727272727"/>
    </contour>
    <contour>
      <point x="119.07878787878789" y="-6.090909090909091" type="curve" smooth="yes"/>
      <point x="143.16363636363639" y="-6.090909090909091"/>
      <point x="164.05757575757576" y="6.872727272727273"/>
      <point x="164.05757575757576" y="47.81515151515151" type="curve" smooth="yes"/>
      <point x="164.05757575757576" y="88.81515151515153"/>
      <point x="143.16363636363639" y="101.14545454545454"/>
      <point x="119.07878787878789" y="101.14545454545454" type="curve" smooth="yes"/>
      <point x="94.03636363636365" y="101.14545454545454"/>
      <point x="73.76666666666667" y="88.81515151515153"/>
      <point x="73.76666666666667" y="47.81515151515151" type="curve" smooth="yes"/>
      <point x="73.76666666666667" y="6.872727272727273"/>
      <point x="94.03636363636365" y="-6.090909090909091"/>
    </contour>
  </outline>
</glyph>
<glyph name="semicolon" format="2">
  <advance width="238.28484848484848"/>
  <unicode hex="003B"/>
  <outline>
    <contour>
      <point x="42.13939393939394" y="-154.0" type="line"/>
      <point x="136.6" y="-122.73636363636363"/>
      <point x="172.36969696969697" y="-54.209090909090904"/>
      <point x="172.36969696969697" y="19.70909090909091" type="curve" smooth="yes"/>
      <point x="172.36969696969697" y="74.95757575757577"/>
      <point x="144.22424242424245" y="101.14545454545454"/>
      <point x="111.22121212121212" y="101.14545454545454" type="curve" smooth="yes"/>
      <point x="84.93636363636364" y="101.14545454545454"/>
      <point x="66.5939393939394" y="84.31515151515153"/>
      <point x="66.5939393939394" y="56.906060606060606" type="curve" smooth="yes"/>
      <point x="66.5939393939394" y="12.66969696969697"/>
      <point x="123.07575757575758" y="11.403030303030302"/>
      <point x="123.07575757575758" y="-25.76969696969697" type="curve" smooth="yes"/>
      <point x="123.07575757575758" y="-61.2"/>
      <point x="98.81212121212123" y="-102.27575757575758"/>
      <point x="42.13939393939394" y="-121.22424242424243" type="curve"/>
    </contour>
    <contour>
      <point x="119.07878787878789" y="418.0272727272727" type="curve" smooth="yes"/>
      <point x="143.53030303030306" y="418.0272727272727"/>
      <point x="164.05757575757576" y="430.79090909090905"/>
      <point x="164.05757575757576" y="471.7333333333333" type="curve" smooth="yes"/>
      <point x="164.05757575757576" y="512.7333333333333"/>
      <point x="143.53030303030306" y="524.8636363636364"/>
      <point x="119.07878787878789" y="524.8636363636364" type="curve" smooth="yes"/>
      <point x="94.03636363636365" y="524.8636363636364"/>
      <point x="73.76666666666667" y="512.7333333333333"/>
      <point x="73.76666666666667" y="471.7333333333333" type="curve" smooth="yes"/>
      <point x="73.76666666666667" y="430.79090909090905"/>
      <point x="94.03636363636365" y="418.0272727272727"/>
    </contour>
  </outline>
</glyph>
<glyph name="less" format="2">
  <advance width="509.8666666666667"/>
  <unicode hex="003C"/>
  <outline>
    <contour>
      <point x="451.76666666666665" y="113.66969696969697" type="line"/>
      <point x="451.76666666666665" y="164.93939393939394" type="line"/>
      <point x="119.23030303030305" y="357.0" type="line"/>
      <point x="451.76666666666665" y="551.260606060606" type="line"/>
      <point x="451.76666666666665" y="602.3303030303031" type="line"/>
      <point x="58.1" y="373.1818181818182" type="line"/>
      <point x="58.1" y="341.8181818181818" type="line"/>
    </contour>
  </outline>
</glyph>
<glyph name="equal" format="2">
  <advance width="509.8666666666667"/>
  <unicode hex="003D"/>
  <outline>
    <contour>
      <point x="58.842424242424244" y="435.43030303030304" type="line"/>
      <point x="450.2818181818182" y="435.43030303030304" type="line"/>
      <point x="450.2818181818182" y="480.1393939393939" type="line"/>
      <point x="58.842424242424244" y="480.1393939393939" type="line"/>
    </contour>
    <contour>
      <point x="58.842424242424244" y="234.02727272727273" type="line"/>
      <point x="450.2818181818182" y="234.02727272727273" type="line"/>
      <point x="450.2818181818182" y="278.73636363636365" type="line"/>
      <point x="58.842424242424244" y="278.73636363636365" type="line"/>
    </contour>
  </outline>
</glyph>
<glyph name="greater" format="2">
  <advance width="509.8666666666667"/>
  <unicode hex="003E"/>
  <outline>
    <contour>
      <point x="58.1" y="113.66969696969697" type="line"/>
      <point x="451.76666666666665" y="341.8181818181818" type="line"/>
      <point x="451.76666666666665" y="373.1818181818182" type="line"/>
      <point x="58.1" y="602.3303030303031" type="line"/>
      <point x="58.1" y="551.260606060606" type="line"/>
      <point x="389.2848484848485" y="357.0" type="line"/>
      <point x="58.1" y="164.93939393939394" type="line"/>
    </contour>
  </outline>
</glyph>
<glyph name="question" format="2">
  <advance width="446.21818181818185"/>
  <unicode hex="003F"/>
  <outline>
    <contour>
      <point x="185.4969696969697" y="201.1" type="line"/>
      <point x="222.66060606060606" y="201.1" type="line"/>
      <point x="227.1121212121212" y="320.1787878787879" type="line"/>
      <point x="336.8575757575757" y="370.7212121212121"/>
      <point x="391.66969696969693" y="436.73636363636365"/>
      <point x="391.66969696969693" y="547.6030303030303" type="curve" smooth="yes"/>
      <point x="391.66969696969693" y="657.0393939393939"/>
      <point x="318.3848484848485" y="724.0"/>
      <point x="206.71818181818182" y="724.0" type="curve" smooth="yes"/>
      <point x="89.6939393939394" y="724.0"/>
      <point x="41.80606060606061" y="667.6757575757575"/>
      <point x="41.80606060606061" y="614.0606060606061" type="curve" smooth="yes"/>
      <point x="41.80606060606061" y="578.8636363636364"/>
      <point x="63.74545454545455" y="561.9121212121212"/>
      <point x="95.02424242424243" y="561.9121212121212" type="curve"/>
      <point x="95.02424242424243" y="629.4878787878788"/>
      <point x="121.22727272727272" y="686.1090909090909"/>
      <point x="209.85757575757577" y="686.1090909090909" type="curve" smooth="yes"/>
      <point x="288.6121212121212" y="686.1090909090909"/>
      <point x="326.56969696969696" y="630.8060606060607"/>
      <point x="326.56969696969696" y="553.3424242424243" type="curve" smooth="yes"/>
      <point x="326.56969696969696" y="462.4878787878788"/>
      <point x="287.0939393939394" y="393.1333333333333"/>
      <point x="181.41212121212118" y="344.32727272727277" type="curve"/>
    </contour>
    <contour>
      <point x="203.33939393939394" y="-6.090909090909091" type="curve" smooth="yes"/>
      <point x="228.3242424242424" y="-6.090909090909091"/>
      <point x="249.21818181818182" y="6.872727272727273"/>
      <point x="249.21818181818182" y="47.81515151515151" type="curve" smooth="yes"/>
      <point x="249.21818181818182" y="88.81515151515153"/>
      <point x="228.3242424242424" y="101.14545454545454"/>
      <point x="203.33939393939394" y="101.14545454545454" type="curve" smooth="yes"/>
      <point x="178.83030303030304" y="101.14545454545454"/>
      <point x="158.56060606060606" y="88.81515151515153"/>
      <point x="158.56060606060606" y="47.81515151515151" type="curve" smooth="yes"/>
      <point x="158.56060606060606" y="6.872727272727273"/>
      <point x="178.83030303030304" y="-6.090909090909091"/>
    </contour>
  </outline>
</glyph>
<glyph name="bracketleft" format="2">
  <advance width="306.4575757575758"/>
  <unicode hex="005B"/>
  <outline>
    <contour>
      <point x="91.63333333333333" y="-128.0" type="line"/>
      <point x="272.39090909090913" y="-128.0" type="line"/>
      <point x="272.39090909090913" y="-96.19999999999999" type="line"/>
      <point x="222.7969696969697" y="-96.19999999999999" type="line" smooth="yes"/>
      <point x="177.52424242424243" y="-96.19999999999999"/>
      <point x="156.01515151515153" y="-86.29090909090908"/>
      <point x="156.01515151515153" y="-16.927272727272726" type="curve" smooth="yes"/>
      <point x="156.01515151515153" y="648.9272727272728" type="line" smooth="yes"/>
      <point x="156.01515151515153" y="718.2909090909092"/>
      <point x="177.52424242424243" y="728.2"/>
      <point x="222.7969696969697" y="728.2" type="curve" smooth="yes"/>
      <point x="272.39090909090913" y="728.2" type="line"/>
      <point x="272.39090909090913" y="760.0" type="line"/>
      <point x="91.63333333333333" y="760.0" type="line"/>
    </contour>
  </outline>
</glyph>
<glyph name="backslash" format="2">
  <advance width="264.5"/>
  <unicode hex="005C"/>
  <outline>
    <contour>
      <point x="221.13636363636363" y="-121.0" type="line"/>
      <point x="264.5" y="-121.0" type="line"/>
      <point x="43.01818181818182" y="760.0" type="line"/>
      <point x="0.0" y="760.0" type="line"/>
    </contour>
  </outline>
</glyph>
<glyph name="bracketright" format="2">
  <advance width="306.4575757575758"/>
  <unicode hex="005D"/>
  <outline>
    <contour>
      <point x="33.93333333333334" y="-128.0" type="line"/>
      <point x="214.49090909090907" y="-128.0" type="line"/>
      <point x="214.49090909090907" y="760.0" type="line"/>
      <point x="33.93333333333334" y="760.0" type="line"/>
      <point x="33.93333333333334" y="728.2" type="line"/>
      <point x="83.32727272727271" y="728.2" type="line" smooth="yes"/>
      <point x="128.8" y="728.2"/>
      <point x="150.1090909090909" y="718.2909090909092"/>
      <point x="150.1090909090909" y="648.9272727272728" type="curve" smooth="yes"/>
      <point x="150.1090909090909" y="-16.927272727272726" type="line" smooth="yes"/>
      <point x="150.1090909090909" y="-86.29090909090908"/>
      <point x="128.8" y="-96.19999999999999"/>
      <point x="83.32727272727271" y="-96.19999999999999" type="curve" smooth="yes"/>
      <point x="33.93333333333334" y="-96.19999999999999" type="line"/>
    </contour>
  </outline>
</glyph>
<glyph name="asciicircum" format="2">
  <advance width="509.8666666666667"/>
  <unicode hex="005E"/>
  <outline>
    <contour>
      <point x="46.693939393939395" y="268.7606060606061" type="line"/>
      <point x="95.0969696969697" y="268.7606060606061" type="line"/>
      <point x="253.43333333333334" y="645.9757575757576" type="line"/>
      <point x="413.56969696969696" y="268.7606060606061" type="line"/>
      <point x="462.17272727272723" y="268.7606060606061" type="line"/>
      <point x="268.10606060606057" y="714.0" type="line"/>
      <point x="239.0181818181818" y="714.0" type="line"/>
    </contour>
  </outline>
</glyph>
<glyph name="underscore" format="2">
  <advance width="420.93333333333334"/>
  <unicode hex="005F"/>
  <outline>
    <contour>
      <point x="-4.466666666666667" y="-132.21212121212122" type="line"/>
      <point x="425.56666666666666" y="-132.21212121212122" type="line"/>
      <point x="425.56666666666666" y="-83.0" type="line"/>
      <point x="-4.466666666666667" y="-83.0" type="line"/>
    </contour>
  </outline>
</glyph>
<glyph name="braceleft" format="2">
  <advance width="386.41818181818184"/>
  <unicode hex="007B"/>
  <outline>
    <contour>
      <point x="285.4727272727273" y="-129.8181818181818" type="curve" smooth="yes"/>
      <point x="332.00909090909096" y="-129.8181818181818" type="line"/>
      <point x="332.00909090909096" y="-95.19999999999999" type="line"/>
      <point x="305.3424242424243" y="-95.19999999999999" type="line" smooth="yes"/>
      <point x="251.18484848484846" y="-95.19999999999999"/>
      <point x="228.97575757575757" y="-57.624242424242425"/>
      <point x="228.97575757575757" y="14.603030303030303" type="curve" smooth="yes"/>
      <point x="228.97575757575757" y="190.23939393939395" type="line" smooth="yes"/>
      <point x="228.97575757575757" y="258.6666666666667"/>
      <point x="196.70909090909092" y="304.73030303030305"/>
      <point x="134.50303030303027" y="315.9242424242424" type="curve"/>
      <point x="134.50303030303027" y="317.54545454545456" type="line"/>
      <point x="196.3969696969697" y="328.2393939393939"/>
      <point x="228.97575757575757" y="374.43636363636364"/>
      <point x="228.97575757575757" y="441.90909090909093" type="curve" smooth="yes"/>
      <point x="228.97575757575757" y="614.6363636363636" type="line" smooth="yes"/>
      <point x="228.97575757575757" y="687.9727272727273"/>
      <point x="250.68484848484846" y="725.3818181818182"/>
      <point x="306.7818181818182" y="725.3818181818182" type="curve" smooth="yes"/>
      <point x="332.00909090909096" y="725.3818181818182" type="line"/>
      <point x="332.00909090909096" y="760.0" type="line"/>
      <point x="285.1393939393939" y="760.0" type="line" smooth="yes"/>
      <point x="206.5818181818182" y="760.0"/>
      <point x="164.3939393939394" y="708.9090909090909"/>
      <point x="164.3939393939394" y="618.8181818181819" type="curve" smooth="yes"/>
      <point x="164.3939393939394" y="443.90909090909093" type="line" smooth="yes"/>
      <point x="164.3939393939394" y="359.27272727272725"/>
      <point x="116.46060606060605" y="333.60303030303027"/>
      <point x="54.984848484848484" y="331.60303030303027" type="curve"/>
      <point x="54.984848484848484" y="300.5787878787879" type="line"/>
      <point x="119.46060606060605" y="297.41212121212124"/>
      <point x="164.3939393939394" y="270.24242424242425"/>
      <point x="164.3939393939394" y="187.23939393939395" type="curve" smooth="yes"/>
      <point x="164.3939393939394" y="12.363636363636363" type="line" smooth="yes"/>
      <point x="164.3939393939394" y="-74.76060606060607"/>
      <point x="206.5818181818182" y="-129.8181818181818"/>
    </contour>
  </outline>
</glyph>
<glyph name="bar" format="2">
  <advance width="512.9333333333334"/>
  <unicode hex="007C"/>
  <outline>
    <contour>
      <point x="234.30606060606058" y="-240.0" type="line"/>
      <point x="277.96060606060604" y="-240.0" type="line"/>
      <point x="277.96060606060604" y="760.0" type="line"/>
      <point x="234.30606060606058" y="760.0" type="line"/>
    </contour>
  </outline>
</glyph>
<glyph name="braceright" format="2">
  <advance width="386.41818181818184"/>
  <unicode hex="007D"/>
  <outline>
    <contour>
      <point x="54.984848484848484" y="-129.8181818181818" type="line"/>
      <point x="101.72121212121212" y="-129.8181818181818" type="line" smooth="yes"/>
      <point x="180.61212121212122" y="-129.8181818181818"/>
      <point x="222.60000000000002" y="-74.76060606060607"/>
      <point x="222.60000000000002" y="12.363636363636363" type="curve" smooth="yes"/>
      <point x="222.60000000000002" y="187.23939393939395" type="line" smooth="yes"/>
      <point x="222.60000000000002" y="270.24242424242425"/>
      <point x="267.93333333333334" y="297.41212121212124"/>
      <point x="332.00909090909096" y="300.5787878787879" type="curve"/>
      <point x="332.00909090909096" y="331.60303030303027" type="line"/>
      <point x="270.93333333333334" y="333.60303030303027"/>
      <point x="222.60000000000002" y="359.27272727272725"/>
      <point x="222.60000000000002" y="443.90909090909093" type="curve" smooth="yes"/>
      <point x="222.60000000000002" y="618.8181818181819" type="line" smooth="yes"/>
      <point x="222.60000000000002" y="708.9090909090909"/>
      <point x="180.61212121212122" y="760.0"/>
      <point x="102.05454545454546" y="760.0" type="curve" smooth="yes"/>
      <point x="54.984848484848484" y="760.0" type="line"/>
      <point x="54.984848484848484" y="725.3818181818182" type="line"/>
      <point x="80.4121212121212" y="725.3818181818182" type="line" smooth="yes"/>
      <point x="136.7090909090909" y="725.3818181818182"/>
      <point x="158.0181818181818" y="687.9727272727273"/>
      <point x="158.0181818181818" y="614.6363636363636" type="curve" smooth="yes"/>
      <point x="158.0181818181818" y="441.90909090909093" type="line" smooth="yes"/>
      <point x="158.0181818181818" y="374.43636363636364"/>
      <point x="190.7969696969697" y="328.2393939393939"/>
      <point x="252.89090909090905" y="317.54545454545456" type="curve"/>
      <point x="252.89090909090905" y="315.9242424242424" type="line"/>
      <point x="190.0848484848485" y="304.73030303030305"/>
      <point x="158.0181818181818" y="258.6666666666667"/>
      <point x="158.0181818181818" y="190.23939393939395" type="curve" smooth="yes"/>
      <point x="158.0181818181818" y="14.603030303030303" type="line" smooth="yes"/>
      <point x="158.0181818181818" y="-57.624242424242425"/>
      <point x="136.2090909090909" y="-95.19999999999999"/>
      <point x="81.85151515151514" y="-95.19999999999999" type="curve" smooth="yes"/>
      <point x="54.984848484848484" y="-95.19999999999999" type="line"/>
    </contour>
  </outline>
</glyph>
<glyph name="asciitilde" format="2">
  <advance width="509.8666666666667"/>
  <unicode hex="007E"/>
  <outline>
    <contour>
      <point x="50.912121212121214" y="272.8363636363636" type="curve"/>
      <point x="95.19696969696969" y="272.8363636363636" type="line"/>
      <point x="105.57575757575758" y="353.5727272727272"/>
      <point x="119.45757575757575" y="396.4212121212121"/>
      <point x="159.73636363636362" y="396.4212121212121" type="curve" smooth="yes"/>
      <point x="191.6757575757576" y="396.4212121212121"/>
      <point x="213.76969696969695" y="370.3727272727273"/>
      <point x="243.88484848484848" y="336.7818181818182" type="curve" smooth="yes"/>
      <point x="281.06666666666666" y="295.0363636363636"/>
      <point x="311.6787878787879" y="273.0030303030303"/>
      <point x="351.2181818181818" y="273.0030303030303" type="curve" smooth="yes"/>
      <point x="432.3757575757576" y="273.0030303030303"/>
      <point x="450.45757575757574" y="372.9606060606061"/>
      <point x="458.9212121212121" y="440.1969696969697" type="curve"/>
      <point x="413.80303030303025" y="440.1969696969697" type="line"/>
      <point x="403.2212121212121" y="366.6"/>
      <point x="390.9272727272728" y="316.94545454545454"/>
      <point x="350.9636363636364" y="316.94545454545454" type="curve" smooth="yes"/>
      <point x="323.8909090909091" y="316.94545454545454"/>
      <point x="300.8515151515151" y="339.4636363636364"/>
      <point x="270.2121212121212" y="373.0" type="curve" smooth="yes"/>
      <point x="231.4878787878788" y="414.130303030303"/>
      <point x="202.52121212121213" y="440.3636363636364"/>
      <point x="159.13636363636363" y="440.3636363636364" type="curve" smooth="yes"/>
      <point x="75.96969696969697" y="440.3636363636364"/>
      <point x="60.18181818181819" y="345.82727272727277"/>
    </contour>
  </outline>
</glyph>
<glyph name="twosuperior" format="2">
  <advance width="367.0333333333333"/>
  <unicode hex="00B2"/>
  <outline>
    <contour>
      <point x="40.58181818181818" y="386.8333333333333" type="line"/>
      <point x="307.98181818181814" y="386.8333333333333" type="line"/>
      <point x="310.4484848484849" y="496.95454545454544" type="line"/>
      <point x="285.5" y="496.95454545454544" type="line"/>
      <point x="282.8636363636364" y="474.27272727272725" type="line"/>
      <point x="280.22727272727275" y="445.25454545454545"/>
      <point x="274.05454545454546" y="431.77272727272725"/>
      <point x="240.8939393939394" y="431.77272727272725" type="curve"/>
      <point x="98.02121212121212" y="431.77272727272725" type="line"/>
      <point x="204.94848484848484" y="545.0666666666667" type="line"/>
      <point x="266.8666666666667" y="606.1363636363636"/>
      <point x="298.5151515151515" y="647.4303030303031"/>
      <point x="298.5151515151515" y="714.2363636363635" type="curve" smooth="yes"/>
      <point x="298.5151515151515" y="783.4545454545455"/>
      <point x="252.53333333333333" y="824.4666666666667"/>
      <point x="172.6" y="824.4666666666667" type="curve" smooth="yes"/>
      <point x="91.27575757575758" y="824.4666666666667"/>
      <point x="51.593939393939394" y="781.730303030303"/>
      <point x="51.593939393939394" y="741.630303030303" type="curve" smooth="yes"/>
      <point x="51.593939393939394" y="715.4575757575758"/>
      <point x="69.07878787878788" y="705.6696969696969"/>
      <point x="97.73333333333333" y="705.6696969696969" type="curve"/>
      <point x="97.73333333333333" y="753.2121212121211"/>
      <point x="116.83939393939396" y="792.4848484848486"/>
      <point x="170.8242424242424" y="792.4848484848486" type="curve" smooth="yes"/>
      <point x="222.4242424242424" y="792.4848484848486"/>
      <point x="241.09696969696972" y="757.6848484848485"/>
      <point x="241.09696969696972" y="710.730303030303" type="curve" smooth="yes"/>
      <point x="241.09696969696972" y="649.4787878787879"/>
      <point x="214.9181818181818" y="604.3606060606061"/>
      <point x="164.03636363636363" y="550.1878787878788" type="curve" smooth="yes"/>
      <point x="40.58181818181818" y="417.08787878787876" type="line"/>
    </contour>
  </outline>
</glyph>
<glyph name="threesuperior" format="2">
  <advance width="367.0333333333333"/>
  <unicode hex="00B3"/>
  <outline>
    <contour>
      <point x="163.32727272727274" y="379.6666666666667" type="curve" smooth="yes"/>
      <point x="245.49090909090907" y="379.6666666666667"/>
      <point x="315.07575757575756" y="421.2454545454546"/>
      <point x="315.07575757575756" y="508.6575757575757" type="curve" smooth="yes"/>
      <point x="315.07575757575756" y="578.5818181818181"/>
      <point x="264.6" y="603.0333333333333"/>
      <point x="212.73333333333335" y="611.9545454545455" type="curve"/>
      <point x="212.73333333333335" y="615.3121212121212" type="line"/>
      <point x="259.2545454545454" y="630.1121212121211"/>
      <point x="299.54242424242426" y="662.8090909090909"/>
      <point x="299.54242424242426" y="722.2515151515152" type="curve" smooth="yes"/>
      <point x="299.54242424242426" y="783.3121212121212"/>
      <point x="254.34242424242424" y="823.3"/>
      <point x="170.3909090909091" y="823.3" type="curve" smooth="yes"/>
      <point x="92.97272727272727" y="823.3"/>
      <point x="45.06969696969697" y="782.4787878787878"/>
      <point x="45.06969696969697" y="737.0090909090909" type="curve" smooth="yes"/>
      <point x="45.06969696969697" y="707.630303030303"/>
      <point x="63.709090909090904" y="698.0757575757575"/>
      <point x="89.81515151515151" y="698.0757575757575" type="curve"/>
      <point x="89.81515151515151" y="751.5484848484848"/>
      <point x="113.63636363636363" y="791.3181818181819"/>
      <point x="168.74848484848488" y="791.3181818181819" type="curve" smooth="yes"/>
      <point x="218.5848484848485" y="791.3181818181819"/>
      <point x="241.5787878787879" y="766.2454545454545"/>
      <point x="241.5787878787879" y="717.0212121212122" type="curve" smooth="yes"/>
      <point x="241.5787878787879" y="662.3363636363637"/>
      <point x="205.76666666666668" y="626.9484848484848"/>
      <point x="147.3969696969697" y="626.9484848484848" type="curve" smooth="yes"/>
      <point x="114.46969696969697" y="626.9484848484848" type="line"/>
      <point x="114.46969696969697" y="594.2212121212121" type="line"/>
      <point x="144.6030303030303" y="594.2212121212121" type="line" smooth="yes"/>
      <point x="221.53333333333333" y="594.2212121212121"/>
      <point x="256.71212121212125" y="563.9757575757576"/>
      <point x="256.71212121212125" y="509.0363636363636" type="curve" smooth="yes"/>
      <point x="256.71212121212125" y="442.7212121212121"/>
      <point x="218.7818181818182" y="414.1757575757576"/>
      <point x="162.4" y="414.1757575757576" type="curve" smooth="yes"/>
      <point x="97.4121212121212" y="414.1757575757576"/>
      <point x="73.78181818181818" y="454.7969696969697"/>
      <point x="73.78181818181818" y="507.0363636363636" type="curve"/>
      <point x="52.512121212121215" y="507.0363636363636"/>
      <point x="38.46969696969697" y="492.49393939393946"/>
      <point x="38.46969696969697" y="464.6666666666667" type="curve" smooth="yes"/>
      <point x="38.46969696969697" y="417.25757575757575"/>
      <point x="81.87878787878788" y="379.6666666666667"/>
    </contour>
  </outline>
</glyph>
<glyph name="multiply" format="2">
  <advance width="509.8666666666667"/>
  <unicode hex="00D7"/>
  <outline>
    <contour>
      <point x="93.45151515151515" y="148.1848484848485" type="line"/>
      <point x="256.2" y="325.6454545454545" type="line"/>
      <point x="418.9484848484849" y="148.1848484848485" type="line"/>
      <point x="451.6484848484848" y="178.16363636363639" type="line"/>
      <point x="286.66666666666663" y="358.54545454545456" type="line"/>
      <point x="451.6484848484848" y="539.3484848484849" type="line"/>
      <point x="419.40303030303033" y="569.7939393939394" type="line"/>
      <point x="256.2" y="391.81212121212127" type="line"/>
      <point x="93.48484848484847" y="569.3606060606061" type="line"/>
      <point x="61.03939393939393" y="539.2606060606062" type="line"/>
      <point x="226.22121212121212" y="358.8909090909091" type="line"/>
      <point x="61.327272727272735" y="178.5969696969697" type="line"/>
    </contour>
  </outline>
</glyph>
<glyph name="divide" format="2">
  <advance width="509.8666666666667"/>
  <unicode hex="00F7"/>
  <outline>
    <contour>
      <point x="58.1" y="335.1848484848485" type="line"/>
      <point x="451.76666666666665" y="335.1848484848485" type="line"/>
      <point x="451.76666666666665" y="379.6939393939394" type="line"/>
      <point x="58.1" y="379.6939393939394" type="line"/>
    </contour>
    <contour>
      <point x="255.43333333333334" y="125.29090909090908" type="curve" smooth="yes"/>
      <point x="279.07272727272726" y="125.29090909090908"/>
      <point x="298.28787878787875" y="137.42727272727274"/>
      <point x="298.28787878787875" y="173.1818181818182" type="curve" smooth="yes"/>
      <point x="298.28787878787875" y="210.39090909090908"/>
      <point x="279.07272727272726" y="221.6939393939394"/>
      <point x="255.43333333333334" y="221.6939393939394" type="curve" smooth="yes"/>
      <point x="230.79393939393938" y="221.6939393939394"/>
      <point x="212.54545454545453" y="210.39090909090908"/>
      <point x="212.54545454545453" y="173.1818181818182" type="curve" smooth="yes"/>
      <point x="212.54545454545453" y="137.42727272727274"/>
      <point x="230.79393939393938" y="125.29090909090908"/>
    </contour>
    <contour>
      <point x="255.43333333333334" y="493.97272727272724" type="curve" smooth="yes"/>
      <point x="279.07272727272726" y="493.97272727272724"/>
      <point x="298.28787878787875" y="506.1090909090909"/>
      <point x="298.28787878787875" y="542.1515151515152" type="curve" smooth="yes"/>
      <point x="298.28787878787875" y="579.0727272727272"/>
      <point x="279.07272727272726" y="590.3757575757576"/>
      <point x="255.43333333333334" y="590.3757575757576" type="curve" smooth="yes"/>
      <point x="230.79393939393938" y="590.3757575757576"/>
      <point x="212.54545454545453" y="579.0727272727272"/>
      <point x="212.54545454545453" y="542.1515151515152" type="curve" smooth="yes"/>
      <point x="212.54545454545453" y="506.1090909090909"/>
      <point x="230.79393939393938" y="493.97272727272724"/>
    </contour>
  </outline>
</glyph>
<glyph name="udatta-deva" format="2">
  <unicode hex="0951"/>
  <anchor x="0.0" y="548.5454545454545" name="_vedic"/>
  <outline>
    <contour>
      <point x="-20.236363636363635" y="909.8939393939395" type="line"/>
      <point x="20.236363636363635" y="909.8939393939395" type="line"/>
      <point x="20.236363636363635" y="1099.8939393939393" type="line"/>
      <point x="-20.236363636363635" y="1099.8939393939393" type="line"/>
    </contour>
  </outline>
</glyph>
<glyph name="danda-deva" format="2">
  <advance width="278.1848484848485"/>
  <unicode hex="0964"/>
  <outline>
    <contour>
      <point x="107.0090909090909" y="0.0" type="line"/>
      <point x="171.00909090909093" y="0.0" type="line"/>
      <point x="171.00909090909093" y="548.5454545454545" type="line"/>
      <point x="107.0090909090909" y="548.5454545454545" type="line"/>
    </contour>
  </outline>
</glyph>
<glyph name="dbldanda-deva" format="2">
  <advance width="498.06969696969696"/>
  <unicode hex="0965"/>
  <outline>
    <contour>
      <point x="327.06060606060606" y="0.0" type="line"/>
      <point x="390.89393939393943" y="0.0" type="line"/>
      <point x="390.89393939393943" y="548.5454545454545" type="line"/>
      <point x="327.06060606060606" y="548.5454545454545" type="line"/>
    </contour>
    <contour>
      <point x="107.0090909090909" y="0.0" type="line"/>
      <point x="171.00909090909093" y="0.0" type="line"/>
      <point x="171.00909090909093" y="548.5454545454545" type="line"/>
      <point x="107.0090909090909" y="548.5454545454545" type="line"/>
    </contour>
  </outline>
</glyph>
<glyph name="anusvara-tamil" format="2">
  <unicode hex="0B82"/>
  <note>
uni0B82
</note>
  <anchor x="0.0" y="548.5454545454545" name="_top"/>
  <outline>
    <contour>
      <point x="0.0" y="640.7272727272727" type="curve" smooth="yes"/>
      <point x="60.969696969696976" y="640.7272727272727"/>
      <point x="104.44848484848485" y="683.7333333333333"/>
      <point x="104.44848484848485" y="743.9939393939394" type="curve" smooth="yes"/>
      <point x="104.44848484848485" y="804.1121212121212"/>
      <point x="60.969696969696976" y="847.4848484848485"/>
      <point x="0.0" y="847.4848484848485" type="curve" smooth="yes"/>
      <point x="-60.969696969696976" y="847.4848484848485"/>
      <point x="-104.44848484848485" y="804.1121212121212"/>
      <point x="-104.44848484848485" y="743.9939393939394" type="curve" smooth="yes"/>
      <point x="-104.44848484848485" y="683.7333333333333"/>
      <point x="-60.969696969696976" y="640.7272727272727"/>
    </contour>
    <contour>
      <point x="0.0" y="681.2575757575758" type="curve" smooth="yes"/>
      <point x="-35.98484848484849" y="681.2575757575758"/>
      <point x="-60.5060606060606" y="707.4636363636363"/>
      <point x="-60.5060606060606" y="743.9939393939394" type="curve" smooth="yes"/>
      <point x="-60.5060606060606" y="780.5818181818181"/>
      <point x="-35.98484848484849" y="806.9545454545455"/>
      <point x="0.0" y="806.9545454545455" type="curve" smooth="yes"/>
      <point x="35.98484848484849" y="806.9545454545455"/>
      <point x="60.5060606060606" y="780.5818181818181"/>
      <point x="60.5060606060606" y="743.9939393939394" type="curve" smooth="yes"/>
      <point x="60.5060606060606" y="707.4636363636363"/>
      <point x="35.98484848484849" y="681.2575757575758"/>
    </contour>
  </outline>
</glyph>
<glyph name="visarga-tamil" format="2">
  <advance width="803.7393939393938"/>
  <unicode hex="0B83"/>
  <note>
uni0B83
</note>
  <outline>
    <contour>
      <point x="596.2969696969697" y="0.0" type="curve" smooth="yes"/>
      <point x="682.3121212121213" y="0.0"/>
      <point x="743.7060606060605" y="75.9090909090909"/>
      <point x="743.7060606060605" y="183.1818181818182" type="curve" smooth="yes"/>
      <point x="743.7060606060605" y="289.0"/>
      <point x="685.3606060606061" y="365.8181818181818"/>
      <point x="597.5272727272727" y="365.8181818181818" type="curve" smooth="yes"/>
      <point x="505.48484848484856" y="365.8181818181818"/>
      <point x="451.8181818181818" y="286.27272727272725"/>
      <point x="451.8181818181818" y="183.1818181818182" type="curve" smooth="yes"/>
      <point x="451.8181818181818" y="77.72727272727273"/>
      <point x="505.2848484848485" y="0.0"/>
    </contour>
    <contour>
      <point x="204.14545454545453" y="0.0" type="curve" smooth="yes"/>
      <point x="290.32727272727277" y="0.0"/>
      <point x="351.5545454545454" y="75.9090909090909"/>
      <point x="351.5545454545454" y="183.1818181818182" type="curve" smooth="yes"/>
      <point x="351.5545454545454" y="289.0"/>
      <point x="293.20909090909095" y="365.8181818181818"/>
      <point x="205.54242424242426" y="365.8181818181818" type="curve" smooth="yes"/>
      <point x="113.53333333333335" y="365.8181818181818"/>
      <point x="60.09090909090909" y="286.27272727272725"/>
      <point x="60.09090909090909" y="183.1818181818182" type="curve" smooth="yes"/>
      <point x="60.09090909090909" y="77.72727272727273"/>
      <point x="113.33333333333333" y="0.0"/>
    </contour>
    <contour>
      <point x="401.6515151515152" y="408.3636363636364" type="curve" smooth="yes"/>
      <point x="487.83333333333337" y="408.3636363636364"/>
      <point x="549.0606060606061" y="483.27272727272725"/>
      <point x="549.0606060606061" y="591.0" type="curve" smooth="yes"/>
      <point x="549.0606060606061" y="697.3636363636364"/>
      <point x="490.7151515151515" y="773.6363636363636"/>
      <point x="402.88181818181823" y="773.6363636363636" type="curve" smooth="yes"/>
      <point x="311.03939393939396" y="773.6363636363636"/>
      <point x="257.3727272727272" y="694.6363636363636"/>
      <point x="257.3727272727272" y="591.0" type="curve" smooth="yes"/>
      <point x="257.3727272727272" y="485.54545454545456"/>
      <point x="310.8393939393939" y="408.3636363636364"/>
    </contour>
    <contour>
      <point x="196.0" y="39.34545454545455" type="curve" smooth="yes"/>
      <point x="132.66969696969696" y="39.34545454545455"/>
      <point x="98.01212121212122" y="99.87272727272726"/>
      <point x="98.01212121212122" y="183.1818181818182" type="curve" smooth="yes"/>
      <point x="98.01212121212122" y="264.83636363636367"/>
      <point x="133.41212121212118" y="326.72727272727275"/>
      <point x="197.19696969696972" y="326.72727272727275" type="curve" smooth="yes"/>
      <point x="264.05151515151516" y="326.72727272727275"/>
      <point x="299.42727272727274" y="270.2181818181818"/>
      <point x="299.42727272727274" y="183.1818181818182" type="curve" smooth="yes"/>
      <point x="299.42727272727274" y="93.43636363636364"/>
      <point x="261.369696969697" y="39.34545454545455"/>
    </contour>
    <contour>
      <point x="393.5060606060606" y="447.3636363636364" type="curve" smooth="yes"/>
      <point x="330.4636363636364" y="447.3636363636364"/>
      <point x="295.51818181818186" y="507.890909090909"/>
      <point x="295.51818181818186" y="591.0" type="curve" smooth="yes"/>
      <point x="295.51818181818186" y="672.8545454545455"/>
      <point x="330.91818181818184" y="734.7454545454544"/>
      <point x="394.9909090909091" y="734.7454545454544" type="curve" smooth="yes"/>
      <point x="461.55757575757576" y="734.7454545454544"/>
      <point x="496.5878787878788" y="678.3818181818181"/>
      <point x="496.5878787878788" y="591.0" type="curve" smooth="yes"/>
      <point x="496.5878787878788" y="501.79999999999995"/>
      <point x="458.87575757575763" y="447.3636363636364"/>
    </contour>
    <contour>
      <point x="588.1515151515152" y="39.34545454545455" type="curve" smooth="yes"/>
      <point x="525.1090909090909" y="39.34545454545455"/>
      <point x="489.9636363636364" y="99.87272727272726"/>
      <point x="489.9636363636364" y="183.1818181818182" type="curve" smooth="yes"/>
      <point x="489.9636363636364" y="264.83636363636367"/>
      <point x="525.5636363636364" y="326.72727272727275"/>
      <point x="589.6363636363636" y="326.72727272727275" type="curve" smooth="yes"/>
      <point x="656.2030303030303" y="326.72727272727275"/>
      <point x="691.5787878787879" y="270.2181818181818"/>
      <point x="691.5787878787879" y="183.1818181818182" type="curve" smooth="yes"/>
      <point x="691.5787878787879" y="93.43636363636364"/>
      <point x="653.5212121212122" y="39.34545454545455"/>
    </contour>
  </outline>
</glyph>
<glyph name="a-tamil" format="2">
  <advance width="1179.6939393939394"/>
  <unicode hex="0B85"/>
  <note>
uni0B85
</note>
  <anchor x="570.5272727272727" y="0.0" name="bottom"/>
  <anchor x="407.7818181818182" y="-106.3939393939394" name="nukta"/>
  <anchor x="578.3121212121213" y="548.5454545454545" name="top"/>
  <anchor x="578.8787878787878" y="548.5454545454545" name="vedic"/>
  <outline>
    <contour>
      <point x="1014.7575757575756" y="-175.71212121212122" type="line"/>
      <point x="1078.7575757575758" y="-175.71212121212122" type="line"/>
      <point x="1078.7575757575758" y="548.5454545454545" type="line"/>
      <point x="1014.7575757575756" y="548.5454545454545" type="line"/>
      <point x="1014.7575757575756" y="166.37878787878788" type="line"/>
      <point x="109.88484848484848" y="166.37878787878788" type="line" smooth="yes"/>
      <point x="63.56666666666667" y="166.37878787878788"/>
      <point x="40.62121212121212" y="142.1818181818182"/>
      <point x="40.62121212121212" y="101.65151515151514" type="curve" smooth="yes"/>
      <point x="40.62121212121212" y="14.757575757575756"/>
      <point x="180.93636363636364" y="-106.3939393939394"/>
      <point x="407.7818181818182" y="-106.3939393939394" type="curve" smooth="yes"/>
      <point x="656.869696969697" y="-106.3939393939394"/>
      <point x="855.4575757575758" y="13.772727272727273"/>
      <point x="855.4575757575758" y="256.8787878787879" type="curve" smooth="yes"/>
      <point x="855.4575757575758" y="446.9848484848485"/>
      <point x="732.2363636363636" y="555.3636363636364"/>
      <point x="574.5454545454545" y="555.3636363636364" type="curve" smooth="yes"/>
      <point x="452.8575757575757" y="555.3636363636364"/>
      <point x="373.0030303030303" y="483.3484848484849"/>
      <point x="373.0030303030303" y="389.09090909090907" type="curve" smooth="yes"/>
      <point x="373.0030303030303" y="311.5"/>
      <point x="424.83636363636367" y="255.63636363636363"/>
      <point x="503.2515151515152" y="255.63636363636363" type="curve" smooth="yes"/>
      <point x="578.4303030303031" y="255.63636363636363"/>
      <point x="633.030303030303" y="303.8030303030303"/>
      <point x="633.030303030303" y="383.3636363636364" type="curve" smooth="yes"/>
      <point x="633.030303030303" y="453.8181818181818"/>
      <point x="581.169696969697" y="510.27272727272725"/>
      <point x="528.8818181818182" y="526.4393939393939" type="curve"/>
      <point x="488.7909090909091" y="522.3636363636364" type="line"/>
      <point x="543.0212121212122" y="496.8181818181818"/>
      <point x="574.0666666666667" y="442.6363636363636"/>
      <point x="574.0666666666667" y="388.27272727272725" type="curve" smooth="yes"/>
      <point x="574.0666666666667" y="334.3484848484849"/>
      <point x="545.4151515151515" y="296.45454545454544"/>
      <point x="492.5424242424242" y="296.45454545454544" type="curve" smooth="yes"/>
      <point x="447.04545454545456" y="296.45454545454544"/>
      <point x="415.3454545454545" y="329.03030303030306"/>
      <point x="415.3454545454545" y="386.54545454545456" type="curve" smooth="yes"/>
      <point x="415.3454545454545" y="460.78787878787875"/>
      <point x="474.31212121212116" y="515.0"/>
      <point x="566.3818181818182" y="515.0" type="curve" smooth="yes"/>
      <point x="687.5060606060606" y="515.0"/>
      <point x="791.0242424242424" y="422.6969696969697"/>
      <point x="791.0242424242424" y="257.3333333333333" type="curve" smooth="yes"/>
      <point x="791.0242424242424" y="42.984848484848484"/>
      <point x="618.3424242424243" y="-65.12121212121212"/>
      <point x="404.4" y="-65.12121212121212" type="curve" smooth="yes"/>
      <point x="215.46666666666667" y="-65.12121212121212"/>
      <point x="83.98787878787878" y="32.77272727272727"/>
      <point x="83.98787878787878" y="99.72727272727272" type="curve" smooth="yes"/>
      <point x="83.98787878787878" y="114.81818181818181"/>
      <point x="92.39393939393939" y="126.46969696969697"/>
      <point x="115.71818181818182" y="126.46969696969697" type="curve" smooth="yes"/>
      <point x="1014.7575757575756" y="126.46969696969697" type="line"/>
    </contour>
  </outline>
</glyph>
<glyph name="aa-tamil" format="2">
  <advance width="1302.2454545454545"/>
  <unicode hex="0B86"/>
  <note>
uni0B86
</note>
  <anchor x="635.7272727272727" y="0.0" name="bottom"/>
  <anchor x="407.7818181818182" y="-106.3939393939394" name="nukta"/>
  <anchor x="643.5696969696969" y="548.5454545454545" name="top"/>
  <anchor x="643.7121212121211" y="548.5454545454545" name="vedic"/>
  <outline>
    <contour>
      <point x="918.0818181818182" y="-417.669696969697" type="curve" smooth="yes"/>
      <point x="1089.6757575757576" y="-417.669696969697"/>
      <point x="1274.669696969697" y="-301.6515151515151"/>
      <point x="1274.669696969697" y="-109.2181818181818" type="curve" smooth="yes"/>
      <point x="1274.669696969697" y="-24.215151515151515"/>
      <point x="1235.6454545454544" y="25.0"/>
      <point x="1170.5181818181818" y="25.0" type="curve" smooth="yes"/>
      <point x="1099.4666666666667" y="25.0"/>
      <point x="1059.4272727272728" y="-30.606060606060606"/>
      <point x="1052.8272727272727" y="-112.2878787878788" type="curve"/>
      <point x="1073.5060606060606" y="-122.57878787878788" type="line"/>
      <point x="1074.5030303030303" y="-64.44242424242424"/>
      <point x="1107.8848484848484" y="-30.454545454545453"/>
      <point x="1147.8181818181818" y="-30.454545454545453" type="curve" smooth="yes"/>
      <point x="1188.1666666666665" y="-30.454545454545453"/>
      <point x="1212.1606060606061" y="-58.10303030303031"/>
      <point x="1212.1606060606061" y="-114.72424242424242" type="curve" smooth="yes"/>
      <point x="1211.960606060606" y="-277.53939393939396"/>
      <point x="1048.2060606060606" y="-375.7757575757576"/>
      <point x="910.4212121212121" y="-375.7757575757576" type="curve" smooth="yes"/>
      <point x="828.7060606060605" y="-375.7757575757576"/>
      <point x="754.3181818181819" y="-347.46060606060604"/>
      <point x="754.3181818181819" y="-275.8878787878788" type="curve" smooth="yes"/>
      <point x="754.3181818181819" y="-229.9090909090909"/>
      <point x="783.8636363636364" y="-196.4"/>
      <point x="844.3484848484848" y="-183.05151515151513" type="curve"/>
      <point x="833.4969696969698" y="-142.65757575757576" type="line"/>
      <point x="751.4060606060606" y="-161.8878787878788"/>
      <point x="710.8454545454546" y="-209.38181818181818"/>
      <point x="710.8454545454546" y="-272.41818181818184" type="curve" smooth="yes"/>
      <point x="710.8454545454546" y="-369.19393939393944"/>
      <point x="801.9878787878788" y="-417.669696969697"/>
    </contour>
    <component base="a-tamil"/>
  </outline>
</glyph>
<glyph name="i-tamil" format="2">
  <advance width="905.8606060606061"/>
  <unicode hex="0B87"/>
  <note>
uni0B87
</note>
  <anchor x="441.7151515151515" y="0.0" name="bottom"/>
  <anchor x="439.7151515151515" y="-255.42121212121216" name="nukta"/>
  <anchor x="448.2969696969697" y="805.8818181818182" name="top"/>
  <anchor x="447.7151515151515" y="548.5454545454545" name="vedic"/>
  <outline>
    <contour>
      <point x="212.66363636363639" y="-288.3636363636364" type="curve" smooth="yes"/>
      <point x="470.6393939393939" y="-288.3636363636364"/>
      <point x="680.2606060606062" y="-18.81818181818182"/>
      <point x="680.2606060606062" y="251.72727272727272" type="curve" smooth="yes"/>
      <point x="680.2606060606062" y="439.54545454545456"/>
      <point x="588.8484848484849" y="555.3636363636364"/>
      <point x="436.58181818181816" y="555.3636363636364" type="curve" smooth="yes"/>
      <point x="324.07272727272726" y="555.3636363636364"/>
      <point x="244.45454545454544" y="486.8181818181818"/>
      <point x="244.45454545454544" y="387.45454545454544" type="curve" smooth="yes"/>
      <point x="244.45454545454544" y="307.5151515151515"/>
      <point x="298.47272727272724" y="256.1818181818182"/>
      <point x="368.99090909090904" y="256.1818181818182" type="curve" smooth="yes"/>
      <point x="445.1393939393939" y="256.1818181818182"/>
      <point x="494.3424242424242" y="305.22727272727275"/>
      <point x="494.3424242424242" y="381.72727272727275" type="curve" smooth="yes"/>
      <point x="494.3424242424242" y="445.09090909090907"/>
      <point x="455.3424242424243" y="502.6363636363636"/>
      <point x="388.33030303030307" y="525.1818181818181" type="curve"/>
      <point x="346.55757575757576" y="520.1818181818181" type="line"/>
      <point x="402.7575757575757" y="495.1818181818182"/>
      <point x="436.2121212121212" y="443.1818181818182"/>
      <point x="436.2121212121212" y="387.1818181818182" type="curve" smooth="yes"/>
      <point x="436.2121212121212" y="334.6363636363636"/>
      <point x="411.25454545454545" y="296.59999999999997"/>
      <point x="359.3393939393939" y="296.59999999999997" type="curve" smooth="yes"/>
      <point x="313.51212121212126" y="296.59999999999997"/>
      <point x="286.7969696969697" y="332.6363636363636"/>
      <point x="286.7969696969697" y="385.45454545454544" type="curve" smooth="yes"/>
      <point x="286.7969696969697" y="460.90909090909093"/>
      <point x="341.4909090909091" y="515.0"/>
      <point x="426.6454545454546" y="515.0" type="curve" smooth="yes"/>
      <point x="550.8848484848486" y="515.0"/>
      <point x="616.1151515151514" y="416.1818181818182"/>
      <point x="616.1151515151514" y="264.72727272727275" type="curve" smooth="yes"/>
      <point x="616.1151515151514" y="10.909090909090908"/>
      <point x="457.3" y="-247.0909090909091"/>
      <point x="222.1757575757576" y="-247.0909090909091" type="curve" smooth="yes"/>
      <point x="145.95454545454547" y="-247.0909090909091"/>
      <point x="100.05757575757576" y="-213.19696969696972"/>
      <point x="100.05757575757576" y="-146.33939393939394" type="curve" smooth="yes"/>
      <point x="100.05757575757576" y="-16.403030303030302"/>
      <point x="273.03333333333336" y="67.45454545454545"/>
      <point x="432.67272727272723" y="67.45454545454545" type="curve" smooth="yes"/>
      <point x="589.9787878787879" y="67.45454545454545"/>
      <point x="772.5333333333334" y="-9.603030303030305"/>
      <point x="772.5333333333334" y="-141.63030303030303" type="curve" smooth="yes"/>
      <point x="772.5333333333334" y="-216.54242424242423"/>
      <point x="716.7787878787879" y="-247.0909090909091"/>
      <point x="639.1272727272728" y="-247.0909090909091" type="curve" smooth="yes"/>
      <point x="419.55151515151516" y="-247.0909090909091"/>
      <point x="118.82727272727274" y="75.6"/>
      <point x="118.82727272727274" y="384.6545454545455" type="curve" smooth="yes"/>
      <point x="118.82727272727274" y="621.0787878787878"/>
      <point x="250.14848484848486" y="742.9"/>
      <point x="447.52121212121216" y="742.9" type="curve" smooth="yes"/>
      <point x="677.8242424242425" y="742.9"/>
      <point x="800.1484848484848" y="583.0363636363636"/>
      <point x="800.1484848484848" y="336.56969696969696" type="curve" smooth="yes"/>
      <point x="800.1484848484848" y="96.0" type="line"/>
      <point x="842.7151515151514" y="96.0" type="line"/>
      <point x="842.7151515151514" y="336.56969696969696" type="line" smooth="yes"/>
      <point x="842.7151515151514" y="642.4"/>
      <point x="702.1333333333333" y="805.8818181818182"/>
      <point x="448.2969696969697" y="805.8818181818182" type="curve" smooth="yes"/>
      <point x="212.87575757575758" y="805.8818181818182"/>
      <point x="69.91818181818181" y="638.9151515151515"/>
      <point x="69.91818181818181" y="405.4727272727273" type="curve" smooth="yes"/>
      <point x="69.91818181818181" y="64.47272727272727"/>
      <point x="390.3333333333333" y="-288.3636363636364"/>
      <point x="656.930303030303" y="-288.3636363636364" type="curve" smooth="yes"/>
      <point x="749.7878787878789" y="-288.3636363636364"/>
      <point x="821.8515151515152" y="-244.17878787878786"/>
      <point x="821.8515151515152" y="-150.34242424242424" type="curve" smooth="yes"/>
      <point x="821.8515151515152" y="13.06969696969697"/>
      <point x="619.4060606060606" y="107.72727272727273"/>
      <point x="432.67272727272723" y="107.72727272727273" type="curve" smooth="yes"/>
      <point x="242.30909090909094" y="107.72727272727273"/>
      <point x="51.63030303030303" y="11.44848484848485"/>
      <point x="51.63030303030303" y="-146.70606060606062" type="curve" smooth="yes"/>
      <point x="51.63030303030303" y="-237.8151515151515"/>
      <point x="117.18787878787879" y="-288.3636363636364"/>
    </contour>
  </outline>
</glyph>
<glyph name="ii-tamil" format="2">
  <advance width="692.8969696969697"/>
  <unicode hex="0B88"/>
  <note>
uni0B88
</note>
  <anchor x="365.6242424242424" y="0.0" name="bottom"/>
  <anchor x="366.1121212121212" y="0.0" name="nukta"/>
  <anchor x="368.24545454545455" y="548.5454545454545" name="top"/>
  <anchor x="368.2787878787879" y="548.5454545454545" name="vedic"/>
  <outline>
    <contour>
      <point x="101.24848484848485" y="0.0" type="line"/>
      <point x="145.13939393939395" y="0.0" type="line"/>
      <point x="145.13939393939395" y="508.6363636363636" type="line"/>
      <point x="403.890909090909" y="508.6363636363636" type="line"/>
      <point x="403.890909090909" y="0.0" type="line"/>
      <point x="468.0575757575757" y="0.0" type="line"/>
      <point x="468.0575757575757" y="508.6363636363636" type="line"/>
      <point x="646.7606060606062" y="508.6363636363636" type="line"/>
      <point x="646.7606060606062" y="548.5454545454545" type="line"/>
      <point x="101.24848484848485" y="548.5454545454545" type="line"/>
    </contour>
    <contour>
      <point x="273.69393939393944" y="219.53939393939393" type="curve" smooth="yes"/>
      <point x="298.1606060606061" y="219.53939393939393"/>
      <point x="317.3363636363636" y="239.28181818181818"/>
      <point x="317.3363636363636" y="262.8363636363636" type="curve" smooth="yes"/>
      <point x="317.3363636363636" y="285.9242424242424"/>
      <point x="298.1606060606061" y="305.75454545454545"/>
      <point x="273.69393939393944" y="305.75454545454545" type="curve" smooth="yes"/>
      <point x="248.57272727272726" y="305.75454545454545"/>
      <point x="228.94242424242424" y="285.9242424242424"/>
      <point x="228.94242424242424" y="262.8363636363636" type="curve" smooth="yes"/>
      <point x="228.94242424242424" y="239.28181818181818"/>
      <point x="248.57272727272726" y="219.53939393939393"/>
    </contour>
    <contour>
      <point x="596.5363636363637" y="219.53939393939393" type="curve" smooth="yes"/>
      <point x="621.6363636363636" y="219.53939393939393"/>
      <point x="640.4666666666667" y="239.28181818181818"/>
      <point x="640.4666666666667" y="262.8363636363636" type="curve" smooth="yes"/>
      <point x="640.4666666666667" y="285.9242424242424"/>
      <point x="621.6363636363636" y="305.75454545454545"/>
      <point x="596.5363636363637" y="305.75454545454545" type="curve" smooth="yes"/>
      <point x="571.4151515151515" y="305.75454545454545"/>
      <point x="552.4181818181818" y="285.9242424242424"/>
      <point x="552.4181818181818" y="262.8363636363636" type="curve" smooth="yes"/>
      <point x="552.4181818181818" y="239.28181818181818"/>
      <point x="571.4151515151515" y="219.53939393939393"/>
    </contour>
  </outline>
</glyph>
<glyph name="u-tamil" format="2">
  <advance width="936.5696969696971"/>
  <unicode hex="0B89"/>
  <note>
uni0B89
</note>
  <anchor x="493.8727272727273" y="0.0" name="bottom"/>
  <anchor x="494.07272727272726" y="0.0" name="nukta"/>
  <anchor x="496.27272727272725" y="548.5454545454545" name="top"/>
  <anchor x="496.7060606060606" y="548.5454545454545" name="vedic"/>
  <outline>
    <contour>
      <point x="146.33939393939394" y="0.0" type="curve" smooth="yes"/>
      <point x="914.3212121212122" y="0.0" type="line"/>
      <point x="914.3212121212122" y="39.90909090909091" type="line"/>
      <point x="143.46666666666667" y="39.90909090909091" type="line" smooth="yes"/>
      <point x="115.1909090909091" y="39.90909090909091"/>
      <point x="93.0878787878788" y="59.90909090909091"/>
      <point x="93.0878787878788" y="90.36363636363636" type="curve" smooth="yes"/>
      <point x="93.0878787878788" y="121.81818181818181"/>
      <point x="114.73636363636365" y="140.0"/>
      <point x="143.46666666666667" y="140.0" type="curve" smooth="yes"/>
      <point x="362.1363636363636" y="140.0" type="line" smooth="yes"/>
      <point x="494.14242424242417" y="140.0"/>
      <point x="590.0121212121211" y="205.16666666666666"/>
      <point x="590.0121212121211" y="337.3636363636364" type="curve" smooth="yes"/>
      <point x="590.0121212121211" y="476.45454545454544"/>
      <point x="485.6606060606061" y="555.3636363636364"/>
      <point x="339.58787878787876" y="555.3636363636364" type="curve" smooth="yes"/>
      <point x="216.77878787878785" y="555.3636363636364"/>
      <point x="134.48181818181817" y="483.0363636363636"/>
      <point x="134.48181818181817" y="388.49090909090904" type="curve" smooth="yes"/>
      <point x="134.48181818181817" y="311.20000000000005"/>
      <point x="184.86969696969697" y="255.63636363636363"/>
      <point x="262.7848484848485" y="255.63636363636363" type="curve" smooth="yes"/>
      <point x="337.69696969696975" y="255.63636363636363"/>
      <point x="392.3636363636364" y="303.83636363636367"/>
      <point x="392.3636363636364" y="382.76363636363635" type="curve" smooth="yes"/>
      <point x="392.3636363636364" y="453.01818181818186"/>
      <point x="341.6242424242424" y="509.8727272727272"/>
      <point x="289.2818181818182" y="526.2727272727273" type="curve"/>
      <point x="249.33636363636364" y="522.3636363636364" type="line"/>
      <point x="303.1545454545455" y="496.8181818181818"/>
      <point x="333.4" y="442.0363636363636"/>
      <point x="333.4" y="387.67272727272723" type="curve" smooth="yes"/>
      <point x="333.4" y="334.38181818181823"/>
      <point x="305.96969696969694" y="296.45454545454544"/>
      <point x="252.70909090909095" y="296.45454545454544" type="curve" smooth="yes"/>
      <point x="207.27878787878785" y="296.45454545454544"/>
      <point x="176.31212121212118" y="328.76363636363635"/>
      <point x="176.31212121212118" y="385.94545454545454" type="curve" smooth="yes"/>
      <point x="176.31212121212118" y="460.8545454545454"/>
      <point x="238.32424242424239" y="515.0"/>
      <point x="328.04848484848486" y="515.0" type="curve" smooth="yes"/>
      <point x="441.1242424242424" y="515.0"/>
      <point x="525.5575757575758" y="452.0"/>
      <point x="525.5575757575758" y="344.90909090909093" type="curve" smooth="yes"/>
      <point x="525.5575757575758" y="236.27272727272728"/>
      <point x="459.6" y="179.8181818181818"/>
      <point x="351.6848484848485" y="179.8181818181818" type="curve" smooth="yes"/>
      <point x="146.33939393939394" y="179.8181818181818" type="line" smooth="yes"/>
      <point x="88.37272727272727" y="179.8181818181818"/>
      <point x="50.71212121212121" y="146.72727272727272"/>
      <point x="50.71212121212121" y="90.36363636363636" type="curve" smooth="yes"/>
      <point x="50.71212121212121" y="35.0"/>
      <point x="88.37272727272727" y="0.0"/>
    </contour>
  </outline>
</glyph>
<glyph name="uu-tamil" format="2">
  <advance width="1528.3848484848484"/>
  <unicode hex="0B8A"/>
  <note>
uni0B8A
</note>
  <anchor x="799.4484848484848" y="0.0" name="bottom"/>
  <anchor x="800.2484848484848" y="0.0" name="nukta"/>
  <anchor x="802.7939393939395" y="548.5454545454545" name="top"/>
  <anchor x="802.4484848484848" y="548.5454545454545" name="vedic"/>
  <outline>
    <contour>
      <point x="145.13939393939395" y="0.0" type="curve" smooth="yes"/>
      <point x="1507.8636363636363" y="0.0" type="line"/>
      <point x="1507.8636363636363" y="39.90909090909091" type="line"/>
      <point x="142.26666666666668" y="39.90909090909091" type="line" smooth="yes"/>
      <point x="113.7909090909091" y="39.90909090909091"/>
      <point x="93.0878787878788" y="59.90909090909091"/>
      <point x="93.0878787878788" y="90.36363636363636" type="curve" smooth="yes"/>
      <point x="93.0878787878788" y="121.81818181818181"/>
      <point x="113.33636363636363" y="140.0"/>
      <point x="142.26666666666668" y="140.0" type="curve" smooth="yes"/>
      <point x="362.1363636363636" y="140.0" type="line" smooth="yes"/>
      <point x="494.14242424242417" y="140.0"/>
      <point x="590.0121212121211" y="205.16666666666666"/>
      <point x="590.0121212121211" y="337.3636363636364" type="curve" smooth="yes"/>
      <point x="590.0121212121211" y="476.45454545454544"/>
      <point x="485.6606060606061" y="555.3636363636364"/>
      <point x="339.58787878787876" y="555.3636363636364" type="curve" smooth="yes"/>
      <point x="216.77878787878785" y="555.3636363636364"/>
      <point x="134.48181818181817" y="483.0363636363636"/>
      <point x="134.48181818181817" y="388.49090909090904" type="curve" smooth="yes"/>
      <point x="134.48181818181817" y="311.20000000000005"/>
      <point x="184.86969696969697" y="255.63636363636363"/>
      <point x="262.7848484848485" y="255.63636363636363" type="curve" smooth="yes"/>
      <point x="337.69696969696975" y="255.63636363636363"/>
      <point x="392.3636363636364" y="303.83636363636367"/>
      <point x="392.3636363636364" y="382.76363636363635" type="curve" smooth="yes"/>
      <point x="392.3636363636364" y="453.01818181818186"/>
      <point x="341.6242424242424" y="509.8727272727272"/>
      <point x="289.2818181818182" y="526.2727272727273" type="curve"/>
      <point x="249.33636363636364" y="522.3636363636364" type="line"/>
      <point x="303.1545454545455" y="496.8181818181818"/>
      <point x="333.4" y="442.0363636363636"/>
      <point x="333.4" y="387.67272727272723" type="curve" smooth="yes"/>
      <point x="333.4" y="334.38181818181823"/>
      <point x="305.96969696969694" y="296.45454545454544"/>
      <point x="252.70909090909095" y="296.45454545454544" type="curve" smooth="yes"/>
      <point x="207.27878787878785" y="296.45454545454544"/>
      <point x="176.31212121212118" y="328.76363636363635"/>
      <point x="176.31212121212118" y="385.94545454545454" type="curve" smooth="yes"/>
      <point x="176.31212121212118" y="460.8545454545454"/>
      <point x="238.32424242424239" y="515.0"/>
      <point x="328.04848484848486" y="515.0" type="curve" smooth="yes"/>
      <point x="441.1242424242424" y="515.0"/>
      <point x="525.5575757575758" y="452.0"/>
      <point x="525.5575757575758" y="344.90909090909093" type="curve" smooth="yes"/>
      <point x="525.5575757575758" y="236.27272727272728"/>
      <point x="459.6" y="179.8181818181818"/>
      <point x="351.6848484848485" y="179.8181818181818" type="curve" smooth="yes"/>
      <point x="145.13939393939395" y="179.8181818181818" type="line" smooth="yes"/>
      <point x="87.17272727272727" y="179.8181818181818"/>
      <point x="50.71212121212121" y="146.72727272727272"/>
      <point x="50.71212121212121" y="90.36363636363636" type="curve" smooth="yes"/>
      <point x="50.71212121212121" y="35.0"/>
      <point x="87.17272727272727" y="0.0"/>
    </contour>
    <contour>
      <point x="839.8848484848486" y="103.45454545454545" type="curve" smooth="yes"/>
      <point x="926.7272727272727" y="103.45454545454545"/>
      <point x="979.8" y="160.59393939393937"/>
      <point x="979.8" y="242.74242424242425" type="curve" smooth="yes"/>
      <point x="979.8" y="330.0333333333333"/>
      <point x="924.5333333333333" y="381.6515151515151"/>
      <point x="852.3454545454545" y="381.6515151515151" type="curve" smooth="yes"/>
      <point x="777.1242424242424" y="381.6515151515151"/>
      <point x="722.7666666666668" y="318.72727272727275"/>
      <point x="707.8484848484848" y="243.8181818181818" type="curve"/>
      <point x="721.2272727272727" y="209.0" type="line"/>
      <point x="736.630303030303" y="274.90909090909093"/>
      <point x="779.3121212121213" y="336.09090909090907"/>
      <point x="838.0060606060606" y="336.09090909090907" type="curve" smooth="yes"/>
      <point x="886.3333333333334" y="336.09090909090907"/>
      <point x="919.5121212121211" y="303.70909090909095"/>
      <point x="919.5121212121211" y="242.72727272727272" type="curve" smooth="yes"/>
      <point x="919.5121212121211" y="182.54545454545456"/>
      <point x="885.1151515151515" y="143.72727272727272"/>
      <point x="830.5575757575758" y="143.72727272727272" type="curve" smooth="yes"/>
      <point x="767.1181818181819" y="143.72727272727272"/>
      <point x="718.7424242424242" y="197.63636363636363"/>
      <point x="718.7424242424242" y="304.45454545454544" type="curve" smooth="yes"/>
      <point x="718.7424242424242" y="425.9969696969697"/>
      <point x="784.9939393939394" y="515.0"/>
      <point x="899.3454545454546" y="515.0" type="curve" smooth="yes"/>
      <point x="1005.3818181818183" y="515.0"/>
      <point x="1086.8121212121212" y="441.25757575757575"/>
      <point x="1087.0121212121212" y="313.72727272727275" type="curve"/>
      <point x="1120.5212121212123" y="314.1818181818182" type="line"/>
      <point x="1120.321212121212" y="473.90909090909093"/>
      <point x="1026.239393939394" y="555.3636363636364"/>
      <point x="898.0878787878788" y="555.3636363636364" type="curve" smooth="yes"/>
      <point x="758.0151515151515" y="555.3636363636364"/>
      <point x="675.5666666666666" y="446.2757575757576"/>
      <point x="675.5666666666666" y="304.27272727272725" type="curve" smooth="yes"/>
      <point x="675.5666666666666" y="180.54545454545453"/>
      <point x="744.8090909090909" y="103.45454545454545"/>
    </contour>
    <contour>
      <point x="1087.0121212121212" y="107.0" type="line"/>
      <point x="1150.1242424242425" y="107.0" type="line"/>
      <point x="1150.1242424242425" y="509.72727272727275" type="line"/>
      <point x="1333.418181818182" y="509.72727272727275" type="line"/>
      <point x="1333.418181818182" y="107.0" type="line"/>
      <point x="1396.1636363636364" y="107.0" type="line"/>
      <point x="1396.1636363636364" y="509.72727272727275" type="line"/>
      <point x="1507.8636363636363" y="509.72727272727275" type="line"/>
      <point x="1507.8636363636363" y="548.5454545454545" type="line"/>
      <point x="1091.5060606060606" y="548.5454545454545" type="line"/>
      <point x="1091.5060606060606" y="395.8181818181818" type="line"/>
      <point x="1087.0121212121212" y="384.09090909090907" type="line"/>
    </contour>
  </outline>
</glyph>
<glyph name="e-tamil" format="2">
  <advance width="814.7030303030303"/>
  <unicode hex="0B8E"/>
  <note>
uni0B8E
</note>
  <anchor x="430.5363636363636" y="0.0" name="bottom"/>
  <anchor x="431.5363636363636" y="0.0" name="nukta"/>
  <anchor x="432.6787878787879" y="548.5454545454545" name="top"/>
  <anchor x="433.5363636363636" y="548.5454545454545" name="vedic"/>
  <outline>
    <contour>
      <point x="242.44848484848487" y="-4.545454545454546" type="curve" smooth="yes"/>
      <point x="335.4787878787879" y="-4.545454545454546"/>
      <point x="397.0090909090909" y="54.96363636363637"/>
      <point x="397.0090909090909" y="148.58181818181816" type="curve" smooth="yes"/>
      <point x="397.0090909090909" y="238.5090909090909"/>
      <point x="340.8818181818182" y="293.90909090909093"/>
      <point x="261.8393939393939" y="293.90909090909093" type="curve" smooth="yes"/>
      <point x="170.66060606060606" y="293.90909090909093"/>
      <point x="112.0090909090909" y="218.25454545454545"/>
      <point x="99.94848484848485" y="131.37878787878788" type="curve"/>
      <point x="120.86666666666667" y="104.32121212121211" type="line"/>
      <point x="134.33333333333331" y="184.6848484848485"/>
      <point x="175.9818181818182" y="246.0"/>
      <point x="241.63030303030305" y="246.0" type="curve" smooth="yes"/>
      <point x="302.7939393939394" y="246.0"/>
      <point x="335.3212121212121" y="201.36363636363637"/>
      <point x="335.3212121212121" y="144.1818181818182" type="curve" smooth="yes"/>
      <point x="335.3212121212121" y="77.81818181818181"/>
      <point x="294.9272727272728" y="36.27272727272727"/>
      <point x="232.25757575757575" y="36.27272727272727" type="curve" smooth="yes"/>
      <point x="155.93636363636364" y="36.27272727272727"/>
      <point x="100.71212121212122" y="109.68484848484847"/>
      <point x="100.71212121212122" y="240.10909090909092" type="curve" smooth="yes"/>
      <point x="100.71212121212122" y="404.5181818181818"/>
      <point x="201.6939393939394" y="508.6363636363636"/>
      <point x="370.3151515151515" y="508.6363636363636" type="curve" smooth="yes"/>
      <point x="573.2727272727273" y="508.6363636363636" type="line"/>
      <point x="573.2727272727273" y="0.0" type="line"/>
      <point x="637.2727272727273" y="0.0" type="line"/>
      <point x="637.2727272727273" y="508.6363636363636" type="line"/>
      <point x="791.6" y="508.6363636363636" type="line"/>
      <point x="791.6" y="548.5454545454545" type="line"/>
      <point x="370.9818181818182" y="548.5454545454545" type="line" smooth="yes"/>
      <point x="175.84545454545454" y="548.5454545454545"/>
      <point x="57.515151515151516" y="429.82424242424236"/>
      <point x="57.515151515151516" y="241.10909090909092" type="curve" smooth="yes"/>
      <point x="57.515151515151516" y="87.12121212121212"/>
      <point x="135.04848484848486" y="-4.545454545454546"/>
    </contour>
  </outline>
</glyph>
<glyph name="ai-tamil" format="2">
  <advance width="886.4181818181819"/>
  <unicode hex="0B90"/>
  <note>
uni0B90
</note>
  <anchor x="454.3242424242424" y="0.0" name="bottom"/>
  <anchor x="450.24848484848485" y="-287.8181818181818" name="nukta"/>
  <anchor x="460.3515151515152" y="548.5454545454545" name="top"/>
  <anchor x="459.2606060606061" y="548.5454545454545" name="vedic"/>
  <outline>
    <contour>
      <point x="266.1606060606061" y="-287.8181818181818" type="curve" smooth="yes"/>
      <point x="367.77272727272725" y="-287.8181818181818"/>
      <point x="434.4818181818182" y="-239.06969696969696"/>
      <point x="460.5787878787879" y="-169.72121212121215" type="curve"/>
      <point x="484.4121212121212" y="-236.7969696969697"/>
      <point x="546.630303030303" y="-287.8181818181818"/>
      <point x="634.9606060606061" y="-287.8181818181818" type="curve" smooth="yes"/>
      <point x="743.8545454545455" y="-287.8181818181818"/>
      <point x="829.2484848484848" y="-226.27878787878788"/>
      <point x="829.2484848484848" y="-96.16363636363637" type="curve" smooth="yes"/>
      <point x="829.2484848484848" y="-31.254545454545454"/>
      <point x="804.2" y="22.642424242424244"/>
      <point x="760.8787878787879" y="78.43030303030304" type="curve"/>
      <point x="727.9484848484848" y="53.948484848484846" type="line"/>
      <point x="763.1848484848485" y="10.012121212121212"/>
      <point x="785.7393939393938" y="-41.14545454545455"/>
      <point x="785.7393939393938" y="-92.54545454545455" type="curve" smooth="yes"/>
      <point x="785.7393939393938" y="-194.4969696969697"/>
      <point x="722.6575757575758" y="-243.63636363636363"/>
      <point x="635.6696969696969" y="-243.63636363636363" type="curve" smooth="yes"/>
      <point x="544.7181818181818" y="-243.63636363636363"/>
      <point x="494.43636363636364" y="-175.01515151515153"/>
      <point x="494.43636363636364" y="-74.75757575757576" type="curve" smooth="yes"/>
      <point x="494.43636363636364" y="-26.0" type="line"/>
      <point x="431.9" y="-26.0" type="line"/>
      <point x="431.9" y="-90.12121212121212" type="line" smooth="yes"/>
      <point x="431.9" y="-178.2121212121212"/>
      <point x="373.37878787878793" y="-246.9090909090909"/>
      <point x="271.93939393939394" y="-246.9090909090909" type="curve" smooth="yes"/>
      <point x="182.1848484848485" y="-246.9090909090909"/>
      <point x="126.82424242424243" y="-198.74242424242425"/>
      <point x="126.82424242424243" y="-109.60606060606061" type="curve" smooth="yes"/>
      <point x="126.82424242424243" y="27.287878787878785"/>
      <point x="237.5727272727273" y="64.4"/>
      <point x="471.27878787878785" y="82.76363636363637" type="curve" smooth="yes"/>
      <point x="670.7272727272727" y="98.5090909090909"/>
      <point x="827.1545454545455" y="150.84848484848484"/>
      <point x="827.1545454545455" y="345.45454545454544" type="curve" smooth="yes"/>
      <point x="827.1545454545455" y="490.56060606060606"/>
      <point x="743.2636363636365" y="555.3636363636364"/>
      <point x="639.0484848484848" y="555.3636363636364" type="curve" smooth="yes"/>
      <point x="550.1515151515152" y="555.3636363636364"/>
      <point x="491.1212121212122" y="507.3484848484848"/>
      <point x="464.8181818181818" y="435.1818181818182" type="curve"/>
      <point x="434.62424242424237" y="508.46969696969694"/>
      <point x="368.2" y="555.3636363636364"/>
      <point x="275.99696969696976" y="555.3636363636364" type="curve" smooth="yes"/>
      <point x="145.2121212121212" y="555.3636363636364"/>
      <point x="59.49696969696969" y="467.8181818181818"/>
      <point x="59.49696969696969" y="349.90909090909093" type="curve" smooth="yes"/>
      <point x="59.49696969696969" y="238.45454545454547"/>
      <point x="116.4909090909091" y="159.63636363636363"/>
      <point x="206.51515151515153" y="159.63636363636363" type="curve" smooth="yes"/>
      <point x="279.1242424242424" y="159.63636363636363"/>
      <point x="332.8515151515152" y="205.69696969696972"/>
      <point x="332.8515151515152" y="280.54545454545456" type="curve" smooth="yes"/>
      <point x="332.8515151515152" y="357.28787878787875"/>
      <point x="287.0212121212121" y="405.6363636363636"/>
      <point x="221.86363636363637" y="405.6363636363636" type="curve" smooth="yes"/>
      <point x="160.37272727272727" y="405.6363636363636"/>
      <point x="104.52727272727273" y="358.8636363636364"/>
      <point x="92.64545454545454" y="264.06060606060606" type="curve"/>
      <point x="113.16666666666666" y="233.95454545454547" type="line"/>
      <point x="125.04242424242425" y="320.75757575757575"/>
      <point x="161.14242424242423" y="361.20000000000005"/>
      <point x="206.53939393939396" y="361.20000000000005" type="curve" smooth="yes"/>
      <point x="248.12727272727275" y="361.20000000000005"/>
      <point x="273.56363636363636" y="329.8878787878788"/>
      <point x="273.56363636363636" y="280.8181818181818" type="curve" smooth="yes"/>
      <point x="273.56363636363636" y="231.24545454545455"/>
      <point x="244.23636363636362" y="200.9090909090909"/>
      <point x="200.1" y="200.9090909090909" type="curve" smooth="yes"/>
      <point x="145.1909090909091" y="200.9090909090909"/>
      <point x="103.23939393939395" y="245.27272727272728"/>
      <point x="103.23939393939395" y="345.3636363636364" type="curve" smooth="yes"/>
      <point x="103.23939393939395" y="445.27272727272725"/>
      <point x="170.78181818181818" y="514.5454545454545"/>
      <point x="265.21515151515155" y="514.5454545454545" type="curve" smooth="yes"/>
      <point x="366.53939393939396" y="514.5454545454545"/>
      <point x="431.9" y="451.4939393939394"/>
      <point x="431.9" y="341.6515151515151" type="curve" smooth="yes"/>
      <point x="431.9" y="211.8181818181818" type="line"/>
      <point x="494.43636363636364" y="211.8181818181818" type="line"/>
      <point x="494.43636363636364" y="363.72727272727275" type="line" smooth="yes"/>
      <point x="494.43636363636364" y="442.0575757575757"/>
      <point x="542.8787878787879" y="515.0"/>
      <point x="630.2272727272727" y="515.0" type="curve" smooth="yes"/>
      <point x="719.1090909090909" y="515.0"/>
      <point x="762.0121212121211" y="449.3636363636364"/>
      <point x="762.0121212121211" y="352.27272727272725" type="curve" smooth="yes"/>
      <point x="762.0121212121211" y="189.54545454545453"/>
      <point x="661.6181818181818" y="131.9636363636364"/>
      <point x="426.79090909090905" y="114.41818181818181" type="curve" smooth="yes"/>
      <point x="185.4030303030303" y="96.30909090909091"/>
      <point x="61.969696969696976" y="49.348484848484844"/>
      <point x="61.969696969696976" y="-101.69696969696969" type="curve" smooth="yes"/>
      <point x="61.969696969696976" y="-220.66666666666666"/>
      <point x="144.25757575757575" y="-287.8181818181818"/>
    </contour>
  </outline>
</glyph>
<glyph name="o-tamil" format="2">
  <advance width="901.6272727272727"/>
  <unicode hex="0B92"/>
  <note>
uni0B92
</note>
  <anchor x="457.8212121212121" y="0.0" name="bottom"/>
  <anchor x="455.8212121212121" y="-335.0" name="nukta"/>
  <anchor x="450.8212121212121" y="548.5454545454545" name="top"/>
  <anchor x="450.8212121212121" y="548.5454545454545" name="vedic"/>
  <outline>
    <contour>
      <point x="338.91212121212124" y="-306.2606060606061" type="curve" smooth="yes"/>
      <point x="508.3606060606061" y="-306.2606060606061"/>
      <point x="530.2878787878788" y="-133.93636363636364"/>
      <point x="691.8878787878789" y="-133.93636363636364" type="curve" smooth="yes"/>
      <point x="717.6454545454545" y="-133.93636363636364" type="line"/>
      <point x="717.6454545454545" y="-93.91818181818181" type="line"/>
      <point x="685.7545454545455" y="-93.91818181818181" type="line" smooth="yes"/>
      <point x="543.8030303030304" y="-93.91818181818181"/>
      <point x="435.93939393939394" y="47.2939393939394"/>
      <point x="555.3909090909092" y="213.36060606060607" type="curve"/>
      <point x="560.7121212121212" y="209.89393939393938" type="line"/>
      <point x="524.1515151515151" y="116.22727272727272"/>
      <point x="551.9121212121212" y="-5.0"/>
      <point x="676.4575757575758" y="-5.0" type="curve" smooth="yes"/>
      <point x="771.1363636363636" y="-5.0"/>
      <point x="844.4575757575758" y="70.5909090909091"/>
      <point x="844.4575757575758" y="200.64242424242423" type="curve" smooth="yes"/>
      <point x="844.4575757575758" y="420.1333333333333"/>
      <point x="659.7090909090908" y="555.3636363636364"/>
      <point x="434.5848484848485" y="555.3636363636364" type="curve" smooth="yes"/>
      <point x="221.10909090909092" y="555.3636363636364"/>
      <point x="57.515151515151516" y="421.26666666666665"/>
      <point x="57.515151515151516" y="230.87575757575758" type="curve" smooth="yes"/>
      <point x="57.515151515151516" y="83.65151515151516"/>
      <point x="139.1939393939394" y="-4.545454545454546"/>
      <point x="244.46363636363637" y="-4.545454545454546" type="curve" smooth="yes"/>
      <point x="337.7818181818182" y="-4.545454545454546"/>
      <point x="399.0242424242424" y="55.88484848484848"/>
      <point x="399.0242424242424" y="149.15757575757576" type="curve" smooth="yes"/>
      <point x="399.0242424242424" y="238.7969696969697"/>
      <point x="342.8969696969697" y="294.25454545454545"/>
      <point x="264.1424242424242" y="294.25454545454545" type="curve" smooth="yes"/>
      <point x="172.6757575757576" y="294.25454545454545"/>
      <point x="112.58484848484848" y="218.83030303030304"/>
      <point x="100.52424242424242" y="132.0121212121212" type="curve"/>
      <point x="121.44242424242425" y="104.95454545454545" type="line"/>
      <point x="134.70909090909092" y="185.60606060606062"/>
      <point x="178.28484848484848" y="246.0"/>
      <point x="243.93333333333334" y="246.0" type="curve" smooth="yes"/>
      <point x="304.80909090909097" y="246.0"/>
      <point x="337.3363636363636" y="202.28484848484848"/>
      <point x="337.3363636363636" y="144.75757575757575" type="curve" smooth="yes"/>
      <point x="337.3363636363636" y="78.73939393939395"/>
      <point x="297.51818181818186" y="36.27272727272727"/>
      <point x="234.84848484848484" y="36.27272727272727" type="curve" smooth="yes"/>
      <point x="160.3121212121212" y="36.27272727272727"/>
      <point x="100.71212121212122" y="104.92121212121212"/>
      <point x="100.71212121212122" y="229.24242424242425" type="curve" smooth="yes"/>
      <point x="100.71212121212122" y="399.1636363636364"/>
      <point x="250.5666666666667" y="515.0"/>
      <point x="433.9242424242424" y="515.0" type="curve" smooth="yes"/>
      <point x="626.3787878787878" y="515.0"/>
      <point x="780.4030303030303" y="399.78787878787875"/>
      <point x="780.4030303030303" y="208.2030303030303" type="curve" smooth="yes"/>
      <point x="780.4030303030303" y="100.84848484848484"/>
      <point x="735.6878787878788" y="36.27272727272727"/>
      <point x="666.5151515151515" y="36.27272727272727" type="curve" smooth="yes"/>
      <point x="574.6757575757575" y="36.27272727272727"/>
      <point x="560.1636363636364" y="154.6878787878788"/>
      <point x="616.1575757575757" y="254.54848484848483" type="curve"/>
      <point x="567.6787878787878" y="285.1787878787879" type="line"/>
      <point x="395.1121212121212" y="97.05151515151515"/>
      <point x="471.40303030303033" y="-68.03939393939395"/>
      <point x="595.3212121212122" y="-111.66060606060606" type="curve"/>
      <point x="595.3212121212122" y="-116.20606060606059" type="line"/>
      <point x="468.6" y="-133.30303030303028"/>
      <point x="448.99090909090904" y="-257.90000000000003"/>
      <point x="324.8878787878788" y="-257.90000000000003" type="curve" smooth="yes"/>
      <point x="268.8909090909091" y="-257.90000000000003"/>
      <point x="234.56666666666666" y="-222.73030303030305"/>
      <point x="234.56666666666666" y="-174.3848484848485" type="curve" smooth="yes"/>
      <point x="234.56666666666666" y="-135.64848484848486"/>
      <point x="249.29090909090908" y="-111.76060606060607"/>
      <point x="286.11818181818177" y="-83.00606060606061" type="curve"/>
      <point x="257.49393939393946" y="-52.63030303030303" type="line"/>
      <point x="210.43939393939397" y="-90.2909090909091"/>
      <point x="191.3121212121212" y="-122.87575757575758"/>
      <point x="191.3121212121212" y="-173.3848484848485" type="curve" smooth="yes"/>
      <point x="191.3121212121212" y="-250.5606060606061"/>
      <point x="250.13030303030305" y="-306.2606060606061"/>
    </contour>
  </outline>
</glyph>
<glyph name="oo-tamil" format="2">
  <advance width="901.6272727272727"/>
  <unicode hex="0B93"/>
  <note>
uni0B93
</note>
  <anchor x="445.25151515151515" y="0.0" name="bottom"/>
  <anchor x="443.25151515151515" y="-286.06363636363636" name="nukta"/>
  <anchor x="438.25151515151515" y="548.5454545454545" name="top"/>
  <anchor x="438.25151515151515" y="548.5454545454545" name="vedic"/>
  <outline>
    <contour>
      <point x="321.9" y="-313.3545454545455" type="curve" smooth="yes"/>
      <point x="500.0090909090909" y="-313.3545454545455"/>
      <point x="523.8969696969697" y="-133.93636363636364"/>
      <point x="680.9484848484848" y="-133.93636363636364" type="curve" smooth="yes"/>
      <point x="704.8424242424243" y="-133.93636363636364" type="line"/>
      <point x="704.8424242424243" y="-93.91818181818181" type="line"/>
      <point x="678.3272727272728" y="-93.91818181818181" type="line" smooth="yes"/>
      <point x="539.2545454545455" y="-93.91818181818181"/>
      <point x="436.9787878787879" y="47.2939393939394"/>
      <point x="555.3909090909092" y="213.36060606060607" type="curve"/>
      <point x="560.7121212121212" y="209.89393939393938" type="line"/>
      <point x="524.1515151515151" y="116.22727272727272"/>
      <point x="551.9121212121212" y="-5.0"/>
      <point x="676.4575757575758" y="-5.0" type="curve" smooth="yes"/>
      <point x="771.1363636363636" y="-5.0"/>
      <point x="844.4575757575758" y="70.5909090909091"/>
      <point x="844.4575757575758" y="200.64242424242423" type="curve" smooth="yes"/>
      <point x="844.4575757575758" y="420.1333333333333"/>
      <point x="659.7090909090908" y="555.3636363636364"/>
      <point x="434.5848484848485" y="555.3636363636364" type="curve" smooth="yes"/>
      <point x="221.10909090909092" y="555.3636363636364"/>
      <point x="57.515151515151516" y="421.26666666666665"/>
      <point x="57.515151515151516" y="230.87575757575758" type="curve" smooth="yes"/>
      <point x="57.515151515151516" y="83.65151515151516"/>
      <point x="139.1939393939394" y="-4.545454545454546"/>
      <point x="244.46363636363637" y="-4.545454545454546" type="curve" smooth="yes"/>
      <point x="337.7818181818182" y="-4.545454545454546"/>
      <point x="399.0242424242424" y="55.88484848484848"/>
      <point x="399.0242424242424" y="149.15757575757576" type="curve" smooth="yes"/>
      <point x="399.0242424242424" y="238.7969696969697"/>
      <point x="342.8969696969697" y="294.25454545454545"/>
      <point x="264.1424242424242" y="294.25454545454545" type="curve" smooth="yes"/>
      <point x="172.6757575757576" y="294.25454545454545"/>
      <point x="112.58484848484848" y="218.83030303030304"/>
      <point x="100.52424242424242" y="132.0121212121212" type="curve"/>
      <point x="121.44242424242425" y="104.95454545454545" type="line"/>
      <point x="134.70909090909092" y="185.60606060606062"/>
      <point x="178.28484848484848" y="246.0"/>
      <point x="243.93333333333334" y="246.0" type="curve" smooth="yes"/>
      <point x="304.80909090909097" y="246.0"/>
      <point x="337.3363636363636" y="202.28484848484848"/>
      <point x="337.3363636363636" y="144.75757575757575" type="curve" smooth="yes"/>
      <point x="337.3363636363636" y="78.73939393939395"/>
      <point x="297.51818181818186" y="36.27272727272727"/>
      <point x="234.84848484848484" y="36.27272727272727" type="curve" smooth="yes"/>
      <point x="160.3121212121212" y="36.27272727272727"/>
      <point x="100.71212121212122" y="104.92121212121212"/>
      <point x="100.71212121212122" y="229.24242424242425" type="curve" smooth="yes"/>
      <point x="100.71212121212122" y="399.1636363636364"/>
      <point x="250.5666666666667" y="515.0"/>
      <point x="433.9242424242424" y="515.0" type="curve" smooth="yes"/>
      <point x="626.3787878787878" y="515.0"/>
      <point x="780.4030303030303" y="399.78787878787875"/>
      <point x="780.4030303030303" y="208.2030303030303" type="curve" smooth="yes"/>
      <point x="780.4030303030303" y="100.84848484848484"/>
      <point x="735.6878787878788" y="36.27272727272727"/>
      <point x="666.5151515151515" y="36.27272727272727" type="curve" smooth="yes"/>
      <point x="574.6757575757575" y="36.27272727272727"/>
      <point x="560.1636363636364" y="154.6878787878788"/>
      <point x="616.1575757575757" y="254.54848484848483" type="curve"/>
      <point x="567.6787878787878" y="285.1787878787879" type="line"/>
      <point x="396.72727272727275" y="97.91515151515152"/>
      <point x="466.5090909090909" y="-67.17575757575757"/>
      <point x="587.6696969696969" y="-111.66060606060606" type="curve"/>
      <point x="587.6696969696969" y="-116.20606060606059" type="line"/>
      <point x="461.1727272727273" y="-135.03030303030303"/>
      <point x="440.83030303030307" y="-266.08181818181816"/>
      <point x="306.4181818181818" y="-266.08181818181816" type="curve" smooth="yes"/>
      <point x="248.74545454545458" y="-266.08181818181816"/>
      <point x="215.38484848484848" y="-232.24848484848485"/>
      <point x="215.38484848484848" y="-187.5121212121212" type="curve" smooth="yes"/>
      <point x="215.38484848484848" y="-143.5363636363636"/>
      <point x="248.95151515151514" y="-117.04848484848486"/>
      <point x="287.1363636363636" y="-117.04848484848486" type="curve" smooth="yes"/>
      <point x="320.02727272727276" y="-117.04848484848486"/>
      <point x="347.45757575757574" y="-134.63636363636363"/>
      <point x="358.0151515151515" y="-163.01515151515153" type="curve"/>
      <point x="378.3515151515152" y="-153.0"/>
      <point x="393.04242424242426" y="-133.63636363636363"/>
      <point x="393.04242424242426" y="-112.81818181818181" type="curve" smooth="yes"/>
      <point x="393.04242424242426" y="-77.30909090909091"/>
      <point x="355.2787878787879" y="-56.72727272727273"/>
      <point x="312.0363636363636" y="-56.72727272727273" type="curve" smooth="yes"/>
      <point x="238.99090909090907" y="-56.72727272727273"/>
      <point x="174.06363636363636" y="-107.54242424242425"/>
      <point x="174.06363636363636" y="-184.87575757575758" type="curve" smooth="yes"/>
      <point x="174.06363636363636" y="-263.1787878787879"/>
      <point x="237.23939393939392" y="-313.3545454545455"/>
    </contour>
  </outline>
</glyph>
<glyph name="au-tamil" format="2">
  <advance width="2006.1666666666665"/>
  <unicode hex="0B94"/>
  <note>
uni0B94
</note>
  <anchor x="1019.3545454545456" y="0.0" name="bottom"/>
  <anchor x="1086.4818181818182" y="0.0" name="nukta"/>
  <anchor x="1012.3545454545456" y="548.5454545454545" name="top"/>
  <anchor x="1012.3545454545456" y="548.5454545454545" name="vedic"/>
  <outline>
    <contour>
      <point x="1131.178787878788" y="-4.199999999999999" type="curve" smooth="yes"/>
      <point x="1223.330303030303" y="-4.199999999999999"/>
      <point x="1285.1636363636362" y="55.38484848484848"/>
      <point x="1285.1636363636362" y="149.49090909090907" type="curve" smooth="yes"/>
      <point x="1285.1636363636362" y="238.96363636363637"/>
      <point x="1228.3575757575757" y="294.25454545454545"/>
      <point x="1150.0696969696971" y="294.25454545454545" type="curve" smooth="yes"/>
      <point x="1060.678787878788" y="294.25454545454545"/>
      <point x="1000.4969696969696" y="220.28484848484848"/>
      <point x="988.069696969697" y="132.0121212121212" type="curve"/>
      <point x="1009.2757575757577" y="104.66666666666667" type="line"/>
      <point x="1022.6212121212121" y="185.3181818181818"/>
      <point x="1064.3030303030303" y="246.0"/>
      <point x="1129.4060606060607" y="246.0" type="curve" smooth="yes"/>
      <point x="1190.5818181818183" y="246.0"/>
      <point x="1223.2757575757578" y="202.6181818181818"/>
      <point x="1223.2757575757578" y="145.0909090909091" type="curve" smooth="yes"/>
      <point x="1223.2757575757578" y="79.07272727272729"/>
      <point x="1183.9909090909089" y="36.27272727272727"/>
      <point x="1120.9878787878788" y="36.27272727272727" type="curve" smooth="yes"/>
      <point x="1044.3636363636363" y="36.27272727272727"/>
      <point x="989.0333333333334" y="109.86666666666666"/>
      <point x="989.0333333333334" y="238.33636363636364" type="curve" smooth="yes"/>
      <point x="989.0333333333334" y="407.77272727272725"/>
      <point x="1083.930303030303" y="515.0"/>
      <point x="1232.121212121212" y="515.0" type="curve" smooth="yes"/>
      <point x="1364.9666666666667" y="515.0"/>
      <point x="1464.6848484848483" y="441.46969696969694"/>
      <point x="1464.6848484848483" y="275.19393939393944" type="curve"/>
      <point x="1504.939393939394" y="278.03030303030306" type="line"/>
      <point x="1500.6454545454544" y="470.69696969696975"/>
      <point x="1387.5666666666668" y="555.3636363636364"/>
      <point x="1230.9545454545455" y="555.3636363636364" type="curve" smooth="yes"/>
      <point x="1059.660606060606" y="555.3636363636364"/>
      <point x="945.490909090909" y="433.75757575757575"/>
      <point x="945.490909090909" y="239.7909090909091" type="curve" smooth="yes"/>
      <point x="945.490909090909" y="86.84848484848486"/>
      <point x="1023.7787878787877" y="-4.199999999999999"/>
    </contour>
    <contour>
      <point x="1464.8848484848486" y="0.0" type="line"/>
      <point x="1527.8848484848484" y="0.0" type="line"/>
      <point x="1527.8848484848484" y="508.6363636363636" type="line"/>
      <point x="1751.0727272727272" y="508.6363636363636" type="line"/>
      <point x="1751.0727272727272" y="0.0" type="line"/>
      <point x="1814.3848484848486" y="0.0" type="line"/>
      <point x="1814.3848484848486" y="508.6363636363636" type="line"/>
      <point x="1983.0636363636365" y="508.6363636363636" type="line"/>
      <point x="1983.0636363636365" y="548.5454545454545" type="line"/>
      <point x="1469.6666666666667" y="548.5454545454545" type="line"/>
      <point x="1469.6666666666667" y="385.1818181818182" type="line"/>
      <point x="1464.8848484848486" y="370.6363636363636" type="line"/>
    </contour>
    <component base="o-tamil"/>
  </outline>
</glyph>
<glyph name="nga-tamil" format="2">
  <advance width="928.009090909091"/>
  <unicode hex="0B99"/>
  <note>
uni0B99
</note>
  <anchor x="465.9939393939394" y="0.0" name="bottom"/>
  <anchor x="521.7757575757576" y="548.5454545454545" name="imatra"/>
  <anchor x="465.9939393939394" y="0.0" name="nukta"/>
  <anchor x="466.5363636363636" y="548.5454545454545" name="top"/>
  <anchor x="464.7969696969697" y="548.5454545454545" name="vedic"/>
  <outline>
    <contour>
      <point x="101.24848484848485" y="0.0" type="line"/>
      <point x="145.93939393939397" y="0.0" type="line"/>
      <point x="145.93939393939397" y="508.6363636363636" type="line"/>
      <point x="320.56060606060606" y="508.6363636363636" type="line"/>
      <point x="320.56060606060606" y="192.36363636363637" type="line"/>
      <point x="383.7606060606061" y="192.36363636363637" type="line"/>
      <point x="383.7606060606061" y="218.80909090909088" type="line" smooth="yes"/>
      <point x="383.7606060606061" y="269.8121212121212"/>
      <point x="413.2606060606061" y="322.67272727272723"/>
      <point x="476.1030303030303" y="322.67272727272723" type="curve" smooth="yes"/>
      <point x="531.0424242424242" y="322.67272727272723"/>
      <point x="566.9363636363637" y="281.4060606060606"/>
      <point x="566.9363636363637" y="209.0909090909091" type="curve" smooth="yes"/>
      <point x="566.9363636363637" y="82.4909090909091"/>
      <point x="459.83636363636367" y="39.90909090909091"/>
      <point x="401.6818181818182" y="39.90909090909091" type="curve" smooth="yes"/>
      <point x="320.56060606060606" y="39.90909090909091" type="line"/>
      <point x="320.56060606060606" y="0.0" type="line"/>
      <point x="827.0727272727272" y="0.0" type="line"/>
      <point x="827.0727272727272" y="548.5454545454545" type="line"/>
      <point x="763.0393939393939" y="548.5454545454545" type="line"/>
      <point x="763.0393939393939" y="39.90909090909091" type="line"/>
      <point x="501.2545454545455" y="39.90909090909091" type="line"/>
      <point x="569.6848484848485" y="63.07272727272728"/>
      <point x="629.9" y="122.36363636363636"/>
      <point x="629.9" y="220.54545454545453" type="curve" smooth="yes"/>
      <point x="629.9" y="311.04242424242426"/>
      <point x="573.8151515151515" y="368.09090909090907"/>
      <point x="496.2969696969697" y="368.09090909090907" type="curve" smooth="yes"/>
      <point x="431.6090909090909" y="368.09090909090907"/>
      <point x="396.9181818181818" y="331.33333333333337"/>
      <point x="384.1606060606061" y="301.630303030303" type="curve"/>
      <point x="384.1606060606061" y="508.6363636363636" type="line"/>
      <point x="552.0060606060606" y="508.6363636363636" type="line"/>
      <point x="552.0060606060606" y="548.5454545454545" type="line"/>
      <point x="101.24848484848485" y="548.5454545454545" type="line"/>
    </contour>
  </outline>
</glyph>
<glyph name="ca-tamil" format="2">
  <advance width="641.0242424242424"/>
  <unicode hex="0B9A"/>
  <note>
uni0B9A
</note>
  <anchor x="338.93636363636364" y="0.0" name="bottom"/>
  <anchor x="528.8242424242425" y="548.5454545454545" name="imatra"/>
  <anchor x="337.23939393939395" y="0.0" name="nukta"/>
  <anchor x="388.1818181818182" y="548.5454545454545" name="top"/>
  <anchor x="344.8757575757576" y="548.5454545454545" name="vedic"/>
  <outline>
    <contour>
      <point x="241.78484848484848" y="-4.0" type="curve" smooth="yes"/>
      <point x="367.89696969696973" y="-4.0"/>
      <point x="440.6363636363636" y="71.21818181818182"/>
      <point x="440.6363636363636" y="193.03030303030303" type="curve" smooth="yes"/>
      <point x="440.6363636363636" y="268.45454545454544" type="line"/>
      <point x="597.9090909090909" y="268.45454545454544" type="line"/>
      <point x="597.9090909090909" y="308.8181818181818" type="line"/>
      <point x="440.6363636363636" y="308.8181818181818" type="line"/>
      <point x="440.6363636363636" y="508.6363636363636" type="line"/>
      <point x="597.9090909090909" y="508.6363636363636" type="line"/>
      <point x="597.9090909090909" y="548.5454545454545" type="line"/>
      <point x="175.50606060606063" y="548.5454545454545" type="line"/>
      <point x="175.50606060606063" y="284.5151515151515" type="line"/>
      <point x="219.3969696969697" y="284.5151515151515" type="line"/>
      <point x="219.3969696969697" y="508.6363636363636" type="line"/>
      <point x="377.09090909090907" y="508.6363636363636" type="line"/>
      <point x="377.09090909090907" y="308.8181818181818" type="line"/>
      <point x="226.78181818181818" y="308.8181818181818" type="line" smooth="yes"/>
      <point x="123.8969696969697" y="308.8181818181818"/>
      <point x="61.43636363636364" y="242.6818181818182"/>
      <point x="61.43636363636364" y="154.39393939393938" type="curve" smooth="yes"/>
      <point x="61.43636363636364" y="60.830303030303035"/>
      <point x="133.0" y="-4.0"/>
    </contour>
    <contour>
      <point x="237.7969696969697" y="36.27272727272727" type="curve" smooth="yes"/>
      <point x="160.1848484848485" y="36.27272727272727"/>
      <point x="108.95454545454545" y="80.2090909090909"/>
      <point x="108.95454545454545" y="154.2121212121212" type="curve" smooth="yes"/>
      <point x="108.95454545454545" y="217.9090909090909"/>
      <point x="148.85454545454544" y="268.45454545454544"/>
      <point x="232.47575757575757" y="268.45454545454544" type="curve" smooth="yes"/>
      <point x="377.09090909090907" y="268.45454545454544" type="line"/>
      <point x="377.09090909090907" y="185.5" type="line" smooth="yes"/>
      <point x="377.09090909090907" y="86.60909090909091"/>
      <point x="317.1878787878788" y="36.27272727272727"/>
    </contour>
  </outline>
</glyph>
<glyph name="nya-tamil" format="2">
  <advance width="1145.678787878788"/>
  <unicode hex="0B9E"/>
  <note>
uni0B9E
</note>
  <anchor x="607.8515151515152" y="0.0" name="bottom"/>
  <anchor x="920.8848484848485" y="548.5454545454545" name="imatra"/>
  <anchor x="607.1242424242424" y="-313.3666666666667" name="nukta"/>
  <anchor x="620.1878787878788" y="548.5454545454545" name="top"/>
  <anchor x="581.1545454545455" y="548.5454545454545" name="vedic"/>
  <outline>
    <contour>
      <point x="606.7909090909092" y="-313.3666666666667" type="curve" smooth="yes"/>
      <point x="879.0636363636364" y="-313.3666666666667"/>
      <point x="1092.8151515151517" y="-150.65151515151516"/>
      <point x="1092.8151515151517" y="115.53030303030303" type="curve" smooth="yes"/>
      <point x="1092.8151515151517" y="261.1939393939394"/>
      <point x="1026.7939393939394" y="337.27272727272725"/>
      <point x="932.9515151515151" y="337.27272727272725" type="curve" smooth="yes"/>
      <point x="851.4727272727272" y="337.27272727272725"/>
      <point x="799.7545454545455" y="274.27272727272725"/>
      <point x="799.7545454545455" y="176.5" type="curve" smooth="yes"/>
      <point x="799.7545454545455" y="144.66666666666666" type="line"/>
      <point x="821.230303030303" y="144.66666666666666" type="line"/>
      <point x="821.230303030303" y="175.4090909090909" type="line" smooth="yes"/>
      <point x="821.230303030303" y="239.25757575757575"/>
      <point x="853.7212121212121" y="293.38181818181823"/>
      <point x="916.560606060606" y="293.38181818181823" type="curve" smooth="yes"/>
      <point x="983.4636363636363" y="293.38181818181823"/>
      <point x="1028.448484848485" y="236.84545454545452"/>
      <point x="1028.448484848485" y="112.16666666666667" type="curve" smooth="yes"/>
      <point x="1028.448484848485" y="-132.65151515151516"/>
      <point x="839.7818181818182" y="-272.3818181818182"/>
      <point x="604.1515151515152" y="-272.3818181818182" type="curve" smooth="yes"/>
      <point x="331.0393939393939" y="-272.3818181818182"/>
      <point x="104.07878787878788" y="-91.26666666666667"/>
      <point x="104.07878787878788" y="219.76666666666668" type="curve" smooth="yes"/>
      <point x="104.07878787878788" y="394.58484848484846"/>
      <point x="155.89393939393938" y="512.8454545454546"/>
      <point x="280.02727272727276" y="624.2939393939395" type="curve"/>
      <point x="251.55757575757573" y="656.439393939394" type="line"/>
      <point x="122.99090909090908" y="541.281818181818"/>
      <point x="60.97272727272727" y="409.52727272727276"/>
      <point x="60.97272727272727" y="217.94848484848487" type="curve" smooth="yes"/>
      <point x="60.97272727272727" y="-82.72121212121212"/>
      <point x="273.8" y="-313.3666666666667"/>
    </contour>
    <component base="e-tamil" xOffset="188.17878787878786"/>
  </outline>
</glyph>
<glyph name="tta-tamil" format="2">
  <advance width="806.0"/>
  <unicode hex="0B9F"/>
  <note>
uni0B9F
</note>
  <anchor x="443.8666666666667" y="0.0" name="bottom"/>
  <anchor x="443.8666666666667" y="0.0" name="nukta"/>
  <anchor x="464.56363636363636" y="548.5454545454545" name="top"/>
  <anchor x="444.52727272727276" y="548.5454545454545" name="vedic"/>
  <outline>
    <contour>
      <point x="101.24848484848485" y="0.0" type="line"/>
      <point x="788.1393939393939" y="0.0" type="line"/>
      <point x="788.1393939393939" y="39.90909090909091" type="line"/>
      <point x="164.90303030303028" y="39.90909090909091" type="line"/>
      <point x="164.90303030303028" y="548.5454545454545" type="line"/>
      <point x="101.24848484848485" y="548.5454545454545" type="line"/>
    </contour>
  </outline>
</glyph>
<glyph name="ta-tamil" format="2">
  <advance width="748.5242424242425"/>
  <unicode hex="0BA4"/>
  <note>
uni0BA4
</note>
  <anchor x="372.93636363636364" y="0.0" name="bottom"/>
  <anchor x="535.3333333333334" y="548.5454545454545" name="imatra"/>
  <anchor x="376.1363636363636" y="-134.24242424242425" name="nukta"/>
  <anchor x="393.6424242424243" y="548.5454545454545" name="top"/>
  <anchor x="377.73030303030305" y="548.5454545454545" name="vedic"/>
  <outline>
    <contour>
      <point x="142.1939393939394" y="-221.75757575757575" type="curve"/>
      <point x="142.1939393939394" y="-167.95757575757577"/>
      <point x="160.64848484848486" y="-129.62121212121212"/>
      <point x="230.71212121212122" y="-129.62121212121212" type="curve" smooth="yes"/>
      <point x="397.1969696969697" y="-129.62121212121212" type="line" smooth="yes"/>
      <point x="586.4818181818182" y="-129.62121212121212"/>
      <point x="691.5424242424242" y="-54.74848484848485"/>
      <point x="691.5424242424242" y="97.5060606060606" type="curve" smooth="yes"/>
      <point x="691.5424242424242" y="231.46363636363637"/>
      <point x="604.4757575757575" y="308.8181818181818"/>
      <point x="471.7030303030303" y="308.8181818181818" type="curve" smooth="yes"/>
      <point x="440.6363636363636" y="308.8181818181818" type="line"/>
      <point x="440.6363636363636" y="508.6363636363636" type="line"/>
      <point x="602.939393939394" y="508.6363636363636" type="line"/>
      <point x="602.939393939394" y="548.5454545454545" type="line"/>
      <point x="175.50606060606063" y="548.5454545454545" type="line"/>
      <point x="175.50606060606063" y="285.09090909090907" type="line"/>
      <point x="219.3969696969697" y="285.09090909090907" type="line"/>
      <point x="219.3969696969697" y="508.6363636363636" type="line"/>
      <point x="377.09090909090907" y="508.6363636363636" type="line"/>
      <point x="377.09090909090907" y="308.8181818181818" type="line"/>
      <point x="226.78181818181818" y="308.8181818181818" type="line" smooth="yes"/>
      <point x="123.8969696969697" y="308.8181818181818"/>
      <point x="61.43636363636364" y="242.6818181818182"/>
      <point x="61.43636363636364" y="154.39393939393938" type="curve" smooth="yes"/>
      <point x="61.43636363636364" y="60.830303030303035"/>
      <point x="133.0" y="-4.0"/>
      <point x="241.78484848484848" y="-4.0" type="curve" smooth="yes"/>
      <point x="365.01818181818186" y="-4.0"/>
      <point x="440.6363636363636" y="71.21818181818182"/>
      <point x="440.6363636363636" y="193.03030303030303" type="curve" smooth="yes"/>
      <point x="440.6363636363636" y="268.45454545454544" type="line"/>
      <point x="471.9575757575758" y="268.45454545454544" type="line" smooth="yes"/>
      <point x="570.0333333333333" y="268.45454545454544"/>
      <point x="627.7212121212121" y="201.99090909090907"/>
      <point x="627.7212121212121" y="99.5969696969697" type="curve" smooth="yes"/>
      <point x="627.7212121212121" y="-24.24242424242424"/>
      <point x="543.1515151515152" y="-92.33939393939393"/>
      <point x="381.5181818181818" y="-92.33939393939393" type="curve" smooth="yes"/>
      <point x="196.9242424242424" y="-92.33939393939393" type="line" smooth="yes"/>
      <point x="130.5545454545455" y="-92.33939393939393"/>
      <point x="76.56060606060605" y="-111.83333333333333"/>
      <point x="76.56060606060605" y="-165.39393939393938" type="curve" smooth="yes"/>
      <point x="76.56060606060605" y="-202.57575757575756"/>
      <point x="100.0090909090909" y="-221.75757575757575"/>
    </contour>
    <contour>
      <point x="236.35757575757575" y="36.27272727272727" type="curve" smooth="yes"/>
      <point x="158.74545454545455" y="36.27272727272727"/>
      <point x="108.95454545454545" y="80.2090909090909"/>
      <point x="108.95454545454545" y="154.2121212121212" type="curve" smooth="yes"/>
      <point x="108.95454545454545" y="217.9090909090909"/>
      <point x="148.85454545454544" y="268.45454545454544"/>
      <point x="232.47575757575757" y="268.45454545454544" type="curve" smooth="yes"/>
      <point x="377.09090909090907" y="268.45454545454544" type="line"/>
      <point x="377.09090909090907" y="185.5" type="line" smooth="yes"/>
      <point x="377.09090909090907" y="86.60909090909091"/>
      <point x="315.7484848484849" y="36.27272727272727"/>
    </contour>
  </outline>
</glyph>
<glyph name="pa-tamil" format="2">
  <advance width="810.3545454545456"/>
  <unicode hex="0BAA"/>
  <note>
uni0BAA
</note>
  <anchor x="407.1333333333333" y="0.0" name="bottom"/>
  <anchor x="700.9181818181819" y="548.5454545454545" name="imatra"/>
  <anchor x="407.1333333333333" y="0.0" name="nukta"/>
  <anchor x="407.6878787878788" y="548.5454545454545" name="top"/>
  <anchor x="405.6939393939394" y="548.5454545454545" name="vedic"/>
  <outline>
    <contour>
      <point x="101.24848484848485" y="0.0" type="line"/>
      <point x="709.4181818181819" y="0.0" type="line"/>
      <point x="709.4181818181819" y="548.5454545454545" type="line"/>
      <point x="645.6181818181819" y="548.5454545454545" type="line"/>
      <point x="645.6181818181819" y="39.90909090909091" type="line"/>
      <point x="164.90303030303028" y="39.90909090909091" type="line"/>
      <point x="164.90303030303028" y="548.5454545454545" type="line"/>
      <point x="101.24848484848485" y="548.5454545454545" type="line"/>
    </contour>
  </outline>
</glyph>
<glyph name="ya-tamil" format="2">
  <advance width="871.1151515151514"/>
  <unicode hex="0BAF"/>
  <note>
uni0BAF
</note>
  <anchor x="448.1424242424243" y="0.0" name="bottom"/>
  <anchor x="761.6121212121212" y="548.5454545454545" name="imatra"/>
  <anchor x="448.74242424242425" y="0.0" name="nukta"/>
  <anchor x="452.8696969696969" y="548.5454545454545" name="top"/>
  <anchor x="435.57272727272726" y="548.5454545454545" name="vedic"/>
  <outline>
    <contour>
      <point x="228.36666666666667" y="-5.0" type="curve" smooth="yes"/>
      <point x="290.62424242424237" y="-5.0"/>
      <point x="327.1787878787879" y="35.64242424242424"/>
      <point x="341.5757575757576" y="66.23333333333333" type="curve"/>
      <point x="341.5757575757576" y="0.0" type="line"/>
      <point x="770.1787878787878" y="0.0" type="line"/>
      <point x="770.1787878787878" y="548.5454545454545" type="line"/>
      <point x="706.0575757575758" y="548.5454545454545" type="line"/>
      <point x="706.0575757575758" y="39.90909090909091" type="line"/>
      <point x="400.7030303030303" y="39.90909090909091" type="line"/>
      <point x="400.7030303030303" y="548.5454545454545" type="line"/>
      <point x="337.39393939393943" y="548.5454545454545" type="line"/>
      <point x="337.39393939393943" y="147.2969696969697" type="line" smooth="yes"/>
      <point x="337.39393939393943" y="86.84242424242423"/>
      <point x="299.6454545454546" y="40.09090909090909"/>
      <point x="243.66666666666666" y="40.09090909090909" type="curve" smooth="yes"/>
      <point x="194.63939393939395" y="40.09090909090909"/>
      <point x="161.93030303030304" y="73.72727272727273"/>
      <point x="161.93030303030304" y="139.49393939393937" type="curve" smooth="yes"/>
      <point x="161.93030303030304" y="548.5454545454545" type="line"/>
      <point x="98.7878787878788" y="548.5454545454545" type="line"/>
      <point x="98.7878787878788" y="149.27272727272728" type="line" smooth="yes"/>
      <point x="98.7878787878788" y="45.439393939393945"/>
      <point x="149.9909090909091" y="-5.0"/>
    </contour>
  </outline>
</glyph>
<glyph name="ra-tamil" format="2">
  <advance width="610.3787878787878"/>
  <unicode hex="0BB0"/>
  <note>
uni0BB0
</note>
  <anchor x="314.26969696969695" y="0.0" name="bottom"/>
  <anchor x="525.4424242424243" y="548.5454545454545" name="imatra"/>
  <anchor x="313.07272727272726" y="-183.54545454545456" name="nukta"/>
  <anchor x="335.2969696969697" y="548.5454545454545" name="top"/>
  <anchor x="341.56666666666666" y="548.5454545454545" name="vedic"/>
  <outline>
    <contour>
      <point x="222.06666666666666" y="-216.08787878787882" type="line"/>
      <point x="418.91818181818184" y="8.806060606060607" type="line"/>
      <point x="418.91818181818184" y="508.6363636363636" type="line"/>
      <point x="587.2757575757576" y="508.6363636363636" type="line"/>
      <point x="587.2757575757576" y="548.5454545454545" type="line"/>
      <point x="101.24848484848485" y="548.5454545454545" type="line"/>
      <point x="101.24848484848485" y="0.0" type="line"/>
      <point x="145.53939393939393" y="0.0" type="line"/>
      <point x="145.53939393939393" y="508.6363636363636" type="line"/>
      <point x="355.43030303030304" y="508.6363636363636" type="line"/>
      <point x="355.43030303030304" y="1.7818181818181813" type="line"/>
      <point x="190.1090909090909" y="-186.95454545454547" type="line"/>
    </contour>
  </outline>
</glyph>
<glyph name="rra-tamil" format="2">
  <advance width="789.3636363636364"/>
  <unicode hex="0BB1"/>
  <note>
uni0BB1
</note>
  <anchor x="398.3181818181818" y="0.0" name="bottom"/>
  <anchor x="399.10303030303027" y="-168.0909090909091" name="nukta"/>
  <anchor x="386.55454545454546" y="548.5454545454545" name="top"/>
  <anchor x="409.1575757575758" y="548.5454545454545" name="vedic"/>
  <outline>
    <contour>
      <point x="156.34545454545454" y="-221.92424242424244" type="curve"/>
      <point x="156.34545454545454" y="-168.46969696969697"/>
      <point x="174.54545454545456" y="-130.23333333333335"/>
      <point x="244.35151515151514" y="-130.23333333333335" type="curve" smooth="yes"/>
      <point x="371.1030303030303" y="-130.23333333333335" type="line" smooth="yes"/>
      <point x="578.4666666666667" y="-130.23333333333335"/>
      <point x="728.8030303030303" y="-26.136363636363637"/>
      <point x="728.8030303030303" y="251.23333333333332" type="curve" smooth="yes"/>
      <point x="728.8030303030303" y="416.1484848484848"/>
      <point x="670.2363636363636" y="555.3636363636364"/>
      <point x="511.0969696969697" y="555.3636363636364" type="curve" smooth="yes"/>
      <point x="425.01515151515156" y="555.3636363636364"/>
      <point x="382.8909090909091" y="507.06666666666666"/>
      <point x="365.6666666666667" y="470.2909090909091" type="curve"/>
      <point x="352.19090909090903" y="505.23636363636365"/>
      <point x="317.6878787878788" y="554.8181818181819"/>
      <point x="240.8939393939394" y="554.8181818181819" type="curve" smooth="yes"/>
      <point x="162.83030303030304" y="554.8181818181819"/>
      <point x="108.42727272727274" y="500.7939393939394"/>
      <point x="108.42727272727274" y="405.3545454545455" type="curve" smooth="yes"/>
      <point x="108.42727272727274" y="0.0" type="line"/>
      <point x="152.3181818181818" y="0.0" type="line"/>
      <point x="152.3181818181818" y="407.71515151515155" type="line" smooth="yes"/>
      <point x="152.3181818181818" y="475.25151515151515"/>
      <point x="186.53636363636363" y="514.4545454545455"/>
      <point x="240.40303030303028" y="514.4545454545455" type="curve" smooth="yes"/>
      <point x="297.6606060606061" y="514.4545454545455"/>
      <point x="331.28787878787875" y="471.2060606060606"/>
      <point x="331.28787878787875" y="402.44545454545454" type="curve" smooth="yes"/>
      <point x="331.28787878787875" y="0.0" type="line"/>
      <point x="395.28787878787875" y="0.0" type="line"/>
      <point x="395.28787878787875" y="401.44545454545454" type="line" smooth="yes"/>
      <point x="395.28787878787875" y="472.28484848484845"/>
      <point x="445.49090909090904" y="515.0"/>
      <point x="508.7848484848485" y="515.0" type="curve" smooth="yes"/>
      <point x="593.0666666666667" y="515.0"/>
      <point x="662.7121212121211" y="452.90909090909093"/>
      <point x="662.7121212121211" y="254.4151515151515" type="curve" smooth="yes"/>
      <point x="662.7121212121211" y="-2.1363636363636367"/>
      <point x="537.4939393939394" y="-90.52727272727272"/>
      <point x="362.69696969696975" y="-90.52727272727272" type="curve" smooth="yes"/>
      <point x="211.10909090909092" y="-90.52727272727272" type="line" smooth="yes"/>
      <point x="144.90606060606063" y="-90.52727272727272"/>
      <point x="90.54545454545455" y="-111.7090909090909"/>
      <point x="90.54545454545455" y="-165.56060606060606" type="curve" smooth="yes"/>
      <point x="90.54545454545455" y="-202.74242424242425"/>
      <point x="116.83333333333333" y="-221.92424242424244"/>
    </contour>
  </outline>
</glyph>
<glyph name="la-tamil" format="2">
  <advance width="939.6242424242424"/>
  <unicode hex="0BB2"/>
  <note>
uni0BB2
</note>
  <anchor x="472.4090909090909" y="0.0" name="bottom"/>
  <anchor x="472.4090909090909" y="0.0" name="nukta"/>
  <anchor x="489.55151515151516" y="548.5454545454545" name="top"/>
  <anchor x="469.96060606060604" y="548.5454545454545" name="vedic"/>
  <outline>
    <contour>
      <point x="242.7939393939394" y="-4.199999999999999" type="curve" smooth="yes"/>
      <point x="335.4787878787879" y="-4.199999999999999"/>
      <point x="397.0090909090909" y="55.309090909090905"/>
      <point x="397.0090909090909" y="148.58181818181816" type="curve" smooth="yes"/>
      <point x="397.0090909090909" y="238.5090909090909"/>
      <point x="340.8818181818182" y="294.25454545454545"/>
      <point x="261.8393939393939" y="294.25454545454545" type="curve" smooth="yes"/>
      <point x="171.0060606060606" y="294.25454545454545"/>
      <point x="112.35454545454546" y="218.25454545454545"/>
      <point x="100.2939393939394" y="131.72424242424242" type="curve"/>
      <point x="121.21212121212123" y="104.66666666666667" type="line"/>
      <point x="134.47878787878787" y="185.03030303030303"/>
      <point x="176.3272727272727" y="246.0"/>
      <point x="241.63030303030305" y="246.0" type="curve" smooth="yes"/>
      <point x="303.1393939393939" y="246.0"/>
      <point x="335.66666666666663" y="201.7090909090909"/>
      <point x="335.66666666666663" y="144.1818181818182" type="curve" smooth="yes"/>
      <point x="335.66666666666663" y="78.16363636363637"/>
      <point x="295.27272727272725" y="36.27272727272727"/>
      <point x="232.6030303030303" y="36.27272727272727" type="curve" smooth="yes"/>
      <point x="156.9727272727273" y="36.27272727272727"/>
      <point x="100.71212121212122" y="107.61212121212121"/>
      <point x="100.71212121212122" y="233.8909090909091" type="curve" smooth="yes"/>
      <point x="100.71212121212122" y="399.7181818181818"/>
      <point x="183.65757575757576" y="515.0"/>
      <point x="330.8666666666667" y="515.0" type="curve" smooth="yes"/>
      <point x="445.5333333333333" y="515.0"/>
      <point x="518.0454545454545" y="445.40303030303033"/>
      <point x="518.0454545454545" y="323.9242424242424" type="curve" smooth="yes"/>
      <point x="518.0454545454545" y="159.86363636363637" type="line" smooth="yes"/>
      <point x="518.0454545454545" y="54.85454545454546"/>
      <point x="576.2606060606062" y="-1.8181818181818181"/>
      <point x="667.1030303030303" y="-1.8181818181818181" type="curve" smooth="yes"/>
      <point x="788.9272727272728" y="-1.8181818181818181"/>
      <point x="879.5515151515152" y="114.4060606060606"/>
      <point x="879.5515151515152" y="281.27272727272725" type="curve" smooth="yes"/>
      <point x="879.5515151515152" y="381.8909090909091"/>
      <point x="853.9757575757575" y="468.8787878787879"/>
      <point x="780.0818181818181" y="553.8787878787879" type="curve"/>
      <point x="747.8545454545455" y="527.6818181818181" type="line"/>
      <point x="809.5818181818182" y="459.02727272727276"/>
      <point x="837.5696969696969" y="381.2545454545454"/>
      <point x="837.5696969696969" y="286.72727272727275" type="curve" smooth="yes"/>
      <point x="837.5696969696969" y="139.05757575757576"/>
      <point x="763.6696969696969" y="41.27272727272727"/>
      <point x="675.1242424242424" y="41.27272727272727" type="curve" smooth="yes"/>
      <point x="608.6666666666667" y="41.27272727272727"/>
      <point x="582.0454545454545" y="82.36363636363636"/>
      <point x="582.0454545454545" y="158.5757575757576" type="curve" smooth="yes"/>
      <point x="582.0454545454545" y="322.6909090909091" type="line" smooth="yes"/>
      <point x="582.0454545454545" y="474.05757575757576"/>
      <point x="479.5121212121212" y="555.3636363636364"/>
      <point x="336.54242424242426" y="555.3636363636364" type="curve" smooth="yes"/>
      <point x="162.54848484848486" y="555.3636363636364"/>
      <point x="57.515151515151516" y="423.93333333333334"/>
      <point x="57.515151515151516" y="235.58181818181816" type="curve" smooth="yes"/>
      <point x="57.515151515151516" y="85.04848484848486"/>
      <point x="136.77575757575758" y="-4.199999999999999"/>
    </contour>
  </outline>
</glyph>
<glyph name="llla-tamil" format="2">
  <advance width="826.1030303030303"/>
  <unicode hex="0BB4"/>
  <note>
uni0BB4
</note>
  <anchor x="415.6060606060606" y="0.0" name="bottom"/>
  <anchor x="417.4060606060606" y="-294.7606060606061" name="nukta"/>
  <anchor x="452.8666666666667" y="548.5454545454545" name="top"/>
  <anchor x="433.6666666666667" y="548.5454545454545" name="vedic"/>
  <anchor x="729.9363636363636" y="548.5454545454545" name="imatra"/>
  <outline>
    <contour>
      <point x="284.27878787878785" y="-326.06666666666666" type="curve" smooth="yes"/>
      <point x="453.51212121212126" y="-326.06666666666666"/>
      <point x="485.8545454545455" y="-153.77575757575758"/>
      <point x="632.7363636363636" y="-153.77575757575758" type="curve" smooth="yes"/>
      <point x="691.4121212121212" y="-153.77575757575758" type="line"/>
      <point x="691.4121212121212" y="-114.06666666666668" type="line"/>
      <point x="620.5454545454545" y="-114.06666666666668" type="line" smooth="yes"/>
      <point x="530.5454545454545" y="-114.06666666666668"/>
      <point x="474.3666666666667" y="-61.3060606060606"/>
      <point x="474.3666666666667" y="10.454545454545455" type="curve" smooth="yes"/>
      <point x="474.3666666666667" y="73.72727272727272" type="line"/>
      <point x="411.3424242424243" y="73.72727272727272" type="line"/>
      <point x="411.3424242424243" y="10.454545454545455" type="line" smooth="yes"/>
      <point x="411.3424242424243" y="-62.21515151515152"/>
      <point x="474.0484848484848" y="-123.2939393939394"/>
      <point x="543.1272727272727" y="-131.35454545454547" type="curve"/>
      <point x="543.1272727272727" y="-136.15454545454546" type="line"/>
      <point x="421.92121212121214" y="-152.52121212121213"/>
      <point x="391.4636363636364" y="-282.3363636363636"/>
      <point x="274.9" y="-282.3363636363636" type="curve" smooth="yes"/>
      <point x="213.6878787878788" y="-282.3363636363636"/>
      <point x="179.02121212121213" y="-243.92424242424238"/>
      <point x="179.02121212121213" y="-195.45151515151514" type="curve" smooth="yes"/>
      <point x="179.02121212121213" y="-146.3181818181818"/>
      <point x="211.53333333333333" y="-109.7939393939394"/>
      <point x="261.2393939393939" y="-109.7939393939394" type="curve" smooth="yes"/>
      <point x="293.16666666666663" y="-109.7939393939394"/>
      <point x="317.8696969696969" y="-122.16969696969697"/>
      <point x="343.47272727272724" y="-148.1787878787879" type="curve"/>
      <point x="369.62424242424237" y="-119.7818181818182" type="line"/>
      <point x="333.8060606060606" y="-81.65757575757576"/>
      <point x="298.33333333333337" y="-70.03030303030302"/>
      <point x="258.6909090909091" y="-70.03030303030302" type="curve" smooth="yes"/>
      <point x="187.1030303030303" y="-70.03030303030302"/>
      <point x="135.95757575757577" y="-125.04242424242423"/>
      <point x="135.95757575757577" y="-193.36060606060605" type="curve" smooth="yes"/>
      <point x="135.95757575757577" y="-273.1030303030303"/>
      <point x="194.93939393939394" y="-326.06666666666666"/>
    </contour>
    <component base="ma-tamil"/>
  </outline>
</glyph>
<glyph name="va-tamil" format="2">
  <advance width="1040.918181818182"/>
  <unicode hex="0BB5"/>
  <note>
uni0BB5
</note>
  <anchor x="545.8818181818182" y="0.0" name="bottom"/>
  <anchor x="885.730303030303" y="548.5454545454545" name="imatra"/>
  <anchor x="545.8818181818182" y="0.0" name="nukta"/>
  <anchor x="517.1333333333333" y="548.5454545454545" name="top"/>
  <anchor x="506.1181818181819" y="548.5454545454545" name="vedic"/>
  <outline>
    <contour>
      <point x="242.46060606060607" y="-4.199999999999999" type="curve" smooth="yes"/>
      <point x="334.9787878787879" y="-4.199999999999999"/>
      <point x="396.8424242424243" y="54.809090909090905"/>
      <point x="396.8424242424243" y="148.9151515151515" type="curve" smooth="yes"/>
      <point x="396.8424242424243" y="238.67575757575756"/>
      <point x="340.3818181818182" y="294.25454545454545"/>
      <point x="262.00606060606054" y="294.25454545454545" type="curve" smooth="yes"/>
      <point x="171.83939393939394" y="294.25454545454545"/>
      <point x="112.52121212121213" y="219.42121212121214"/>
      <point x="100.2939393939394" y="131.72424242424242" type="curve"/>
      <point x="121.21212121212123" y="104.66666666666667" type="line"/>
      <point x="134.47878787878787" y="185.03030303030303"/>
      <point x="176.3272727272727" y="246.0"/>
      <point x="241.63030303030305" y="246.0" type="curve" smooth="yes"/>
      <point x="302.8060606060606" y="246.0"/>
      <point x="335.5" y="202.04242424242423"/>
      <point x="335.5" y="144.51515151515153" type="curve" smooth="yes"/>
      <point x="335.5" y="78.4969696969697"/>
      <point x="295.43939393939394" y="36.27272727272727"/>
      <point x="232.43636363636364" y="36.27272727272727" type="curve" smooth="yes"/>
      <point x="156.4727272727273" y="36.27272727272727"/>
      <point x="100.71212121212122" y="108.94545454545454"/>
      <point x="100.71212121212122" y="233.55757575757576" type="curve" smooth="yes"/>
      <point x="100.71212121212122" y="402.1272727272727"/>
      <point x="199.26969696969695" y="515.0"/>
      <point x="357.46969696969694" y="515.0" type="curve" smooth="yes"/>
      <point x="497.1727272727273" y="515.0"/>
      <point x="606.4272727272728" y="417.74242424242425"/>
      <point x="606.4272727272728" y="258.74242424242425" type="curve" smooth="yes"/>
      <point x="606.4272727272728" y="149.80303030303028"/>
      <point x="568.4090909090909" y="81.98181818181818"/>
      <point x="524.7030303030302" y="31.490909090909092" type="curve"/>
      <point x="539.2212121212123" y="0.0" type="line"/>
      <point x="939.9818181818182" y="0.0" type="line"/>
      <point x="939.9818181818182" y="548.5454545454545" type="line"/>
      <point x="875.9818181818182" y="548.5454545454545" type="line"/>
      <point x="875.9818181818182" y="39.90909090909091" type="line"/>
      <point x="586.8636363636364" y="39.90909090909091" type="line"/>
      <point x="630.2" y="91.58181818181818"/>
      <point x="669.9727272727272" y="159.85757575757575"/>
      <point x="669.9727272727272" y="261.46969696969694" type="curve" smooth="yes"/>
      <point x="669.9727272727272" y="444.869696969697"/>
      <point x="537.6393939393939" y="555.3636363636364"/>
      <point x="366.57878787878786" y="555.3636363636364" type="curve" smooth="yes"/>
      <point x="180.03939393939396" y="555.3636363636364"/>
      <point x="57.515151515151516" y="425.4878787878788"/>
      <point x="57.515151515151516" y="235.4151515151515" type="curve" smooth="yes"/>
      <point x="57.515151515151516" y="86.21515151515152"/>
      <point x="136.60909090909092" y="-4.199999999999999"/>
    </contour>
  </outline>
</glyph>
<glyph name="sha-tamil" format="2">
  <advance width="1026.051515151515"/>
  <unicode hex="0BB6"/>
  <note>
uni0BB6
</note>
  <anchor x="525.1787878787878" y="0.0" name="bottom"/>
  <anchor x="793.5212121212121" y="548.5454545454545" name="imatra"/>
  <anchor x="525.1787878787878" y="0.0" name="nukta"/>
  <anchor x="527.3242424242425" y="548.5454545454545" name="top"/>
  <anchor x="531.9545454545455" y="548.5454545454545" name="vedic"/>
  <outline>
    <contour>
      <point x="273.6454545454545" y="-6.818181818181818" type="curve" smooth="yes"/>
      <point x="375.71515151515155" y="-6.818181818181818"/>
      <point x="452.8242424242424" y="44.587878787878786"/>
      <point x="452.8242424242424" y="190.8" type="curve" smooth="yes"/>
      <point x="452.8242424242424" y="508.6363636363636" type="line"/>
      <point x="599.1787878787878" y="508.6363636363636" type="line"/>
      <point x="599.1787878787878" y="157.8727272727273" type="line" smooth="yes"/>
      <point x="599.1787878787878" y="51.448484848484846"/>
      <point x="649.5333333333333" y="-6.818181818181818"/>
      <point x="740.5060606060606" y="-6.818181818181818" type="curve" smooth="yes"/>
      <point x="869.0030303030303" y="-6.818181818181818"/>
      <point x="965.6666666666666" y="129.36363636363637"/>
      <point x="965.6666666666666" y="325.45454545454544" type="curve" smooth="yes"/>
      <point x="965.6666666666666" y="478.8727272727273"/>
      <point x="921.5030303030303" y="548.5454545454545"/>
      <point x="813.8787878787878" y="548.5454545454545" type="curve" smooth="yes"/>
      <point x="409.42424242424244" y="548.5454545454545" type="line"/>
      <point x="409.42424242424244" y="191.2" type="line" smooth="yes"/>
      <point x="409.42424242424244" y="67.70303030303032"/>
      <point x="351.3454545454546" y="36.27272727272727"/>
      <point x="280.6575757575757" y="36.27272727272727" type="curve" smooth="yes"/>
      <point x="212.2030303030303" y="36.27272727272727"/>
      <point x="162.9878787878788" y="71.82727272727274"/>
      <point x="162.9878787878788" y="181.29090909090908" type="curve" smooth="yes"/>
      <point x="162.9878787878788" y="548.5454545454545" type="line"/>
      <point x="98.7878787878788" y="548.5454545454545" type="line"/>
      <point x="98.7878787878788" y="180.94545454545454" type="line" smooth="yes"/>
      <point x="98.7878787878788" y="46.27878787878788"/>
      <point x="172.3969696969697" y="-6.818181818181818"/>
    </contour>
    <contour>
      <point x="749.9515151515153" y="36.27272727272727" type="curve" smooth="yes"/>
      <point x="692.5818181818182" y="36.27272727272727"/>
      <point x="662.8909090909091" y="72.01515151515153"/>
      <point x="662.8909090909091" y="157.27272727272728" type="curve" smooth="yes"/>
      <point x="662.8909090909091" y="508.6363636363636" type="line"/>
      <point x="807.4060606060606" y="508.6363636363636" type="line" smooth="yes"/>
      <point x="894.1393939393939" y="508.6363636363636"/>
      <point x="921.7212121212123" y="447.3636363636364"/>
      <point x="921.7212121212123" y="327.45454545454544" type="curve" smooth="yes"/>
      <point x="921.7212121212123" y="147.27272727272728"/>
      <point x="837.3515151515153" y="36.27272727272727"/>
    </contour>
  </outline>
</glyph>
<glyph name="sa-tamil" format="2">
  <advance width="1218.3030303030305"/>
  <unicode hex="0BB8"/>
  <note>
uni0BB8
</note>
  <anchor x="619.4757575757575" y="0.0" name="bottom"/>
  <anchor x="619.4757575757575" y="0.0" name="nukta"/>
  <anchor x="606.9878787878789" y="548.5454545454545" name="top"/>
  <anchor x="609.739393939394" y="548.5454545454545" name="vedic"/>
  <outline>
    <contour>
      <point x="554.2060606060606" y="0.0" type="line"/>
      <point x="617.9181818181819" y="0.0" type="line"/>
      <point x="617.9181818181819" y="413.1484848484848" type="line" smooth="yes"/>
      <point x="617.9181818181819" y="475.6484848484849"/>
      <point x="649.5757575757576" y="514.4545454545455"/>
      <point x="707.8181818181819" y="514.4545454545455" type="curve" smooth="yes"/>
      <point x="763.0939393939394" y="514.4545454545455"/>
      <point x="793.269696969697" y="477.3606060606061"/>
      <point x="793.269696969697" y="418.4424242424243" type="curve" smooth="yes"/>
      <point x="793.269696969697" y="161.5909090909091" type="line" smooth="yes"/>
      <point x="793.269696969697" y="56.58181818181818"/>
      <point x="851.2848484848486" y="-1.8181818181818181"/>
      <point x="942.6151515151516" y="-1.8181818181818181" type="curve" smooth="yes"/>
      <point x="1067.951515151515" y="-1.8181818181818181"/>
      <point x="1158.2303030303028" y="114.4060606060606"/>
      <point x="1158.2303030303028" y="281.27272727272725" type="curve" smooth="yes"/>
      <point x="1158.2303030303028" y="382.1787878787879"/>
      <point x="1131.0939393939395" y="468.8909090909091"/>
      <point x="1056.3424242424244" y="553.5454545454545" type="curve"/>
      <point x="1022.3878787878789" y="526.4787878787878" type="line"/>
      <point x="1085.239393939394" y="456.4424242424243"/>
      <point x="1112.7939393939394" y="381.54242424242426"/>
      <point x="1112.7939393939394" y="286.72727272727275" type="curve" smooth="yes"/>
      <point x="1112.7939393939394" y="139.05757575757576"/>
      <point x="1038.8939393939395" y="41.27272727272727"/>
      <point x="950.090909090909" y="41.27272727272727" type="curve" smooth="yes"/>
      <point x="890.1969696969697" y="41.27272727272727"/>
      <point x="857.0696969696969" y="82.36363636363636"/>
      <point x="857.0696969696969" y="160.30303030303028" type="curve" smooth="yes"/>
      <point x="857.0696969696969" y="408.5515151515151" type="line" smooth="yes"/>
      <point x="857.0696969696969" y="502.5575757575757"/>
      <point x="799.9121212121212" y="555.3636363636364"/>
      <point x="716.4212121212122" y="555.3636363636364" type="curve" smooth="yes"/>
      <point x="627.4515151515153" y="555.3636363636364"/>
      <point x="578.4151515151516" y="493.75454545454545"/>
      <point x="578.4151515151516" y="419.3484848484849" type="curve" smooth="yes"/>
      <point x="578.4151515151516" y="355.5121212121212" type="line"/>
      <point x="554.2060606060606" y="355.5121212121212" type="line"/>
    </contour>
    <contour>
      <point x="246.3151515151515" y="-4.199999999999999" type="curve" smooth="yes"/>
      <point x="339.3454545454546" y="-4.199999999999999"/>
      <point x="401.0757575757576" y="55.309090909090905"/>
      <point x="401.0757575757576" y="148.58181818181816" type="curve" smooth="yes"/>
      <point x="401.0757575757576" y="238.5090909090909"/>
      <point x="344.9484848484849" y="294.25454545454545"/>
      <point x="265.41818181818184" y="294.25454545454545" type="curve" smooth="yes"/>
      <point x="174.72727272727272" y="294.25454545454545"/>
      <point x="116.27575757575757" y="218.25454545454545"/>
      <point x="104.21515151515153" y="131.72424242424242" type="curve"/>
      <point x="125.13333333333334" y="104.66666666666667" type="line"/>
      <point x="138.6" y="185.03030303030303"/>
      <point x="180.04848484848483" y="246.0"/>
      <point x="245.15151515151516" y="246.0" type="curve" smooth="yes"/>
      <point x="306.6606060606061" y="246.0"/>
      <point x="339.1878787878788" y="201.7090909090909"/>
      <point x="339.1878787878788" y="144.1818181818182" type="curve" smooth="yes"/>
      <point x="339.1878787878788" y="78.16363636363637"/>
      <point x="298.9939393939394" y="36.27272727272727"/>
      <point x="236.32424242424239" y="36.27272727272727" type="curve" smooth="yes"/>
      <point x="159.2909090909091" y="36.27272727272727"/>
      <point x="104.81212121212121" y="109.68484848484847"/>
      <point x="104.81212121212121" y="240.10909090909092" type="curve" smooth="yes"/>
      <point x="104.81212121212121" y="399.99090909090904"/>
      <point x="192.1818181818182" y="515.0"/>
      <point x="344.1878787878788" y="515.0" type="curve" smooth="yes"/>
      <point x="456.8484848484849" y="515.0"/>
      <point x="554.2060606060606" y="452.3757575757576"/>
      <point x="554.2060606060606" y="307.8030303030303" type="curve"/>
      <point x="597.3060606060606" y="309.78787878787875" type="line"/>
      <point x="595.0121212121212" y="480.45454545454544"/>
      <point x="481.8424242424242" y="555.3636363636364"/>
      <point x="345.2666666666667" y="555.3636363636364" type="curve" smooth="yes"/>
      <point x="168.3060606060606" y="555.3636363636364"/>
      <point x="61.43636363636364" y="424.6606060606061"/>
      <point x="61.43636363636364" y="241.10909090909092" type="curve" smooth="yes"/>
      <point x="61.43636363636364" y="87.12121212121212"/>
      <point x="139.11515151515152" y="-4.199999999999999"/>
    </contour>
  </outline>
</glyph>
<glyph name="aaMatra-tamil" format="2">
  <advance width="625.0242424242424"/>
  <unicode hex="0BBE"/>
  <note>
uni0BBE
</note>
  <anchor x="339.25454545454545" y="0.0" name="bottom"/>
  <anchor x="338.4212121212121" y="0.0" name="nukta"/>
  <anchor x="332.4212121212121" y="548.5454545454545" name="top"/>
  <anchor x="332.4212121212121" y="548.5454545454545" name="vedic"/>
  <outline>
    <contour>
      <point x="101.24848484848485" y="0.0" type="line"/>
      <point x="145.53939393939393" y="0.0" type="line"/>
      <point x="145.53939393939393" y="508.6363636363636" type="line"/>
      <point x="370.07575757575756" y="508.6363636363636" type="line"/>
      <point x="370.07575757575756" y="0.0" type="line"/>
      <point x="433.73030303030305" y="0.0" type="line"/>
      <point x="433.73030303030305" y="508.6363636363636" type="line"/>
      <point x="601.9212121212121" y="508.6363636363636" type="line"/>
      <point x="601.9212121212121" y="548.5454545454545" type="line"/>
      <point x="101.24848484848485" y="548.5454545454545" type="line"/>
    </contour>
  </outline>
</glyph>
<glyph name="iMatra-tamil" format="2">
  <advance width="210.00909090909093"/>
  <unicode hex="0BBF"/>
  <note>
uni0BBF
</note>
  <anchor x="-108.75151515151515" y="811.5787878787878" name="top"/>
  <outline>
    <contour>
      <point x="72.56363636363635" y="0.0" type="line"/>
      <point x="117.48484848484848" y="0.0" type="line"/>
      <point x="117.48484848484848" y="561.1878787878788" type="line" smooth="yes"/>
      <point x="117.48484848484848" y="721.8090909090909"/>
      <point x="27.46060606060606" y="811.5787878787878"/>
      <point x="-108.75151515151515" y="811.5787878787878" type="curve" smooth="yes"/>
      <point x="-219.83939393939394" y="811.5787878787878"/>
      <point x="-292.6272727272727" y="740.8818181818181"/>
      <point x="-292.6272727272727" y="648.0030303030303" type="curve" smooth="yes"/>
      <point x="-292.6272727272727" y="561.2757575757576"/>
      <point x="-231.55757575757576" y="508.6363636363636"/>
      <point x="-156.61818181818182" y="508.6363636363636" type="curve" smooth="yes"/>
      <point x="-150.5878787878788" y="508.6363636363636" type="line"/>
      <point x="-150.5878787878788" y="548.5454545454545" type="line"/>
      <point x="-155.42121212121214" y="548.5454545454545" type="line" smooth="yes"/>
      <point x="-207.34545454545454" y="548.5454545454545"/>
      <point x="-245.64545454545456" y="582.4939393939394"/>
      <point x="-245.64545454545456" y="638.439393939394" type="curve" smooth="yes"/>
      <point x="-245.64545454545456" y="706.0666666666666"/>
      <point x="-193.35757575757575" y="749.9757575757575"/>
      <point x="-112.22424242424242" y="749.9757575757575" type="curve" smooth="yes"/>
      <point x="0.5030303030303038" y="749.9757575757575"/>
      <point x="72.56363636363635" y="682.7787878787879"/>
      <point x="72.56363636363635" y="539.5363636363636" type="curve" smooth="yes"/>
    </contour>
  </outline>
</glyph>
<glyph name="iiMatra-tamil" format="2">
  <unicode hex="0BC0"/>
  <note>
uni0BC0
</note>
  <anchor x="0.0" y="548.5454545454545" name="_imatra"/>
  <anchor x="7.487878787878789" y="877.4545454545455" name="top"/>
  <outline>
    <contour>
      <point x="-19.284848484848485" y="512.2727272727273" type="curve" smooth="yes"/>
      <point x="0.0" y="512.2727272727273" type="line"/>
      <point x="0.0" y="548.5454545454545" type="line"/>
      <point x="-18.684848484848487" y="548.5454545454545" type="line" smooth="yes"/>
      <point x="-95.05151515151515" y="548.5454545454545"/>
      <point x="-144.3181818181818" y="601.3939393939394"/>
      <point x="-144.3181818181818" y="685.1515151515152" type="curve" smooth="yes"/>
      <point x="-144.3181818181818" y="773.8333333333334"/>
      <point x="-95.83636363636363" y="838.0"/>
      <point x="4.363636363636363" y="838.0" type="curve" smooth="yes"/>
      <point x="76.65151515151516" y="838.0"/>
      <point x="126.91515151515152" y="798.8939393939394"/>
      <point x="126.91515151515152" y="731.8939393939394" type="curve" smooth="yes"/>
      <point x="126.91515151515152" y="683.790909090909"/>
      <point x="96.95151515151515" y="651.0"/>
      <point x="50.0030303030303" y="651.0" type="curve" smooth="yes"/>
      <point x="-34.18181818181818" y="651.0"/>
      <point x="-53.31212121212121" y="756.4393939393939"/>
      <point x="-7.478787878787879" y="852.8181818181819" type="curve"/>
      <point x="-40.157575757575756" y="856.8181818181819" type="line"/>
      <point x="-103.60000000000001" y="737.6212121212121"/>
      <point x="-64.31818181818181" y="611.0909090909091"/>
      <point x="57.869696969696975" y="611.0909090909091" type="curve" smooth="yes"/>
      <point x="132.63636363636363" y="611.0909090909091"/>
      <point x="183.76969696969695" y="660.6666666666667"/>
      <point x="183.76969696969695" y="728.8575757575758" type="curve" smooth="yes"/>
      <point x="183.76969696969695" y="819.4424242424243"/>
      <point x="114.17575757575757" y="877.4545454545455"/>
      <point x="7.487878787878789" y="877.4545454545455" type="curve" smooth="yes"/>
      <point x="-114.74242424242424" y="877.4545454545455"/>
      <point x="-188.62424242424242" y="794.8878787878789"/>
      <point x="-188.62424242424242" y="685.8636363636364" type="curve" smooth="yes"/>
      <point x="-188.62424242424242" y="580.2121212121211"/>
      <point x="-119.47878787878787" y="512.2727272727273"/>
    </contour>
  </outline>
</glyph>
<glyph name="uMatra-tamil" format="2">
  <advance width="492.9181818181819"/>
  <unicode hex="0BC1"/>
  <note>
uni0BC1
</note>
  <anchor x="209.2" y="548.5454545454545" name="top"/>
  <outline>
    <contour>
      <point x="304.1757575757576" y="220.8181818181818" type="curve" smooth="yes"/>
      <point x="395.0" y="220.8181818181818"/>
      <point x="467.0" y="277.3484848484849"/>
      <point x="467.0" y="383.71212121212125" type="curve" smooth="yes"/>
      <point x="467.0" y="548.5454545454545" type="line"/>
      <point x="-228.96363636363637" y="548.5454545454545" type="line"/>
      <point x="-194.6818181818182" y="508.6363636363636" type="line"/>
      <point x="403.20000000000005" y="508.6363636363636" type="line"/>
      <point x="403.20000000000005" y="376.4757575757576" type="line" smooth="yes"/>
      <point x="403.20000000000005" y="306.2575757575757"/>
      <point x="359.9818181818182" y="262.6909090909091"/>
      <point x="296.9606060606061" y="262.6909090909091" type="curve" smooth="yes"/>
      <point x="229.60909090909092" y="262.6909090909091"/>
      <point x="195.9363636363636" y="307.12424242424237"/>
      <point x="195.9363636363636" y="384.6" type="curve" smooth="yes"/>
      <point x="195.9363636363636" y="525.7272727272727" type="line"/>
      <point x="152.04545454545453" y="525.7272727272727" type="line"/>
      <point x="152.04545454545453" y="388.29090909090905" type="line" smooth="yes"/>
      <point x="152.04545454545453" y="282.23030303030305"/>
      <point x="207.27575757575758" y="220.8181818181818"/>
    </contour>
  </outline>
</glyph>
<glyph name="uuMatra-tamil" format="2">
  <advance width="800.0545454545455"/>
  <unicode hex="0BC2"/>
  <note>
uni0BC2
</note>
  <anchor x="428.72121212121215" y="780.0" name="top"/>
  <outline>
    <contour>
      <point x="365.69393939393944" y="0.45454545454545453" type="curve" smooth="yes"/>
      <point x="606.4939393939394" y="0.45454545454545453"/>
      <point x="753.4878787878788" y="162.54545454545453"/>
      <point x="753.4878787878788" y="409.1818181818182" type="curve" smooth="yes"/>
      <point x="753.4878787878788" y="618.530303030303"/>
      <point x="628.8030303030303" y="780.0"/>
      <point x="428.72121212121215" y="780.0" type="curve" smooth="yes"/>
      <point x="237.17272727272726" y="780.0"/>
      <point x="159.7878787878788" y="651.7757575757576"/>
      <point x="159.7878787878788" y="526.6454545454545" type="curve" smooth="yes"/>
      <point x="159.7878787878788" y="393.47272727272724" type="line" smooth="yes"/>
      <point x="159.7878787878788" y="284.3030303030303"/>
      <point x="216.05454545454546" y="220.8181818181818"/>
      <point x="315.43030303030304" y="220.8181818181818" type="curve" smooth="yes"/>
      <point x="404.1818181818182" y="220.8181818181818"/>
      <point x="474.10909090909087" y="278.3848484848485"/>
      <point x="474.10909090909087" y="383.71212121212125" type="curve" smooth="yes"/>
      <point x="474.10909090909087" y="548.5454545454545" type="line"/>
      <point x="-230.6272727272727" y="548.5454545454545" type="line"/>
      <point x="-202.9818181818182" y="508.6363636363636" type="line"/>
      <point x="410.6545454545455" y="508.6363636363636" type="line"/>
      <point x="410.6545454545455" y="376.4757575757576" type="line" smooth="yes"/>
      <point x="410.6545454545455" y="306.2575757575757"/>
      <point x="367.06969696969696" y="262.6909090909091"/>
      <point x="304.7030303030303" y="262.6909090909091" type="curve" smooth="yes"/>
      <point x="236.37272727272725" y="262.6909090909091"/>
      <point x="203.67878787878786" y="310.2333333333333"/>
      <point x="203.67878787878786" y="389.7818181818182" type="curve" smooth="yes"/>
      <point x="203.67878787878786" y="526.6454545454545" type="line" smooth="yes"/>
      <point x="203.67878787878786" y="636.9575757575758"/>
      <point x="272.1545454545454" y="740.1818181818181"/>
      <point x="418.130303030303" y="740.1818181818181" type="curve" smooth="yes"/>
      <point x="602.8" y="740.1818181818181"/>
      <point x="689.2424242424242" y="592.4848484848485"/>
      <point x="689.2424242424242" y="418.3030303030303" type="curve" smooth="yes"/>
      <point x="689.2424242424242" y="197.50303030303027"/>
      <point x="581.7424242424242" y="40.81818181818182"/>
      <point x="365.55151515151516" y="40.81818181818182" type="curve" smooth="yes"/>
      <point x="251.10909090909095" y="40.81818181818182"/>
      <point x="166.43636363636364" y="80.8030303030303"/>
      <point x="92.56363636363636" y="175.74242424242422" type="curve"/>
      <point x="60.912121212121214" y="150.28484848484848" type="line"/>
      <point x="139.59696969696972" y="52.59090909090909"/>
      <point x="230.39090909090908" y="0.45454545454545453"/>
    </contour>
  </outline>
</glyph>
<glyph name="eMatra-tamil" format="2">
  <advance width="767.2454545454544"/>
  <unicode hex="0BC6"/>
  <note>
uni0BC6
</note>
  <outline>
    <contour>
      <point x="294.76666666666665" y="-4.199999999999999" type="curve" smooth="yes"/>
      <point x="388.86060606060613" y="-4.199999999999999"/>
      <point x="452.4969696969697" y="56.38484848484848"/>
      <point x="452.4969696969697" y="151.16666666666669" type="curve" smooth="yes"/>
      <point x="452.4969696969697" y="243.05454545454546"/>
      <point x="396.32424242424247" y="300.1636363636364"/>
      <point x="312.5060606060606" y="300.1636363636364" type="curve" smooth="yes"/>
      <point x="222.13030303030303" y="300.1636363636364"/>
      <point x="153.34545454545457" y="225.5"/>
      <point x="139.25454545454548" y="118.24848484848485" type="curve"/>
      <point x="162.46969696969694" y="91.97878787878787" type="line"/>
      <point x="175.81515151515154" y="190.0939393939394"/>
      <point x="226.0878787878788" y="251.9090909090909"/>
      <point x="293.28484848484845" y="251.9090909090909" type="curve" smooth="yes"/>
      <point x="356.9424242424243" y="251.9090909090909"/>
      <point x="391.0969696969697" y="206.87575757575758"/>
      <point x="391.0969696969697" y="147.02121212121213" type="curve" smooth="yes"/>
      <point x="391.0969696969697" y="80.60303030303031"/>
      <point x="348.6424242424243" y="36.27272727272727"/>
      <point x="284.23030303030305" y="36.27272727272727" type="curve" smooth="yes"/>
      <point x="156.4151515151515" y="36.27272727272727"/>
      <point x="99.56060606060606" y="188.4909090909091"/>
      <point x="99.56060606060606" y="366.43636363636364" type="curve" smooth="yes"/>
      <point x="99.56060606060606" y="597.1030303030303"/>
      <point x="210.8151515151515" y="750.2909090909092"/>
      <point x="398.869696969697" y="750.2909090909092" type="curve" smooth="yes"/>
      <point x="547.8060606060606" y="750.2909090909092"/>
      <point x="629.9666666666667" y="673.3121212121212"/>
      <point x="629.9666666666667" y="479.2363636363636" type="curve" smooth="yes"/>
      <point x="629.9666666666667" y="0.0" type="line"/>
      <point x="674.7212121212123" y="0.0" type="line"/>
      <point x="674.7212121212123" y="488.8333333333333" type="line" smooth="yes"/>
      <point x="674.7212121212123" y="711.0424242424242"/>
      <point x="574.4212121212122" y="813.0181818181819"/>
      <point x="401.5939393939394" y="813.0181818181819" type="curve" smooth="yes"/>
      <point x="186.43333333333334" y="813.0181818181819"/>
      <point x="56.01818181818182" y="625.6878787878788"/>
      <point x="56.01818181818182" y="372.09090909090907" type="curve" smooth="yes"/>
      <point x="56.01818181818182" y="172.65454545454543"/>
      <point x="130.76060606060605" y="-4.199999999999999"/>
    </contour>
  </outline>
</glyph>
<glyph name="eeMatra-tamil" format="2">
  <advance width="566.3848484848485"/>
  <unicode hex="0BC7"/>
  <note>
uni0BC7
</note>
  <outline>
    <contour>
      <point x="353.6454545454546" y="-4.545454545454546" type="curve" smooth="yes"/>
      <point x="448.46363636363634" y="-4.545454545454546"/>
      <point x="513.5121212121212" y="52.7"/>
      <point x="513.5121212121212" y="148.60606060606062" type="curve" smooth="yes"/>
      <point x="513.5121212121212" y="243.02121212121213"/>
      <point x="457.60303030303027" y="297.67272727272723"/>
      <point x="377.94545454545454" y="297.67272727272723" type="curve" smooth="yes"/>
      <point x="282.4848484848485" y="297.67272727272723"/>
      <point x="218.73030303030305" y="209.94545454545457"/>
      <point x="213.04848484848486" y="80.63333333333334" type="curve"/>
      <point x="239.30606060606058" y="55.16969696969697" type="line"/>
      <point x="246.73030303030305" y="179.78484848484848"/>
      <point x="289.2060606060606" y="249.41818181818184"/>
      <point x="358.830303030303" y="249.41818181818184" type="curve" smooth="yes"/>
      <point x="420.0060606060606" y="249.41818181818184"/>
      <point x="451.6242424242424" y="204.83939393939394"/>
      <point x="451.6242424242424" y="144.0060606060606" type="curve" smooth="yes"/>
      <point x="451.6242424242424" y="75.84242424242424"/>
      <point x="408.0" y="36.27272727272727"/>
      <point x="344.28484848484845" y="36.27272727272727" type="curve" smooth="yes"/>
      <point x="219.16969696969696" y="36.27272727272727"/>
      <point x="104.01515151515153" y="181.3151515151515"/>
      <point x="104.01515151515153" y="398.91515151515154" type="curve" smooth="yes"/>
      <point x="104.01515151515153" y="617.1151515151514"/>
      <point x="219.16969696969696" y="769.0666666666667"/>
      <point x="343.99696969696976" y="769.0666666666667" type="curve" smooth="yes"/>
      <point x="408.0" y="769.0666666666667"/>
      <point x="451.6242424242424" y="729.2969696969697"/>
      <point x="451.6242424242424" y="661.1333333333333" type="curve" smooth="yes"/>
      <point x="451.6242424242424" y="600.4666666666667"/>
      <point x="420.0060606060606" y="556.0878787878788"/>
      <point x="358.830303030303" y="556.0878787878788" type="curve" smooth="yes"/>
      <point x="289.49393939393946" y="556.0878787878788"/>
      <point x="247.8818181818182" y="624.1393939393939"/>
      <point x="240.4575757575757" y="749.7606060606062" type="curve"/>
      <point x="213.9121212121212" y="724.7636363636364" type="line"/>
      <point x="219.8818181818182" y="593.6666666666666"/>
      <point x="282.77272727272725" y="507.97878787878784"/>
      <point x="377.94545454545454" y="507.97878787878784" type="curve" smooth="yes"/>
      <point x="457.60303030303027" y="507.97878787878784"/>
      <point x="513.5121212121212" y="562.3181818181819"/>
      <point x="513.5121212121212" y="656.7333333333333" type="curve" smooth="yes"/>
      <point x="513.5121212121212" y="752.6060606060605"/>
      <point x="448.1757575757576" y="809.8515151515152"/>
      <point x="353.6454545454546" y="809.8515151515152" type="curve" smooth="yes"/>
      <point x="194.33939393939394" y="809.8515151515152"/>
      <point x="60.63939393939393" y="638.6393939393939"/>
      <point x="60.63939393939393" y="399.3151515151515" type="curve" smooth="yes"/>
      <point x="60.63939393939393" y="160.44545454545454"/>
      <point x="194.62727272727273" y="-4.545454545454546"/>
    </contour>
  </outline>
</glyph>
<glyph name="aiMatra-tamil" format="2">
  <advance width="1148.4545454545455"/>
  <unicode hex="0BC8"/>
  <note>
uni0BC8
</note>
  <outline>
    <contour>
      <point x="942.390909090909" y="-6.509090909090909" type="line"/>
      <point x="1035.109090909091" y="50.336363636363636"/>
      <point x="1091.2848484848485" y="141.2090909090909"/>
      <point x="1091.2848484848485" y="264.3515151515152" type="curve" smooth="yes"/>
      <point x="1091.2848484848485" y="443.3606060606061"/>
      <point x="973.4939393939394" y="555.3636363636364"/>
      <point x="801.769696969697" y="555.3636363636364" type="curve" smooth="yes"/>
      <point x="593.6363636363636" y="555.3636363636364"/>
      <point x="476.5090909090909" y="381.32727272727277"/>
      <point x="476.5090909090909" y="192.23939393939395" type="curve" smooth="yes"/>
      <point x="476.5090909090909" y="70.26969696969698"/>
      <point x="528.5636363636364" y="-5.0"/>
      <point x="624.0818181818181" y="-5.0" type="curve" smooth="yes"/>
      <point x="718.7424242424242" y="-5.0"/>
      <point x="782.3969696969698" y="68.4818181818182"/>
      <point x="782.3969696969698" y="187.06060606060606" type="curve" smooth="yes"/>
      <point x="782.3969696969698" y="405.48181818181814"/>
      <point x="610.9363636363636" y="555.3636363636364"/>
      <point x="395.30606060606056" y="555.3636363636364" type="curve" smooth="yes"/>
      <point x="205.39090909090908" y="555.3636363636364"/>
      <point x="57.515151515151516" y="437.7878787878788"/>
      <point x="57.515151515151516" y="235.1272727272727" type="curve" smooth="yes"/>
      <point x="57.515151515151516" y="85.92727272727272"/>
      <point x="137.84848484848487" y="-4.199999999999999"/>
      <point x="242.0606060606061" y="-4.199999999999999" type="curve" smooth="yes"/>
      <point x="334.5787878787879" y="-4.199999999999999"/>
      <point x="396.6424242424243" y="55.38484848484848"/>
      <point x="396.6424242424243" y="149.49090909090907" type="curve" smooth="yes"/>
      <point x="396.6424242424243" y="238.96363636363637"/>
      <point x="340.1818181818182" y="294.25454545454545"/>
      <point x="261.89393939393943" y="294.25454545454545" type="curve" smooth="yes"/>
      <point x="172.50303030303027" y="294.25454545454545"/>
      <point x="112.52121212121213" y="219.9969696969697"/>
      <point x="100.2939393939394" y="132.0121212121212" type="curve"/>
      <point x="121.21212121212123" y="104.95454545454545" type="line"/>
      <point x="134.6787878787879" y="185.60606060606062"/>
      <point x="176.12727272727273" y="246.0"/>
      <point x="241.23030303030302" y="246.0" type="curve" smooth="yes"/>
      <point x="302.4060606060606" y="246.0"/>
      <point x="335.1" y="202.6181818181818"/>
      <point x="335.1" y="145.0909090909091" type="curve" smooth="yes"/>
      <point x="335.1" y="79.07272727272729"/>
      <point x="295.8151515151515" y="36.27272727272727"/>
      <point x="232.81212121212124" y="36.27272727272727" type="curve" smooth="yes"/>
      <point x="157.8" y="36.27272727272727"/>
      <point x="100.71212121212122" y="107.2181818181818"/>
      <point x="100.71212121212122" y="232.9818181818182" type="curve" smooth="yes"/>
      <point x="100.71212121212122" y="412.5939393939394"/>
      <point x="225.56969696969696" y="515.0"/>
      <point x="387.4848484848485" y="515.0" type="curve" smooth="yes"/>
      <point x="580.9969696969698" y="515.0"/>
      <point x="717.8151515151515" y="389.5"/>
      <point x="717.8151515151515" y="186.95151515151514" type="curve" smooth="yes"/>
      <point x="717.8151515151515" y="91.57575757575758"/>
      <point x="678.8848484848486" y="36.27272727272727"/>
      <point x="614.5545454545455" y="36.27272727272727" type="curve" smooth="yes"/>
      <point x="551.3939393939394" y="36.27272727272727"/>
      <point x="518.1393939393939" y="96.82727272727274"/>
      <point x="518.1393939393939" y="188.6939393939394" type="curve" smooth="yes"/>
      <point x="518.1393939393939" y="358.0212121212121"/>
      <point x="615.2878787878789" y="515.0"/>
      <point x="793.7484848484848" y="515.0" type="curve" smooth="yes"/>
      <point x="934.4030303030304" y="515.0"/>
      <point x="1027.9151515151516" y="416.4242424242424"/>
      <point x="1027.9151515151516" y="257.71515151515155" type="curve" smooth="yes"/>
      <point x="1027.9151515151516" y="156.33030303030304"/>
      <point x="986.6212121212121" y="77.10606060606061"/>
      <point x="921.3727272727273" y="23.251515151515154" type="curve"/>
    </contour>
  </outline>
</glyph>
<glyph name="halant-tamil" format="2">
  <unicode hex="0BCD"/>
  <note>
uni0BCD
</note>
  <anchor x="0.0" y="548.5454545454545" name="_top"/>
  <outline>
    <contour>
      <point x="0.0" y="633.8575757575758" type="curve" smooth="yes"/>
      <point x="27.32424242424242" y="633.8575757575758"/>
      <point x="49.04545454545455" y="655.9242424242425"/>
      <point x="49.04545454545455" y="681.7030303030302" type="curve" smooth="yes"/>
      <point x="49.04545454545455" y="707.3151515151515"/>
      <point x="27.32424242424242" y="729.9151515151515"/>
      <point x="0.0" y="729.9151515151515" type="curve" smooth="yes"/>
      <point x="-27.32424242424242" y="729.9151515151515"/>
      <point x="-49.04545454545455" y="707.3151515151515"/>
      <point x="-49.04545454545455" y="681.7030303030302" type="curve" smooth="yes"/>
      <point x="-49.04545454545455" y="655.9242424242425"/>
      <point x="-27.32424242424242" y="633.8575757575758"/>
    </contour>
  </outline>
</glyph>
